G04 ================== begin FILE IDENTIFICATION RECORD ==================*
G04 Layout Name:  TESTBED_IN4007.brd*
G04 Film Name:    PASTTOP*
G04 File Format:  Gerber RS274X*
G04 File Origin:  Cadence Allegro 16.6-2015-S108*
G04 Origin Date:  Mon Jan 04 13:55:09 2021*
G04 *
G04 Layer:  PIN/PASTEMASK_TOP*
G04 Layer:  PACKAGE GEOMETRY/PASTEMASK_TOP*
G04 Layer:  BOARD GEOMETRY/OUTLINE*
G04 *
G04 Offset:    (0.000 0.000)*
G04 Mirror:    No*
G04 Mode:      Positive*
G04 Rotation:  0*
G04 FullContactRelief:  No*
G04 UndefLineWidth:     6.000*
G04 ================== end FILE IDENTIFICATION RECORD ====================*
%FSLAX55Y55*MOIN*%
%IR0*IPPOS*OFA0.00000B0.00000*MIA0B0*SFA1.00000B1.00000*%
%AMMACRO11*
4,1,44,.017299,-.0425,
-.017299,-.0425,
-.019045,-.042394,
-.020746,-.041987,
-.02235,-.04129,
-.023809,-.040325,
-.025078,-.039122,
-.026119,-.037717,
-.026901,-.036152,
-.027398,-.034475,
-.027597,-.032737,
-.027598,-.032701,
-.027598,.032701,
-.027405,.034439,
-.026914,.036118,
-.026138,.037686,
-.025102,.039095,
-.023837,.040303,
-.022382,.041273,
-.02078,.041975,
-.019081,.042389,
-.017335,.042501,
-.017299,.0425,
.017299,.0425,
.019045,.042394,
.020746,.041987,
.02235,.04129,
.023809,.040325,
.025078,.039122,
.026119,.037717,
.026901,.036152,
.027398,.034475,
.027597,.032737,
.027598,.032701,
.027598,-.032701,
.027405,-.034439,
.026914,-.036118,
.026138,-.037686,
.025102,-.039095,
.023837,-.040303,
.022382,-.041273,
.02078,-.041975,
.019081,-.042389,
.017335,-.042501,
.017299,-.0425,
0.0*
%
%ADD11MACRO11*%
%ADD10R,.040161X.05*%
%ADD12R,.037012X.05315*%
%ADD13C,.006*%
G75*
%LPD*%
G75*
G54D10*
X16112Y115318D03*
X23119D03*
G54D11*
X14492Y125448D03*
X23548D03*
G54D12*
X253193Y245610D03*
X246185D03*
G54D13*
G01X460730Y419727D02*
X19807Y419728D01*
G03X4059Y403980I0J-15748D01*
G01Y10279D01*
G03X19807Y-5470I15748J0D01*
G01X33750D01*
G03X49498Y10279I0J15748D01*
G01Y14216D01*
G02X65246Y29964I15748J0D01*
G01X227756D01*
G02X243504Y14216I0J-15748D01*
G01Y10279D01*
G03X259252Y-5470I15748J0D01*
G01X460752Y-5463D01*
G03X476500Y10279I0J15748D01*
G01Y403980D01*
G03X460730Y419727I-15770J-22D01*
G01X476500Y403980D02*
Y10279D01*
G02X460752Y-5463I-15748J6D01*
G01X259252Y-5470D01*
G02X243504Y10279I0J15748D01*
G01Y14216D01*
G03X227756Y29964I-15748J0D01*
G01X65246D01*
G03X49498Y14216I0J-15748D01*
G01Y10279D01*
G02X33750Y-5470I-15748J0D01*
G01X19807D01*
G02X4059Y10279I0J15748D01*
G01Y403980D01*
G02X19807Y419728I15748J0D01*
G01X460730Y419727D01*
G02X476500Y403980I0J-15770D01*
M02*
