G04 ================== begin FILE IDENTIFICATION RECORD ==================*
G04 Layout Name:  TESTBED_IN4007.brd*
G04 Film Name:    SILKTOP*
G04 File Format:  Gerber RS274X*
G04 File Origin:  Cadence Allegro 16.6-2015-S108*
G04 Origin Date:  Mon Jan 04 13:55:09 2021*
G04 *
G04 Layer:  REF DES/SILKSCREEN_TOP*
G04 Layer:  PACKAGE GEOMETRY/SILKSCREEN_TOP*
G04 Layer:  BOARD GEOMETRY/SILKSCREEN_TOP*
G04 Layer:  BOARD GEOMETRY/OUTLINE*
G04 *
G04 Offset:    (0.000 0.000)*
G04 Mirror:    No*
G04 Mode:      Positive*
G04 Rotation:  0*
G04 FullContactRelief:  No*
G04 UndefLineWidth:     6.000*
G04 ================== end FILE IDENTIFICATION RECORD ====================*
%FSLAX55Y55*MOIN*%
%IR0*IPPOS*OFA0.00000B0.00000*MIA0B0*SFA1.00000B1.00000*%
%ADD10C,.005118*%
%ADD11C,.00787*%
%ADD12C,.007874*%
%ADD13C,.009839*%
%ADD14C,.01*%
%ADD15C,.03*%
%ADD16C,.0315*%
%ADD17C,.006*%
G75*
%LPD*%
G75*
G54D10*
G01X24576Y111854D02*
X14654D01*
X13158Y113349D01*
Y117287D01*
X14654Y118783D01*
X24576D01*
X26073Y117287D01*
Y113349D01*
X24576Y111854D01*
G54D11*
G01X55841Y321949D02*
Y344864D01*
G01X207102Y321949D02*
X55841D01*
G01Y344864D02*
X69582D01*
G01X55841Y374864D02*
Y396990D01*
G01X69582Y374864D02*
X55841D01*
G01X55839Y396990D02*
X207102D01*
G01X69582Y374864D02*
Y344864D01*
G01X86826Y334508D02*
X204858D01*
Y323997D01*
X84109D01*
Y334508D01*
X86826D01*
G01Y394508D02*
X204858D01*
Y383997D01*
X84109D01*
Y394508D01*
X86826D01*
G01X207102Y396990D02*
Y321949D01*
G54D12*
G01X-16417Y38182D02*
X27283D01*
Y109127D01*
X-16417D01*
Y38182D01*
G01X29280Y312516D02*
Y253619D01*
X9280D01*
G01D02*
Y312516D01*
G01D02*
X29280D01*
G01X35877Y378008D02*
Y344150D01*
X-3493D01*
Y378008D01*
X35877D01*
G01X42473Y10279D02*
G03I-10000J0D01*
G01X239712Y321302D02*
G03I-10000J0D01*
G01X276302Y362409D02*
G03I-19689J0D01*
G01X253710Y403980D02*
G03I-10000J0D01*
G01X271597Y10279D02*
G03I-10000J0D01*
G01X265274Y342330D02*
X247951D01*
G01Y343118D02*
X252282D01*
G01X247951Y343905D02*
X249526D01*
G01X247951Y344693D02*
Y341543D01*
X265274D01*
Y344693D01*
G01X289130Y246499D02*
G03I-14142J0D01*
G01X290575Y328679D02*
X280732D01*
Y390569D01*
G01X265274Y343118D02*
X260943D01*
G01X265274Y343905D02*
X263699D01*
G01X280732Y390569D02*
X290575D01*
G01X284976Y403814D02*
G03I-10000J0D01*
G01X479551Y406868D02*
Y312380D01*
X290575D01*
Y406868D01*
X479551D01*
G01X329945D02*
Y312380D01*
G01X363728Y10279D02*
G03I-10000J0D01*
G54D13*
G01X27092Y128479D02*
Y122417D01*
G02X25083Y120409I-1994J-14D01*
G01X12957D01*
G02X10949Y122417I-14J1994D01*
G01Y128479D01*
G02X12957Y130487I1994J14D01*
G01X25083D01*
G02X27092Y128479I14J-1994D01*
G01X18233Y121944D02*
Y128952D01*
G01D02*
X19807D01*
G01D02*
Y121944D01*
G01D02*
X18233D01*
G01X256185Y249114D02*
Y242106D01*
X243193D01*
Y249114D01*
X256185D01*
G54D14*
G01X10501Y29937D02*
X10918Y29387D01*
X11418Y29021D01*
X12001Y28838D01*
X12668Y29021D01*
X13168Y29387D01*
X13668Y29937D01*
X13835Y30671D01*
Y34338D01*
G01X16501Y28838D02*
Y34338D01*
X18501D01*
X19168Y34062D01*
X19668Y33421D01*
X19835Y32688D01*
X19668Y31954D01*
X19251Y31404D01*
X18501Y31129D01*
X16501D01*
G01X24168Y28838D02*
Y34338D01*
X23168Y33238D01*
G01Y28838D02*
X25168D01*
G01X18758Y138506D02*
X18258Y138781D01*
X17675Y138964D01*
X17008D01*
X16258Y138689D01*
X15675Y138231D01*
X15258Y137681D01*
X14925Y136764D01*
X14841Y135939D01*
X15008Y135114D01*
X15258Y134564D01*
X15758Y134014D01*
X16341Y133648D01*
X16925Y133464D01*
X17508D01*
X18091Y133648D01*
X18591Y133923D01*
X19008Y134289D01*
G01X22925Y133464D02*
X23508Y133556D01*
X24175Y133831D01*
X24591Y134289D01*
X24758Y134931D01*
X24591Y135573D01*
X24091Y136123D01*
X23341Y136398D01*
X22508D01*
X22008Y136581D01*
X21591Y137039D01*
X21425Y137681D01*
X21675Y138323D01*
X22258Y138781D01*
X22925Y138964D01*
X23591Y138781D01*
X24175Y138323D01*
X24425Y137681D01*
X24258Y137039D01*
X23841Y136581D01*
X23341Y136398D01*
X22508D01*
X21758Y136123D01*
X21258Y135573D01*
X21091Y134931D01*
X21258Y134289D01*
X21675Y133831D01*
X22341Y133556D01*
X22925Y133464D01*
G01X18907Y145522D02*
X18407Y145797D01*
X17824Y145980D01*
X17158D01*
X16407Y145705D01*
X15824Y145247D01*
X15407Y144697D01*
X15074Y143780D01*
X14991Y142955D01*
X15157Y142130D01*
X15407Y141580D01*
X15908Y141030D01*
X16491Y140664D01*
X17074Y140480D01*
X17657D01*
X18241Y140664D01*
X18741Y140938D01*
X19158Y141305D01*
G01X21657Y141122D02*
X22241Y140664D01*
X22907Y140480D01*
X23574Y140664D01*
X24157Y141213D01*
X24574Y142038D01*
X24741Y142864D01*
Y143872D01*
X24574Y144697D01*
X24157Y145430D01*
X23657Y145797D01*
X23074Y145980D01*
X22407Y145797D01*
X21908Y145430D01*
X21574Y144880D01*
X21407Y144147D01*
X21574Y143505D01*
X21991Y142864D01*
X22491Y142497D01*
X23074Y142405D01*
X23741Y142588D01*
X24241Y143047D01*
X24741Y143872D01*
G01X14741Y316470D02*
X15241Y316012D01*
X15824Y315737D01*
X16574Y315646D01*
X17325Y315829D01*
X17908Y316196D01*
X18325Y316837D01*
X18408Y317570D01*
X18241Y318304D01*
X17825Y318762D01*
X17241Y319129D01*
X16658Y319220D01*
X16075Y319129D01*
X15325Y318762D01*
X15575Y321146D01*
X17825D01*
G01X20491D02*
X22574Y315646D01*
X24658Y321146D01*
G01X16988Y388122D02*
Y393622D01*
X18988D01*
X19655Y393347D01*
X20155Y392706D01*
X20322Y391972D01*
X20155Y391239D01*
X19738Y390689D01*
X18988Y390414D01*
X16988D01*
G01X24655Y388122D02*
Y393622D01*
X23655Y392522D01*
G01Y388122D02*
X25655D01*
G01X33529Y57601D02*
Y59268D01*
X35179D01*
X35729Y58768D01*
X36096Y58184D01*
X36279Y57351D01*
X36096Y56518D01*
X35729Y55935D01*
X35179Y55434D01*
X34537Y55101D01*
X33804Y54934D01*
X33162D01*
X32612Y55101D01*
X31970Y55434D01*
X31421Y55935D01*
X31054Y56434D01*
X30779Y57101D01*
Y57684D01*
X30962Y58351D01*
X31329Y58851D01*
G01X36279Y61185D02*
X30779D01*
X36279Y65018D01*
X30779D01*
G01X36279Y67268D02*
X30779D01*
Y68934D01*
X31054Y69601D01*
X31421Y70101D01*
X31970Y70518D01*
X32612Y70851D01*
X33529Y70934D01*
X34446Y70851D01*
X35087Y70518D01*
X35637Y70101D01*
X36004Y69601D01*
X36279Y68934D01*
Y67268D01*
G01X32095Y313499D02*
Y318999D01*
X33761D01*
X34428Y318724D01*
X34928Y318357D01*
X35345Y317807D01*
X35678Y317165D01*
X35761Y316248D01*
X35678Y315332D01*
X35345Y314690D01*
X34928Y314140D01*
X34428Y313774D01*
X33761Y313499D01*
X32095D01*
G01X39928D02*
Y318999D01*
X38928Y317899D01*
G01Y313499D02*
X40928D01*
G01X42136Y351129D02*
X43803D01*
Y349479D01*
X43303Y348929D01*
X42719Y348563D01*
X41886Y348379D01*
X41053Y348563D01*
X40470Y348929D01*
X39969Y349479D01*
X39636Y350121D01*
X39469Y350854D01*
Y351496D01*
X39636Y352046D01*
X39969Y352688D01*
X40470Y353238D01*
X40969Y353604D01*
X41636Y353879D01*
X42219D01*
X42886Y353696D01*
X43386Y353329D01*
G01X45720Y348379D02*
Y353879D01*
X49553Y348379D01*
Y353879D01*
G01X51803Y348379D02*
Y353879D01*
X53469D01*
X54136Y353604D01*
X54636Y353238D01*
X55053Y352688D01*
X55386Y352046D01*
X55469Y351129D01*
X55386Y350213D01*
X55053Y349571D01*
X54636Y349021D01*
X54136Y348654D01*
X53469Y348379D01*
X51803D01*
G01X40311Y369613D02*
X40811Y369155D01*
X41394Y368880D01*
X42144Y368788D01*
X42895Y368972D01*
X43478Y369338D01*
X43894Y369980D01*
X43978Y370713D01*
X43811Y371447D01*
X43394Y371905D01*
X42811Y372272D01*
X42228Y372363D01*
X41644Y372272D01*
X40894Y371905D01*
X41144Y374288D01*
X43394D01*
G01X46061D02*
X48144Y368788D01*
X50228Y374288D01*
G01X78255Y314840D02*
Y320340D01*
X77255Y319240D01*
G01Y314840D02*
X79255D01*
G01X58612Y403564D02*
X59029Y403014D01*
X59529Y402648D01*
X60112Y402464D01*
X60779Y402648D01*
X61279Y403014D01*
X61779Y403564D01*
X61946Y404298D01*
Y407964D01*
G01X64696Y407048D02*
X65196Y407598D01*
X65779Y407873D01*
X66446Y407964D01*
X67279Y407781D01*
X67862Y407323D01*
X68029Y406773D01*
X67946Y406223D01*
X67612Y405764D01*
X65946Y404848D01*
X65196Y404206D01*
X64696Y403289D01*
X64529Y402464D01*
X68029D01*
G01X87998Y404053D02*
X88498Y404603D01*
X89082Y404878D01*
X89748Y404969D01*
X90582Y404786D01*
X91165Y404328D01*
X91332Y403778D01*
X91248Y403228D01*
X90915Y402769D01*
X89248Y401853D01*
X88498Y401211D01*
X87998Y400294D01*
X87832Y399469D01*
X91332D01*
G01X139123Y313320D02*
Y318820D01*
X138123Y317720D01*
G01Y313320D02*
X140123D01*
G01X145123D02*
Y318820D01*
X144123Y317720D01*
G01Y313320D02*
X146123D01*
G01X140140Y398536D02*
Y404036D01*
X139140Y402936D01*
G01Y398536D02*
X141140D01*
G01X144557Y403119D02*
X145057Y403669D01*
X145640Y403944D01*
X146307Y404036D01*
X147140Y403853D01*
X147724Y403394D01*
X147890Y402844D01*
X147807Y402294D01*
X147474Y401836D01*
X145807Y400919D01*
X145057Y400278D01*
X144557Y399361D01*
X144390Y398536D01*
X147890D01*
G01X148921Y40672D02*
Y46172D01*
X147922Y45072D01*
G01Y40672D02*
X149921D01*
G01X147159Y64219D02*
X147659Y64769D01*
X148243Y65044D01*
X148909Y65136D01*
X149743Y64952D01*
X150326Y64494D01*
X150493Y63944D01*
X150409Y63394D01*
X150076Y62936D01*
X148409Y62019D01*
X147659Y61377D01*
X147159Y60460D01*
X146993Y59636D01*
X150493D01*
G01X199052Y317272D02*
X199552Y317822D01*
X200135Y318097D01*
X200802Y318188D01*
X201635Y318005D01*
X202218Y317547D01*
X202385Y316997D01*
X202302Y316447D01*
X201968Y315988D01*
X200302Y315072D01*
X199552Y314430D01*
X199052Y313513D01*
X198885Y312688D01*
X202385D01*
G01X204802Y313788D02*
X205302Y313147D01*
X205968Y312780D01*
X206718Y312688D01*
X207385Y312780D01*
X208052Y313238D01*
X208468Y313788D01*
X208552Y314338D01*
X208385Y314980D01*
X207802Y315438D01*
X207218Y315622D01*
X206468D01*
G01X207218D02*
X207718Y315897D01*
X208135Y316355D01*
X208302Y316905D01*
X208135Y317455D01*
X207718Y317913D01*
X206968Y318188D01*
X206218Y318097D01*
X205468Y317730D01*
G01X198325Y402628D02*
X198825Y403177D01*
X199409Y403453D01*
X200075Y403544D01*
X200909Y403361D01*
X201492Y402902D01*
X201659Y402353D01*
X201575Y401802D01*
X201242Y401344D01*
X199575Y400428D01*
X198825Y399786D01*
X198325Y398869D01*
X198159Y398044D01*
X201659D01*
G01X206909D02*
Y403544D01*
X203825Y399603D01*
X207992D01*
G01X224931Y389508D02*
X224431Y389784D01*
X223847Y389967D01*
X223181D01*
X222430Y389692D01*
X221847Y389234D01*
X221431Y388683D01*
X221097Y387767D01*
X221014Y386942D01*
X221181Y386117D01*
X221431Y385567D01*
X221931Y385017D01*
X222514Y384650D01*
X223097Y384467D01*
X223681D01*
X224264Y384650D01*
X224764Y384925D01*
X225181Y385292D01*
G01X227014Y384467D02*
X229097Y389967D01*
X231181Y384467D01*
G01X230431Y386392D02*
X227764D01*
G01X233431Y384467D02*
Y389967D01*
X235431D01*
X236097Y389692D01*
X236597Y389050D01*
X236764Y388317D01*
X236597Y387584D01*
X236181Y387033D01*
X235431Y386758D01*
X233431D01*
G01X241097Y384467D02*
Y389967D01*
X240097Y388867D01*
G01Y384467D02*
X242097D01*
G01X241454Y253545D02*
Y259046D01*
X243537D01*
X244204Y258770D01*
X244621Y258404D01*
X244787Y257670D01*
X244621Y256937D01*
X244120Y256479D01*
X243537Y256204D01*
X241454D01*
G01X243537D02*
X244787Y253545D01*
G01X249120D02*
Y259046D01*
X248120Y257946D01*
G01Y253545D02*
X250120D01*
G01X255120D02*
Y259046D01*
X254121Y257946D01*
G01Y253545D02*
X256120D01*
G01X268023Y386144D02*
X268440Y385594D01*
X268940Y385228D01*
X269523Y385044D01*
X270190Y385228D01*
X270690Y385594D01*
X271190Y386144D01*
X271357Y386878D01*
Y390544D01*
G01X273857Y386144D02*
X274356Y385503D01*
X275023Y385136D01*
X275773Y385044D01*
X276440Y385136D01*
X277107Y385594D01*
X277523Y386144D01*
X277606Y386694D01*
X277440Y387336D01*
X276856Y387794D01*
X276273Y387978D01*
X275523D01*
G01X276273D02*
X276773Y388253D01*
X277190Y388711D01*
X277357Y389261D01*
X277190Y389811D01*
X276773Y390269D01*
X276023Y390544D01*
X275273Y390453D01*
X274523Y390086D01*
G01X294400Y247769D02*
Y253269D01*
X296400D01*
X297067Y252994D01*
X297567Y252353D01*
X297733Y251619D01*
X297567Y250886D01*
X297150Y250336D01*
X296400Y250061D01*
X294400D01*
G01X300483Y252353D02*
X300983Y252903D01*
X301567Y253178D01*
X302233Y253269D01*
X303067Y253086D01*
X303650Y252628D01*
X303817Y252078D01*
X303733Y251528D01*
X303400Y251069D01*
X301733Y250153D01*
X300983Y249511D01*
X300483Y248594D01*
X300317Y247769D01*
X303817D01*
G01X378962Y289380D02*
X379379Y288830D01*
X379879Y288464D01*
X380462Y288280D01*
X381129Y288464D01*
X381629Y288830D01*
X382129Y289380D01*
X382295Y290114D01*
Y293780D01*
G01X386629Y288280D02*
Y293780D01*
X385629Y292680D01*
G01Y288280D02*
X387629D01*
G54D15*
G01X15217Y243924D02*
X24638D01*
G01X29208Y81512D02*
X38629D01*
G01X33996Y86802D02*
Y76414D01*
G01X20005Y249215D02*
Y238827D01*
G01X223671Y352330D02*
X233092D01*
G01X222919Y373118D02*
X232341D01*
G01X227708Y378408D02*
Y368021D01*
G54D16*
G01X88558Y320571D02*
Y320532D01*
G54D17*
G01X460730Y419727D02*
X19807Y419728D01*
G03X4059Y403980I0J-15748D01*
G01Y10279D01*
G03X19807Y-5470I15748J0D01*
G01X33750D01*
G03X49498Y10279I0J15748D01*
G01Y14216D01*
G02X65246Y29964I15748J0D01*
G01X227756D01*
G02X243504Y14216I0J-15748D01*
G01Y10279D01*
G03X259252Y-5470I15748J0D01*
G01X460752Y-5463D01*
G03X476500Y10279I0J15748D01*
G01Y403980D01*
G03X460730Y419727I-15770J-22D01*
G01X476500Y403980D02*
Y10279D01*
G02X460752Y-5463I-15748J6D01*
G01X259252Y-5470D01*
G02X243504Y10279I0J15748D01*
G01Y14216D01*
G03X227756Y29964I-15748J0D01*
G01X65246D01*
G03X49498Y14216I0J-15748D01*
G01Y10279D01*
G02X33750Y-5470I-15748J0D01*
G01X19807D01*
G02X4059Y10279I0J15748D01*
G01Y403980D01*
G02X19807Y419728I15748J0D01*
G01X460730Y419727D01*
G02X476500Y403980I0J-15770D01*
G01X38610Y33353D02*
Y308944D01*
G01X363374Y33353D02*
X38610D01*
G01Y308944D02*
X363374D01*
G01X158610Y276464D02*
Y66621D01*
G01D02*
X364516D01*
G01Y276464D02*
X158610D01*
G01X363374Y308944D02*
Y33353D01*
G01X364516Y66621D02*
G03X414516Y116621I0J50000D01*
G01Y226464D02*
G03X364516Y276464I-49988J12D01*
G01X414516Y107920D02*
Y135479D01*
G01X452035Y107920D02*
X414516D01*
G01Y135479D02*
X452035D01*
G01X414516Y116621D02*
Y226464D01*
G01Y207645D02*
Y235204D01*
G01X452035Y207645D02*
X414516D01*
G01Y235204D02*
X452035D01*
G01Y135479D02*
Y107920D01*
G01Y235204D02*
Y207645D01*
M02*
