G04 ================== begin FILE IDENTIFICATION RECORD ==================*
G04 Layout Name:  TESTBED_IN4007.brd*
G04 Film Name:    SOLDBOT*
G04 File Format:  Gerber RS274X*
G04 File Origin:  Cadence Allegro 16.6-2015-S108*
G04 Origin Date:  Mon Jan 04 13:55:09 2021*
G04 *
G04 Layer:  VIA CLASS/SOLDERMASK_BOTTOM*
G04 Layer:  PIN/SOLDERMASK_BOTTOM*
G04 Layer:  PACKAGE GEOMETRY/SOLDERMASK_BOTTOM*
G04 Layer:  BOARD GEOMETRY/SOLDERMASK_BOTTOM*
G04 Layer:  BOARD GEOMETRY/OUTLINE*
G04 *
G04 Offset:    (0.000 0.000)*
G04 Mirror:    No*
G04 Mode:      Positive*
G04 Rotation:  0*
G04 FullContactRelief:  No*
G04 UndefLineWidth:     6.000*
G04 ================== end FILE IDENTIFICATION RECORD ====================*
%FSLAX55Y55*MOIN*%
%IR0*IPPOS*OFA0.00000B0.00000*MIA0B0*SFA1.00000B1.00000*%
%ADD20R,.088976X.098819*%
%ADD11C,.110236*%
%ADD10C,.086614*%
%ADD21C,.07874*%
%ADD17R,.057091X.040941*%
%ADD13R,.04213X.051969*%
%ADD23R,.051969X.04213*%
%ADD14R,.040941X.057091*%
%ADD12C,.098425*%
%ADD16C,.076772*%
%ADD19C,.066929*%
%ADD15R,.076772X.076772*%
%ADD22R,.07874X.07874*%
%ADD18R,.066929X.066929*%
%ADD24C,.006*%
G75*
%LPD*%
G75*
G54D10*
X15472Y66174D03*
Y81174D03*
G54D11*
X19280Y263619D03*
Y302989D03*
G54D20*
X165988Y246641D03*
X192012D03*
G54D12*
X18948Y351237D03*
Y370922D03*
G54D21*
X256613Y352567D03*
G54D22*
Y372252D03*
G54D13*
X36538Y73411D03*
Y81413D03*
X36442Y89320D03*
X36441Y97212D03*
X43546Y73411D03*
Y81413D03*
X43450Y89320D03*
X43449Y97212D03*
X223730Y88563D03*
X230738D03*
G54D14*
X73987Y389469D03*
X66980D03*
X223730Y96488D03*
X230738D03*
G54D23*
X294958Y73905D03*
Y80913D03*
G54D24*
G01X460730Y419727D02*
X19807Y419728D01*
G03X4059Y403980I0J-15748D01*
G01Y10279D01*
G03X19807Y-5470I15748J0D01*
G01X33750D01*
G03X49498Y10279I0J15748D01*
G01Y14216D01*
G02X65246Y29964I15748J0D01*
G01X227756D01*
G02X243504Y14216I0J-15748D01*
G01Y10279D01*
G03X259252Y-5470I15748J0D01*
G01X460752Y-5463D01*
G03X476500Y10279I0J15748D01*
G01Y403980D01*
G03X460730Y419727I-15770J-22D01*
G01X476500Y403980D02*
Y10279D01*
G02X460752Y-5463I-15748J6D01*
G01X259252Y-5470D01*
G02X243504Y10279I0J15748D01*
G01Y14216D01*
G03X227756Y29964I-15748J0D01*
G01X65246D01*
G03X49498Y14216I0J-15748D01*
G01Y10279D01*
G02X33750Y-5470I-15748J0D01*
G01X19807D01*
G02X4059Y10279I0J15748D01*
G01Y403980D01*
G02X19807Y419728I15748J0D01*
G01X460730Y419727D01*
G02X476500Y403980I0J-15770D01*
G54D15*
X89582Y329469D03*
G54D16*
X99582D03*
Y389469D03*
X89582D03*
X119582Y329469D03*
X109582D03*
X119582Y389469D03*
X109582D03*
X139582Y329469D03*
X129582D03*
X139582Y389469D03*
X129582D03*
X159582Y329469D03*
X149582D03*
X159582Y389469D03*
X149582D03*
X179582Y329469D03*
X169582D03*
X179582Y389469D03*
X169582D03*
X199582Y329469D03*
X189582D03*
X199582Y389469D03*
X189582D03*
G54D17*
X99582Y340405D03*
Y347413D03*
X109592Y310112D03*
Y317120D03*
X179582Y375886D03*
Y368878D03*
X277710Y73905D03*
Y80913D03*
X271514Y345132D03*
Y352140D03*
X271344Y369148D03*
Y362140D03*
X286592Y73905D03*
X303728D03*
X286592Y80913D03*
X303728D03*
G54D18*
X163728Y46148D03*
G54D19*
X173728D03*
X163728Y56148D03*
X173728D03*
X163728Y286148D03*
X173728Y296148D03*
Y286148D03*
X163728Y296148D03*
X183728Y46148D03*
X193728D03*
X183728Y56148D03*
X193728D03*
Y296148D03*
Y286148D03*
X183728Y296148D03*
Y286148D03*
X203728Y46148D03*
X213728D03*
X203728Y56148D03*
X213728D03*
Y296148D03*
Y286148D03*
X203728Y296148D03*
Y286148D03*
X223728Y46148D03*
X233728D03*
X223728Y56148D03*
X233728D03*
Y296148D03*
X223728D03*
X233728Y286148D03*
X223728D03*
X243728Y46148D03*
X253728D03*
X243728Y56148D03*
X253728D03*
Y296148D03*
Y286148D03*
X243728Y296148D03*
Y286148D03*
X283728Y56148D03*
Y46148D03*
X273728Y56148D03*
Y46148D03*
X263728D03*
Y56148D03*
X273728Y286148D03*
Y296148D03*
X283728Y286148D03*
Y296148D03*
X263728D03*
Y286148D03*
X303728Y56148D03*
Y46148D03*
X293728Y56148D03*
Y46148D03*
X303728Y286148D03*
Y296148D03*
X293728Y286148D03*
Y296148D03*
X285654Y334624D03*
Y354624D03*
Y344624D03*
Y374624D03*
Y364624D03*
Y384624D03*
X323728Y46148D03*
Y56148D03*
X313728D03*
Y46148D03*
X323728Y296148D03*
Y286148D03*
X313728D03*
Y296148D03*
X343728Y46148D03*
Y56148D03*
X333728Y46148D03*
Y56148D03*
Y296148D03*
Y286148D03*
X343728Y296148D03*
Y286148D03*
M02*
