M48
INCH,LZ
T01C.008
T02C.035433
T03C.03937
T04C.040157
T05C.04724
T06C.055118
T07C.062992
T08C.137795
T09C.177165
;LEADER: 12 
;HEADER: 
;CODE  : ASCII 
;FILE  : TESTBED_IN4007-1-2.drl for board C:/Users/Administrator/Desktop/TESTBED_IN4007/pcb/0104/#Taaaaaz02668.tmp ... layers TOP and BOTTOM
;T01 Holesize 1. = 8.000000 Tolerance = +0.000000/-0.000000 PLATED MILS Quantity = 472
;T02 Holesize 2. = 35.433000 Tolerance = +0.000000/-0.000000 PLATED MILS Quantity = 2
;T03 Holesize 3. = 39.370000 Tolerance = +0.000000/-0.000000 PLATED MILS Quantity = 78
;T04 Holesize 4. = 40.157000 Tolerance = +0.000000/-0.000000 PLATED MILS Quantity = 6
;T05 Holesize 5. = 47.240000 Tolerance = +0.000000/-0.000000 PLATED MILS Quantity = 24
;T06 Holesize 6. = 55.118000 Tolerance = +0.000000/-0.000000 PLATED MILS Quantity = 2
;T07 Holesize 7. = 62.992000 Tolerance = +0.000000/-0.000000 PLATED MILS Quantity = 2
;T08 Holesize 8. = 137.795000 Tolerance = +0.000000/-0.000000 NON_PLATED MILS Quantity = 6
;T09 Holesize 9. = 177.165000 Tolerance = +0.000000/-0.000000 NON_PLATED MILS Quantity = 1
%
G90
T01
X0000291073Y0000006795
X0000291073Y0000021795
X0000306073Y0000006795
X0000306073Y0000021795
X0000321073Y0000006795
X0000321073Y0000021795
X0000381073Y0000006795
X0000381073Y0000021795
X0000396073Y0000006795
X0000396073Y0000021795
X0000411073Y0000006795
X0000411073Y0000021795
X0000426073Y0000006795
X0000426073Y0000021795
X0000441073Y0000006795
X0000441073Y0000021795
X0000456073Y0000006795
X0000456073Y0000021795
X0000456073Y0000051795
X0000456073Y0000036795
X0000441073Y0000051795
X0000441073Y0000036795
X0000426073Y0000051795
X0000426073Y0000036795
X0000411073Y0000051795
X0000411073Y0000036795
X0000396073Y0000051795
X0000396073Y0000036795
X0000381073Y0000051795
X0000381073Y0000036795
X0000126073Y0000051795
X0000111073Y0000051795
X0000096073Y0000051795
X0000081073Y0000051795
X0000066073Y0000051795
X0000051073Y0000051795
X0000036073Y0000051795
X0000036073Y0000066795
X0000048556Y0000074303
X0000048556Y000007824
X0000048556Y0000082177
X0000048556Y0000086114
X0000051073Y0000066795
X0000066073Y0000066795
X0000081073Y0000066795
X0000096073Y0000066795
X0000111073Y0000066795
X0000141073Y0000066795
X0000227688Y0000067706
X0000230738Y0000084257
X0000234908Y0000088563
X0000237574Y000007523
X0000261073Y0000066795
X0000276073Y0000066795
X0000286592Y0000069434
X0000291073Y0000066795
X0000294958Y0000069434
X0000306073Y0000066795
X0000321073Y0000066795
X0000321073Y0000081795
X0000336073Y0000066795
X0000336073Y0000081795
X0000351073Y0000066795
X0000351073Y0000081795
X0000366073Y0000066795
X0000366073Y0000081795
X0000381073Y0000066795
X0000381073Y0000081795
X0000396073Y0000066795
X0000396073Y0000081795
X0000411073Y0000066795
X0000411073Y0000081795
X0000426073Y0000066795
X0000426073Y0000081795
X0000441073Y0000066795
X0000441073Y0000081795
X0000456073Y0000066795
X0000456073Y0000081795
X0000456073Y0000111795
X0000456073Y0000096795
X0000441073Y0000111795
X0000441073Y0000096795
X0000426073Y0000111795
X0000426073Y0000096795
X0000411073Y0000111795
X0000411073Y0000096795
X0000396073Y0000111795
X0000396073Y0000096795
X0000381073Y0000111795
X0000381073Y0000096795
X0000366073Y0000111795
X0000366073Y0000096795
X0000351073Y0000096795
X0000336073Y0000111795
X0000321073Y0000111795
X0000306073Y0000111795
X0000291073Y0000111795
X0000276073Y0000111795
X0000261073Y0000111795
X0000246073Y0000111795
X0000231073Y0000111795
X0000201073Y0000111795
X0000186073Y0000111795
X0000171073Y0000111795
X0000156073Y0000111795
X0000141073Y0000111795
X0000126073Y0000111795
X0000096073Y0000111795
X0000048556Y0000097925
X0000048556Y0000093988
X0000048556Y0000090051
X0000008528Y0000119228
X0000008528Y0000116039
X0000008528Y0000101039
X0000008528Y0000123165
X0000008528Y0000127102
X0000008528Y0000131039
X0000008528Y0000146039
X0000096073Y0000126795
X0000096073Y0000141795
X0000126073Y0000126795
X0000126073Y0000141795
X0000141073Y0000126795
X0000141073Y0000141795
X0000156073Y0000126795
X0000156073Y0000141795
X0000171073Y0000126795
X0000171073Y0000141795
X0000186073Y0000126795
X0000186073Y0000141795
X0000201073Y0000126795
X0000201073Y0000141795
X0000231073Y0000126795
X0000231073Y0000141795
X0000246073Y0000126795
X0000246073Y0000141795
X0000261073Y0000126795
X0000261073Y0000141795
X0000276073Y0000126795
X0000276073Y0000141795
X0000291073Y0000126795
X0000291073Y0000141795
X0000306073Y0000126795
X0000306073Y0000141795
X0000321073Y0000126795
X0000321073Y0000141795
X0000336073Y0000126795
X0000336073Y0000141795
X0000351073Y0000126795
X0000351073Y0000141795
X0000366073Y0000126795
X0000366073Y0000141795
X0000381073Y0000126795
X0000381073Y0000141795
X0000396073Y0000126795
X0000396073Y0000141795
X0000411073Y0000126795
X0000411073Y0000141795
X0000426073Y0000126795
X0000426073Y0000141795
X0000441073Y0000126795
X0000441073Y0000141795
X0000456073Y0000126795
X0000456073Y0000141795
X0000456073Y0000171795
X0000456073Y0000156795
X0000441073Y0000171795
X0000441073Y0000156795
X0000426073Y0000171795
X0000426073Y0000156795
X0000411073Y0000171795
X0000411073Y0000156795
X0000396073Y0000171795
X0000396073Y0000156795
X0000381073Y0000171795
X0000381073Y0000156795
X0000366073Y0000171795
X0000366073Y0000156795
X0000351073Y0000171795
X0000351073Y0000156795
X0000336073Y0000171795
X0000336073Y0000156795
X0000321073Y0000171795
X0000321073Y0000156795
X0000306073Y0000171795
X0000306073Y0000156795
X0000291073Y0000171795
X0000291073Y0000156795
X0000276073Y0000171795
X0000276073Y0000156795
X0000261073Y0000171795
X0000261073Y0000156795
X0000246073Y0000171795
X0000246073Y0000156795
X0000231073Y0000171795
X0000231073Y0000156795
X0000201073Y0000171795
X0000201073Y0000156795
X0000186073Y0000171795
X0000186073Y0000156795
X0000171073Y0000171795
X0000171073Y0000156795
X0000156073Y0000171795
X0000156073Y0000156795
X0000141073Y0000171795
X0000141073Y0000156795
X0000126073Y0000171795
X0000126073Y0000156795
X0000096073Y0000171795
X0000096073Y0000156795
X0000008528Y0000176039
X0000008528Y0000161039
X0000008528Y0000191039
X0000008528Y0000206039
X0000096073Y0000186795
X0000096073Y0000201795
X0000126073Y0000186795
X0000126073Y0000201795
X0000141073Y0000186795
X0000141073Y0000201795
X0000156073Y0000186795
X0000156073Y0000201795
X0000171073Y0000186795
X0000171073Y0000201795
X0000186073Y0000186795
X0000186073Y0000201795
X0000201073Y0000186795
X0000201073Y0000201795
X0000231073Y0000186795
X0000231073Y0000201795
X0000246073Y0000186795
X0000246073Y0000201795
X0000261073Y0000186795
X0000261073Y0000201795
X0000276073Y0000186795
X0000276073Y0000201795
X0000291073Y0000186795
X0000291073Y0000201795
X0000306073Y0000186795
X0000306073Y0000201795
X0000321073Y0000186795
X0000321073Y0000201795
X0000336073Y0000186795
X0000336073Y0000201795
X0000351073Y0000186795
X0000351073Y0000201795
X0000366073Y0000186795
X0000366073Y0000201795
X0000381073Y0000186795
X0000381073Y0000201795
X0000396073Y0000186795
X0000396073Y0000201795
X0000411073Y0000186795
X0000411073Y0000201795
X0000426073Y0000186795
X0000426073Y0000201795
X0000441073Y0000186795
X0000441073Y0000201795
X0000456073Y0000186795
X0000456073Y0000201795
X0000456073Y0000231795
X0000456073Y0000216795
X0000441073Y0000231795
X0000441073Y0000216795
X0000426073Y0000231795
X0000426073Y0000216795
X0000411073Y0000231795
X0000411073Y0000216795
X0000396073Y0000231795
X0000396073Y0000216795
X0000381073Y0000231795
X0000381073Y0000216795
X0000366073Y0000231795
X0000366073Y0000216795
X0000351073Y0000231795
X0000351073Y0000216795
X0000336073Y0000231795
X0000336073Y0000216795
X0000321073Y0000231795
X0000321073Y0000216795
X0000306073Y0000216795
X0000291073Y0000216795
X0000276073Y0000216795
X0000261073Y0000216795
X0000246337Y0000239805
X0000246073Y0000216795
X0000231073Y0000216795
X0000201073Y0000231795
X0000201073Y0000216795
X0000186073Y0000231795
X0000186073Y0000216795
X0000171073Y0000231795
X0000171073Y0000216795
X0000156073Y0000231795
X0000156073Y0000216795
X0000141073Y0000231795
X0000141073Y0000216795
X0000126073Y0000231795
X0000126073Y0000216795
X0000096073Y0000231795
X0000096073Y0000216795
X0000008528Y0000236039
X0000008528Y0000221039
X0000096073Y0000246795
X0000096073Y0000261795
X0000126073Y0000246795
X0000126073Y0000261795
X0000141073Y0000246795
X0000141073Y0000261795
X0000156073Y0000246795
X0000156073Y0000261795
X0000171073Y0000261795
X0000186073Y0000261795
X0000201073Y0000246795
X0000201073Y0000261795
X0000216073Y0000246795
X0000216073Y0000261795
X0000231073Y0000246795
X0000231073Y0000261795
X0000242301Y0000245504
X0000246073Y0000261795
X0000246533Y0000251008
X0000321073Y0000246795
X0000321073Y0000261795
X0000336073Y0000246795
X0000336073Y0000261795
X0000351073Y0000246795
X0000351073Y0000261795
X0000366073Y0000246795
X0000366073Y0000261795
X0000381073Y0000246795
X0000381073Y0000261795
X0000396073Y0000246795
X0000396073Y0000261795
X0000411073Y0000246795
X0000411073Y0000261795
X0000426073Y0000246795
X0000426073Y0000261795
X0000441073Y0000246795
X0000441073Y0000261795
X0000456073Y0000246795
X0000456073Y0000261795
X0000456073Y0000291795
X0000456073Y0000276795
X0000441073Y0000291795
X0000441073Y0000276795
X0000426073Y0000291795
X0000426073Y0000276795
X0000411073Y0000291795
X0000411073Y0000276795
X0000396073Y0000291795
X0000396073Y0000276795
X0000381073Y0000291795
X0000381073Y0000276795
X0000193827Y0000278357
X0000141073Y0000291795
X0000141073Y0000276795
X0000126073Y0000291795
X0000126073Y0000276795
X0000096073Y0000291795
X0000096073Y0000276795
X0000096073Y0000306795
X0000126073Y0000306795
X0000141073Y0000306795
X0000193827Y0000304255
X0000306073Y0000321795
X0000321073Y0000321795
X0000336073Y0000321795
X0000351073Y0000321795
X0000366073Y0000321795
X0000381073Y0000306795
X0000381073Y0000321795
X0000396073Y0000306795
X0000396073Y0000321795
X0000411073Y0000306795
X0000411073Y0000321795
X0000426073Y0000306795
X0000426073Y0000321795
X0000441073Y0000306795
X0000441073Y0000321795
X0000456073Y0000306795
X0000456073Y0000321795
X0000456073Y0000351795
X0000456073Y0000336795
X0000441073Y0000351795
X0000441073Y0000336795
X0000426073Y0000351795
X0000426073Y0000336795
X0000411073Y0000351795
X0000411073Y0000336795
X0000396073Y0000351795
X0000396073Y0000336795
X0000381073Y0000351795
X0000381073Y0000336795
X0000366073Y0000336795
X0000351073Y0000351795
X0000336073Y0000336795
X0000321073Y0000351795
X0000321073Y0000336795
X0000306073Y0000351795
X0000306073Y0000336795
X0000289313Y0000359633
X0000277009Y0000348629
X0000218389Y000035924
X0000203389Y000035924
X0000203389Y000034424
X0000188389Y000035924
X0000188389Y000034424
X0000173389Y000035924
X0000173389Y000034424
X0000173389Y000037424
X0000188389Y000037424
X0000203389Y000037424
X0000218389Y000037424
X0000277644Y00003704
X0000306073Y0000366795
X0000306073Y0000381795
X0000321073Y0000381795
X0000336073Y0000366795
X0000351073Y0000381795
X0000366073Y0000366795
X0000366073Y0000381795
X0000381073Y0000366795
X0000381073Y0000381795
X0000396073Y0000366795
X0000396073Y0000381795
X0000411073Y0000366795
X0000411073Y0000381795
X0000426073Y0000366795
X0000426073Y0000381795
X0000441073Y0000366795
X0000441073Y0000381795
X0000456073Y0000366795
X0000456073Y0000381795
X0000456073Y0000411795
X0000456073Y0000396795
X0000441073Y0000411795
X0000441073Y0000396795
X0000426073Y0000411795
X0000426073Y0000396795
X0000411073Y0000411795
X0000411073Y0000396795
X0000396073Y0000411795
X0000396073Y0000396795
X0000381073Y0000411795
X0000381073Y0000396795
X0000366073Y0000411795
X0000366073Y0000396795
X0000351073Y0000411795
X0000351073Y0000396795
X0000336073Y0000411795
X0000336073Y0000396795
X0000321073Y0000411795
X0000321073Y0000396795
X0000306073Y0000411795
X0000306073Y0000396795
X0000291073Y0000411795
X0000231073Y0000411795
X0000216073Y0000411795
X0000201073Y0000411795
X0000186073Y0000411795
X0000171073Y0000411795
X0000156073Y0000411795
X0000141073Y0000411795
X0000126073Y0000411795
X0000111073Y0000411795
X0000096073Y0000411795
X0000081073Y0000411795
X0000066073Y0000411795
X0000051073Y0000411795
X0000036073Y0000411795
X0000021073Y0000411795
T02
X0000256613Y0000352567
X0000256613Y0000372252
T03
X0000163728Y0000046148
X0000173728Y0000046148
X0000183728Y0000046148
X0000193728Y0000046148
X0000203728Y0000046148
X0000213728Y0000046148
X0000223728Y0000046148
X0000233728Y0000046148
X0000243728Y0000046148
X0000253728Y0000046148
X0000263728Y0000046148
X0000273728Y0000046148
X0000283728Y0000046148
X0000293728Y0000046148
X0000303728Y0000046148
X0000313728Y0000046148
X0000323728Y0000046148
X0000333728Y0000046148
X0000343728Y0000046148
X0000343728Y0000056148
X0000333728Y0000056148
X0000323728Y0000056148
X0000313728Y0000056148
X0000303728Y0000056148
X0000293728Y0000056148
X0000283728Y0000056148
X0000273728Y0000056148
X0000263728Y0000056148
X0000253728Y0000056148
X0000243728Y0000056148
X0000233728Y0000056148
X0000223728Y0000056148
X0000213728Y0000056148
X0000203728Y0000056148
X0000193728Y0000056148
X0000183728Y0000056148
X0000173728Y0000056148
X0000163728Y0000056148
X000001928Y0000263619
X0000163728Y0000286148
X0000173728Y0000286148
X0000183728Y0000286148
X0000193728Y0000286148
X0000203728Y0000286148
X0000213728Y0000286148
X0000223728Y0000286148
X0000233728Y0000286148
X0000243728Y0000286148
X0000253728Y0000286148
X0000263728Y0000286148
X0000273728Y0000286148
X0000283728Y0000286148
X0000293728Y0000286148
X0000303728Y0000286148
X0000313728Y0000286148
X0000323728Y0000286148
X0000333728Y0000286148
X0000343728Y0000286148
X0000343728Y0000296148
X0000333728Y0000296148
X0000323728Y0000296148
X0000313728Y0000296148
X0000303728Y0000296148
X0000293728Y0000296148
X0000283728Y0000296148
X0000273728Y0000296148
X0000263728Y0000296148
X0000253728Y0000296148
X0000243728Y0000296148
X0000233728Y0000296148
X0000223728Y0000296148
X0000213728Y0000296148
X0000203728Y0000296148
X0000193728Y0000296148
X0000183728Y0000296148
X0000173728Y0000296148
X0000163728Y0000296148
X000001928Y0000302989
T04
X0000285654Y0000334624
X0000285654Y0000344624
X0000285654Y0000354624
X0000285654Y0000364624
X0000285654Y0000374624
X0000285654Y0000384624
T05
X0000089582Y0000329469
X0000099582Y0000329469
X0000109582Y0000329469
X0000119582Y0000329469
X0000129582Y0000329469
X0000139582Y0000329469
X0000149582Y0000329469
X0000159582Y0000329469
X0000169582Y0000329469
X0000179582Y0000329469
X0000189582Y0000329469
X0000199582Y0000329469
X0000199582Y0000389469
X0000189582Y0000389469
X0000179582Y0000389469
X0000169582Y0000389469
X0000159582Y0000389469
X0000149582Y0000389469
X0000139582Y0000389469
X0000129582Y0000389469
X0000119582Y0000389469
X0000109582Y0000389469
X0000099582Y0000389469
X0000089582Y0000389469
T06
X0000015472Y0000066174
X0000015472Y0000081174
T07
X0000018948Y0000351237
X0000018948Y0000370922
T08
X0000032473Y0000010279
X0000261597Y0000010279
X0000353728Y0000010279
X0000274987Y0000246499
X0000274976Y0000403814
X000024371Y0000403979
T09
X0000229712Y0000321302
M30
