G04*
G04 #@! TF.GenerationSoftware,Altium Limited,Altium Designer,21.0.9 (235)*
G04*
G04 Layer_Physical_Order=1*
G04 Layer_Color=255*
%FSLAX25Y25*%
%MOIN*%
G70*
G04*
G04 #@! TF.SameCoordinates,A9EE82D5-5453-4621-884F-38B111DD7A68*
G04*
G04*
G04 #@! TF.FilePolarity,Positive*
G04*
G01*
G75*
G04:AMPARAMS|DCode=17|XSize=55mil|YSize=85mil|CornerRadius=0mil|HoleSize=0mil|Usage=FLASHONLY|Rotation=0.000|XOffset=0mil|YOffset=0mil|HoleType=Round|Shape=Octagon|*
%AMOCTAGOND17*
4,1,8,-0.01375,0.04250,0.01375,0.04250,0.02750,0.02875,0.02750,-0.02875,0.01375,-0.04250,-0.01375,-0.04250,-0.02750,-0.02875,-0.02750,0.02875,-0.01375,0.04250,0.0*
%
%ADD17OCTAGOND17*%

%ADD18R,0.04016X0.05000*%
%ADD19R,0.03701X0.05315*%
%ADD20C,0.23622*%
%ADD37C,0.02000*%
%ADD38C,0.00800*%
%ADD39C,0.13780*%
%ADD40C,0.17717*%
%ADD41C,0.06299*%
%ADD42C,0.10630*%
%ADD43C,0.08268*%
%ADD44R,0.06299X0.06299*%
%ADD45C,0.09449*%
%ADD46R,0.07087X0.07087*%
%ADD47C,0.07087*%
%ADD48R,0.06890X0.06890*%
%ADD49C,0.06890*%
%ADD50C,0.01600*%
G36*
X830478Y688697D02*
X831678Y688645D01*
X832869Y688488D01*
X834042Y688228D01*
X835188Y687866D01*
X836297Y687407D01*
X837363Y686852D01*
X838376Y686207D01*
X839329Y685475D01*
X840215Y684664D01*
X841026Y683778D01*
X841757Y682825D01*
X842403Y681812D01*
X842958Y680747D01*
X843417Y679637D01*
X843779Y678491D01*
X844038Y677318D01*
X844195Y676127D01*
X844248Y674948D01*
Y281249D01*
X844195Y280051D01*
X844038Y278861D01*
X843778Y277691D01*
X843417Y276547D01*
X842957Y275439D01*
X842403Y274376D01*
X841758Y273364D01*
X841028Y272413D01*
X840217Y271529D01*
X839332Y270719D01*
X838381Y269989D01*
X837369Y269345D01*
X836305Y268792D01*
X835196Y268334D01*
X834052Y267973D01*
X832881Y267714D01*
X831692Y267558D01*
X830500Y267506D01*
X629000Y267500D01*
X627802Y267552D01*
X626613Y267709D01*
X625442Y267968D01*
X624298Y268329D01*
X623190Y268788D01*
X622126Y269342D01*
X621114Y269986D01*
X620163Y270716D01*
X619278Y271527D01*
X618468Y272411D01*
X617738Y273362D01*
X617094Y274374D01*
X616540Y275438D01*
X616081Y276546D01*
X615720Y277690D01*
X615460Y278861D01*
X615304Y280050D01*
X615252Y281248D01*
Y285186D01*
X615184Y286732D01*
X614982Y288267D01*
X614647Y289779D01*
X614181Y291256D01*
X613589Y292686D01*
X612874Y294060D01*
X612042Y295365D01*
X611099Y296594D01*
X610053Y297735D01*
X608912Y298781D01*
X607683Y299724D01*
X606378Y300556D01*
X605004Y301271D01*
X603574Y301863D01*
X602097Y302329D01*
X600585Y302664D01*
X599050Y302866D01*
X597504Y302934D01*
X434994D01*
X433447Y302866D01*
X431912Y302664D01*
X430400Y302329D01*
X428924Y301863D01*
X427493Y301271D01*
X426120Y300556D01*
X424814Y299724D01*
X423586Y298781D01*
X422444Y297735D01*
X421398Y296594D01*
X420455Y295365D01*
X419623Y294059D01*
X418909Y292686D01*
X418316Y291255D01*
X417850Y289779D01*
X417515Y288267D01*
X417313Y286732D01*
X417246Y285186D01*
Y281248D01*
X417193Y280050D01*
X417037Y278861D01*
X416777Y277690D01*
X416417Y276546D01*
X415958Y275438D01*
X415404Y274374D01*
X414759Y273362D01*
X414029Y272411D01*
X413219Y271527D01*
X412335Y270716D01*
X411383Y269986D01*
X410372Y269342D01*
X409308Y268788D01*
X408200Y268329D01*
X407056Y267968D01*
X405885Y267709D01*
X404696Y267552D01*
X403498Y267500D01*
X389555D01*
X388357Y267552D01*
X387168Y267709D01*
X385997Y267969D01*
X384853Y268329D01*
X383745Y268788D01*
X382681Y269342D01*
X381669Y269986D01*
X380718Y270717D01*
X379833Y271527D01*
X379023Y272411D01*
X378293Y273363D01*
X377649Y274374D01*
X377095Y275438D01*
X376636Y276546D01*
X376275Y277690D01*
X376015Y278861D01*
X375859Y280050D01*
X375807Y281248D01*
Y674949D01*
X375859Y676147D01*
X376016Y677337D01*
X376275Y678508D01*
X376636Y679651D01*
X377095Y680759D01*
X377649Y681823D01*
X378293Y682835D01*
X379023Y683786D01*
X379834Y684671D01*
X380718Y685481D01*
X381669Y686211D01*
X382681Y686855D01*
X383745Y687409D01*
X384853Y687868D01*
X385997Y688229D01*
X387168Y688488D01*
X388357Y688645D01*
X389555Y688697D01*
X830478Y688697D01*
D02*
G37*
%LPC*%
G36*
X613607Y683019D02*
X612021Y682863D01*
X610497Y682400D01*
X609091Y681649D01*
X607859Y680638D01*
X606848Y679406D01*
X606097Y678001D01*
X605635Y676476D01*
X605478Y674890D01*
X605635Y673304D01*
X606097Y671779D01*
X606848Y670374D01*
X607859Y669142D01*
X609091Y668131D01*
X610497Y667380D01*
X612021Y666917D01*
X613607Y666761D01*
X615193Y666917D01*
X616718Y667380D01*
X618123Y668131D01*
X619355Y669142D01*
X620366Y670374D01*
X621117Y671779D01*
X621580Y673304D01*
X621736Y674890D01*
X621580Y676476D01*
X621117Y678001D01*
X620366Y679406D01*
X619355Y680638D01*
X618123Y681649D01*
X616718Y682400D01*
X615193Y682863D01*
X613607Y683019D01*
D02*
G37*
G36*
X644873Y682853D02*
X643287Y682697D01*
X641762Y682234D01*
X640357Y681483D01*
X639125Y680472D01*
X638114Y679241D01*
X637363Y677835D01*
X636900Y676310D01*
X636744Y674724D01*
X636900Y673138D01*
X637363Y671614D01*
X638114Y670208D01*
X639125Y668976D01*
X640357Y667965D01*
X641762Y667214D01*
X643287Y666752D01*
X644873Y666595D01*
X646459Y666752D01*
X647984Y667214D01*
X649389Y667965D01*
X650621Y668976D01*
X651632Y670208D01*
X652383Y671614D01*
X652846Y673138D01*
X653002Y674724D01*
X652846Y676310D01*
X652383Y677835D01*
X651632Y679241D01*
X650621Y680472D01*
X649389Y681483D01*
X647984Y682234D01*
X646459Y682697D01*
X644873Y682853D01*
D02*
G37*
G36*
X489478Y664359D02*
X488448Y664224D01*
X487489Y663826D01*
X486665Y663194D01*
X486032Y662370D01*
X485635Y661410D01*
X485499Y660380D01*
X485635Y659350D01*
X486032Y658390D01*
X486665Y657566D01*
X487489Y656934D01*
X488448Y656536D01*
X489478Y656401D01*
X490508Y656536D01*
X491468Y656934D01*
X492292Y657566D01*
X492925Y658390D01*
X493322Y659350D01*
X493458Y660380D01*
X493322Y661410D01*
X492925Y662370D01*
X492292Y663194D01*
X491468Y663826D01*
X490508Y664224D01*
X489478Y664359D01*
D02*
G37*
G36*
X569478Y665065D02*
X568266Y664905D01*
X567136Y664437D01*
X566165Y663693D01*
X565421Y662722D01*
X564953Y661592D01*
X564793Y660380D01*
X564953Y659167D01*
X565421Y658037D01*
X566165Y657067D01*
X567136Y656322D01*
X568266Y655854D01*
X569478Y655695D01*
X570691Y655854D01*
X571821Y656322D01*
X572791Y657067D01*
X573536Y658037D01*
X574004Y659167D01*
X574164Y660380D01*
X574004Y661592D01*
X573536Y662722D01*
X572791Y663693D01*
X571821Y664437D01*
X570691Y664905D01*
X569478Y665065D01*
D02*
G37*
G36*
X559478D02*
X558266Y664905D01*
X557136Y664437D01*
X556166Y663693D01*
X555421Y662722D01*
X554953Y661592D01*
X554793Y660380D01*
X554953Y659167D01*
X555421Y658037D01*
X556166Y657067D01*
X557136Y656322D01*
X558266Y655854D01*
X559478Y655695D01*
X560691Y655854D01*
X561821Y656322D01*
X562791Y657067D01*
X563536Y658037D01*
X564004Y659167D01*
X564164Y660380D01*
X564004Y661592D01*
X563536Y662722D01*
X562791Y663693D01*
X561821Y664437D01*
X560691Y664905D01*
X559478Y665065D01*
D02*
G37*
G36*
X549478D02*
X548266Y664905D01*
X547136Y664437D01*
X546166Y663693D01*
X545421Y662722D01*
X544953Y661592D01*
X544793Y660380D01*
X544953Y659167D01*
X545421Y658037D01*
X546166Y657067D01*
X547136Y656322D01*
X548266Y655854D01*
X549478Y655695D01*
X550691Y655854D01*
X551821Y656322D01*
X552791Y657067D01*
X553536Y658037D01*
X554004Y659167D01*
X554164Y660380D01*
X554004Y661592D01*
X553536Y662722D01*
X552791Y663693D01*
X551821Y664437D01*
X550691Y664905D01*
X549478Y665065D01*
D02*
G37*
G36*
X539478D02*
X538266Y664905D01*
X537136Y664437D01*
X536166Y663693D01*
X535421Y662722D01*
X534953Y661592D01*
X534793Y660380D01*
X534953Y659167D01*
X535421Y658037D01*
X536166Y657067D01*
X537136Y656322D01*
X538266Y655854D01*
X539478Y655695D01*
X540691Y655854D01*
X541821Y656322D01*
X542791Y657067D01*
X543536Y658037D01*
X544004Y659167D01*
X544164Y660380D01*
X544004Y661592D01*
X543536Y662722D01*
X542791Y663693D01*
X541821Y664437D01*
X540691Y664905D01*
X539478Y665065D01*
D02*
G37*
G36*
X529478D02*
X528266Y664905D01*
X527136Y664437D01*
X526165Y663693D01*
X525421Y662722D01*
X524953Y661592D01*
X524793Y660380D01*
X524953Y659167D01*
X525421Y658037D01*
X526165Y657067D01*
X527136Y656322D01*
X528266Y655854D01*
X529478Y655695D01*
X530691Y655854D01*
X531821Y656322D01*
X532791Y657067D01*
X533536Y658037D01*
X534004Y659167D01*
X534164Y660380D01*
X534004Y661592D01*
X533536Y662722D01*
X532791Y663693D01*
X531821Y664437D01*
X530691Y664905D01*
X529478Y665065D01*
D02*
G37*
G36*
X519478D02*
X518266Y664905D01*
X517136Y664437D01*
X516165Y663693D01*
X515421Y662722D01*
X514953Y661592D01*
X514793Y660380D01*
X514953Y659167D01*
X515421Y658037D01*
X516165Y657067D01*
X517136Y656322D01*
X518266Y655854D01*
X519478Y655695D01*
X520691Y655854D01*
X521821Y656322D01*
X522791Y657067D01*
X523536Y658037D01*
X524004Y659167D01*
X524164Y660380D01*
X524004Y661592D01*
X523536Y662722D01*
X522791Y663693D01*
X521821Y664437D01*
X520691Y664905D01*
X519478Y665065D01*
D02*
G37*
G36*
X509478D02*
X508266Y664905D01*
X507136Y664437D01*
X506166Y663693D01*
X505421Y662722D01*
X504953Y661592D01*
X504793Y660380D01*
X504953Y659167D01*
X505421Y658037D01*
X506166Y657067D01*
X507136Y656322D01*
X508266Y655854D01*
X509478Y655695D01*
X510691Y655854D01*
X511821Y656322D01*
X512791Y657067D01*
X513536Y658037D01*
X514004Y659167D01*
X514164Y660380D01*
X514004Y661592D01*
X513536Y662722D01*
X512791Y663693D01*
X511821Y664437D01*
X510691Y664905D01*
X509478Y665065D01*
D02*
G37*
G36*
X499478D02*
X498266Y664905D01*
X497136Y664437D01*
X496166Y663693D01*
X495421Y662722D01*
X494953Y661592D01*
X494793Y660380D01*
X494953Y659167D01*
X495421Y658037D01*
X496166Y657067D01*
X497136Y656322D01*
X498266Y655854D01*
X499478Y655695D01*
X500691Y655854D01*
X501821Y656322D01*
X502791Y657067D01*
X503536Y658037D01*
X504004Y659167D01*
X504164Y660380D01*
X504004Y661592D01*
X503536Y662722D01*
X502791Y663693D01*
X501821Y664437D01*
X500691Y664905D01*
X499478Y665065D01*
D02*
G37*
G36*
X469478D02*
X468266Y664905D01*
X467136Y664437D01*
X466165Y663693D01*
X465421Y662722D01*
X464953Y661592D01*
X464793Y660380D01*
X464953Y659167D01*
X465421Y658037D01*
X466165Y657067D01*
X467136Y656322D01*
X468266Y655854D01*
X469478Y655695D01*
X470691Y655854D01*
X471821Y656322D01*
X472791Y657067D01*
X473536Y658037D01*
X474004Y659167D01*
X474164Y660380D01*
X474004Y661592D01*
X473536Y662722D01*
X472791Y663693D01*
X471821Y664437D01*
X470691Y664905D01*
X469478Y665065D01*
D02*
G37*
G36*
X459478D02*
X458266Y664905D01*
X457136Y664437D01*
X456166Y663693D01*
X455421Y662722D01*
X454953Y661592D01*
X454793Y660380D01*
X454953Y659167D01*
X455421Y658037D01*
X456166Y657067D01*
X457136Y656322D01*
X458266Y655854D01*
X459478Y655695D01*
X460691Y655854D01*
X461821Y656322D01*
X462791Y657067D01*
X463536Y658037D01*
X464004Y659167D01*
X464164Y660380D01*
X464004Y661592D01*
X463536Y662722D01*
X462791Y663693D01*
X461821Y664437D01*
X460691Y664905D01*
X459478Y665065D01*
D02*
G37*
G36*
X655550Y659216D02*
X654598Y659090D01*
X653710Y658723D01*
X652947Y658138D01*
X652362Y657375D01*
X651995Y656487D01*
X651869Y655535D01*
X651995Y654582D01*
X652362Y653694D01*
X652947Y652931D01*
X653710Y652347D01*
X654598Y651979D01*
X655550Y651853D01*
X656503Y651979D01*
X657391Y652347D01*
X658154Y652931D01*
X658739Y653694D01*
X659106Y654582D01*
X659232Y655535D01*
X659106Y656487D01*
X658739Y657375D01*
X658154Y658138D01*
X657391Y658723D01*
X656503Y659090D01*
X655550Y659216D01*
D02*
G37*
G36*
Y649922D02*
X654415Y649772D01*
X653357Y649334D01*
X652448Y648637D01*
X651751Y647728D01*
X651313Y646670D01*
X651163Y645535D01*
X651313Y644399D01*
X651751Y643341D01*
X652448Y642432D01*
X653357Y641735D01*
X654415Y641297D01*
X655550Y641148D01*
X656686Y641297D01*
X657744Y641735D01*
X658653Y642432D01*
X659350Y643341D01*
X659788Y644399D01*
X659938Y645535D01*
X659788Y646670D01*
X659350Y647728D01*
X658653Y648637D01*
X657744Y649334D01*
X656686Y649772D01*
X655550Y649922D01*
D02*
G37*
G36*
Y639922D02*
X654415Y639772D01*
X653357Y639334D01*
X652448Y638637D01*
X651751Y637728D01*
X651313Y636670D01*
X651163Y635535D01*
X651313Y634399D01*
X651751Y633341D01*
X652448Y632432D01*
X653357Y631735D01*
X654415Y631297D01*
X655550Y631147D01*
X656686Y631297D01*
X657744Y631735D01*
X658653Y632432D01*
X659350Y633341D01*
X659788Y634399D01*
X659938Y635535D01*
X659788Y636670D01*
X659350Y637728D01*
X658653Y638637D01*
X657744Y639334D01*
X656686Y639772D01*
X655550Y639922D01*
D02*
G37*
G36*
Y629922D02*
X654415Y629772D01*
X653357Y629334D01*
X652448Y628637D01*
X651751Y627728D01*
X651313Y626670D01*
X651163Y625535D01*
X651313Y624399D01*
X651751Y623341D01*
X652448Y622432D01*
X653357Y621735D01*
X654415Y621297D01*
X655550Y621147D01*
X656686Y621297D01*
X657744Y621735D01*
X658653Y622432D01*
X659350Y623341D01*
X659788Y624399D01*
X659938Y625535D01*
X659788Y626670D01*
X659350Y627728D01*
X658653Y628637D01*
X657744Y629334D01*
X656686Y629772D01*
X655550Y629922D01*
D02*
G37*
G36*
X626510Y628261D02*
X625271Y628098D01*
X624117Y627620D01*
X623127Y626860D01*
X622366Y625869D01*
X621888Y624715D01*
X621725Y623477D01*
X621888Y622239D01*
X622366Y621085D01*
X623127Y620094D01*
X624117Y619334D01*
X625271Y618856D01*
X626510Y618693D01*
X627748Y618856D01*
X628902Y619334D01*
X629892Y620094D01*
X630653Y621085D01*
X631131Y622239D01*
X631294Y623477D01*
X631131Y624715D01*
X630653Y625869D01*
X629892Y626860D01*
X628902Y627620D01*
X627748Y628098D01*
X626510Y628261D01*
D02*
G37*
G36*
X388844Y627417D02*
X387481Y627237D01*
X386210Y626711D01*
X385118Y625873D01*
X384281Y624782D01*
X383754Y623511D01*
X383575Y622147D01*
X383754Y620783D01*
X384281Y619512D01*
X385118Y618421D01*
X386210Y617584D01*
X387481Y617057D01*
X388844Y616878D01*
X390208Y617057D01*
X391479Y617584D01*
X392571Y618421D01*
X393408Y619512D01*
X393935Y620783D01*
X394114Y622147D01*
X393935Y623511D01*
X393408Y624782D01*
X392571Y625873D01*
X391479Y626711D01*
X390208Y627237D01*
X388844Y627417D01*
D02*
G37*
G36*
X631253Y647905D02*
X621766D01*
Y638419D01*
X628946D01*
X651241Y616124D01*
X651163Y615535D01*
X651313Y614399D01*
X651751Y613341D01*
X652448Y612432D01*
X653357Y611735D01*
X654415Y611297D01*
X655550Y611147D01*
X656686Y611297D01*
X657744Y611735D01*
X658653Y612432D01*
X659350Y613341D01*
X659788Y614399D01*
X659938Y615535D01*
X659788Y616670D01*
X659350Y617728D01*
X658653Y618637D01*
X657744Y619334D01*
X656686Y619772D01*
X655550Y619922D01*
X654415Y619772D01*
X653357Y619334D01*
X652954Y619025D01*
X631253Y640726D01*
Y647905D01*
D02*
G37*
G36*
X655550Y609922D02*
X654415Y609772D01*
X653357Y609334D01*
X652448Y608637D01*
X651751Y607728D01*
X651313Y606670D01*
X651163Y605535D01*
X651313Y604399D01*
X651751Y603341D01*
X652448Y602432D01*
X653357Y601735D01*
X654415Y601297D01*
X655550Y601148D01*
X656686Y601297D01*
X657744Y601735D01*
X658653Y602432D01*
X659350Y603341D01*
X659788Y604399D01*
X659938Y605535D01*
X659788Y606670D01*
X659350Y607728D01*
X658653Y608637D01*
X657744Y609334D01*
X656686Y609772D01*
X655550Y609922D01*
D02*
G37*
G36*
X464123Y605025D02*
X454833D01*
Y595735D01*
X464123D01*
Y605025D01*
D02*
G37*
G36*
X569478Y605065D02*
X568266Y604905D01*
X567136Y604437D01*
X566165Y603693D01*
X565421Y602723D01*
X564953Y601592D01*
X564793Y600380D01*
X564953Y599167D01*
X565421Y598037D01*
X566165Y597067D01*
X567136Y596322D01*
X568266Y595854D01*
X569478Y595695D01*
X570691Y595854D01*
X571821Y596322D01*
X572791Y597067D01*
X573536Y598037D01*
X574004Y599167D01*
X574164Y600380D01*
X574004Y601592D01*
X573536Y602723D01*
X572791Y603693D01*
X571821Y604437D01*
X570691Y604905D01*
X569478Y605065D01*
D02*
G37*
G36*
X559478D02*
X558266Y604905D01*
X557136Y604437D01*
X556166Y603693D01*
X555421Y602723D01*
X554953Y601592D01*
X554793Y600380D01*
X554953Y599167D01*
X555421Y598037D01*
X556166Y597067D01*
X557136Y596322D01*
X558266Y595854D01*
X559478Y595695D01*
X560691Y595854D01*
X561821Y596322D01*
X562791Y597067D01*
X563536Y598037D01*
X564004Y599167D01*
X564164Y600380D01*
X564004Y601592D01*
X563536Y602723D01*
X562791Y603693D01*
X561821Y604437D01*
X560691Y604905D01*
X559478Y605065D01*
D02*
G37*
G36*
X549478D02*
X548266Y604905D01*
X547136Y604437D01*
X546166Y603693D01*
X545421Y602723D01*
X544953Y601592D01*
X544793Y600380D01*
X544953Y599167D01*
X545421Y598037D01*
X546166Y597067D01*
X547136Y596322D01*
X548266Y595854D01*
X549478Y595695D01*
X550691Y595854D01*
X551821Y596322D01*
X552791Y597067D01*
X553536Y598037D01*
X554004Y599167D01*
X554164Y600380D01*
X554004Y601592D01*
X553536Y602723D01*
X552791Y603693D01*
X551821Y604437D01*
X550691Y604905D01*
X549478Y605065D01*
D02*
G37*
G36*
X539478D02*
X538266Y604905D01*
X537136Y604437D01*
X536166Y603693D01*
X535421Y602723D01*
X534953Y601592D01*
X534793Y600380D01*
X534953Y599167D01*
X535421Y598037D01*
X536166Y597067D01*
X537136Y596322D01*
X538266Y595854D01*
X539478Y595695D01*
X540691Y595854D01*
X541821Y596322D01*
X542791Y597067D01*
X543536Y598037D01*
X544004Y599167D01*
X544164Y600380D01*
X544004Y601592D01*
X543536Y602723D01*
X542791Y603693D01*
X541821Y604437D01*
X540691Y604905D01*
X539478Y605065D01*
D02*
G37*
G36*
X529478D02*
X528266Y604905D01*
X527136Y604437D01*
X526165Y603693D01*
X525421Y602723D01*
X524953Y601592D01*
X524793Y600380D01*
X524953Y599167D01*
X525421Y598037D01*
X526165Y597067D01*
X527136Y596322D01*
X528266Y595854D01*
X529478Y595695D01*
X530691Y595854D01*
X531821Y596322D01*
X532791Y597067D01*
X533536Y598037D01*
X534004Y599167D01*
X534164Y600380D01*
X534004Y601592D01*
X533536Y602723D01*
X532791Y603693D01*
X531821Y604437D01*
X530691Y604905D01*
X529478Y605065D01*
D02*
G37*
G36*
X519478D02*
X518266Y604905D01*
X517136Y604437D01*
X516165Y603693D01*
X515421Y602723D01*
X514953Y601592D01*
X514793Y600380D01*
X514953Y599167D01*
X515421Y598037D01*
X516165Y597067D01*
X517136Y596322D01*
X518266Y595854D01*
X519478Y595695D01*
X520691Y595854D01*
X521821Y596322D01*
X522791Y597067D01*
X523536Y598037D01*
X524004Y599167D01*
X524164Y600380D01*
X524004Y601592D01*
X523536Y602723D01*
X522791Y603693D01*
X521821Y604437D01*
X520691Y604905D01*
X519478Y605065D01*
D02*
G37*
G36*
X509478D02*
X508266Y604905D01*
X507136Y604437D01*
X506166Y603693D01*
X505421Y602723D01*
X504953Y601592D01*
X504793Y600380D01*
X504953Y599167D01*
X505421Y598037D01*
X506166Y597067D01*
X507136Y596322D01*
X508266Y595854D01*
X509478Y595695D01*
X510691Y595854D01*
X511821Y596322D01*
X512791Y597067D01*
X513536Y598037D01*
X514004Y599167D01*
X514164Y600380D01*
X514004Y601592D01*
X513536Y602723D01*
X512791Y603693D01*
X511821Y604437D01*
X510691Y604905D01*
X509478Y605065D01*
D02*
G37*
G36*
X499478D02*
X498266Y604905D01*
X497136Y604437D01*
X496166Y603693D01*
X495421Y602723D01*
X494953Y601592D01*
X494793Y600380D01*
X494953Y599167D01*
X495421Y598037D01*
X496166Y597067D01*
X497136Y596322D01*
X498266Y595854D01*
X499478Y595695D01*
X500691Y595854D01*
X501821Y596322D01*
X502791Y597067D01*
X503536Y598037D01*
X504004Y599167D01*
X504164Y600380D01*
X504004Y601592D01*
X503536Y602723D01*
X502791Y603693D01*
X501821Y604437D01*
X500691Y604905D01*
X499478Y605065D01*
D02*
G37*
G36*
X489478D02*
X488266Y604905D01*
X487136Y604437D01*
X486166Y603693D01*
X485421Y602723D01*
X484953Y601592D01*
X484793Y600380D01*
X484953Y599167D01*
X485421Y598037D01*
X486166Y597067D01*
X487136Y596322D01*
X488266Y595854D01*
X489478Y595695D01*
X490691Y595854D01*
X491821Y596322D01*
X492791Y597067D01*
X493536Y598037D01*
X494004Y599167D01*
X494164Y600380D01*
X494004Y601592D01*
X493536Y602723D01*
X492791Y603693D01*
X491821Y604437D01*
X490691Y604905D01*
X489478Y605065D01*
D02*
G37*
G36*
X479478D02*
X478266Y604905D01*
X477136Y604437D01*
X476165Y603693D01*
X475421Y602723D01*
X474953Y601592D01*
X474793Y600380D01*
X474953Y599167D01*
X475421Y598037D01*
X476165Y597067D01*
X477136Y596322D01*
X478266Y595854D01*
X479478Y595695D01*
X480691Y595854D01*
X481821Y596322D01*
X482791Y597067D01*
X483536Y598037D01*
X484004Y599167D01*
X484164Y600380D01*
X484004Y601592D01*
X483536Y602723D01*
X482791Y603693D01*
X481821Y604437D01*
X480691Y604905D01*
X479478Y605065D01*
D02*
G37*
G36*
X469478D02*
X468266Y604905D01*
X467136Y604437D01*
X466165Y603693D01*
X465421Y602723D01*
X464953Y601592D01*
X464793Y600380D01*
X464953Y599167D01*
X465421Y598037D01*
X466165Y597067D01*
X467136Y596322D01*
X468266Y595854D01*
X469478Y595695D01*
X470691Y595854D01*
X471821Y596322D01*
X472791Y597067D01*
X473536Y598037D01*
X474004Y599167D01*
X474164Y600380D01*
X474004Y601592D01*
X473536Y602723D01*
X472791Y603693D01*
X471821Y604437D01*
X470691Y604905D01*
X469478Y605065D01*
D02*
G37*
G36*
X599609Y602320D02*
X597637Y602126D01*
X595741Y601550D01*
X593994Y600616D01*
X592462Y599360D01*
X591205Y597828D01*
X590271Y596081D01*
X589696Y594185D01*
X589502Y592213D01*
X589696Y590241D01*
X590271Y588345D01*
X591205Y586598D01*
X592462Y585066D01*
X593994Y583809D01*
X595741Y582875D01*
X597637Y582300D01*
X599609Y582106D01*
X601581Y582300D01*
X603477Y582875D01*
X605224Y583809D01*
X606756Y585066D01*
X608012Y586598D01*
X608947Y588345D01*
X609522Y590241D01*
X609716Y592213D01*
X609522Y594185D01*
X608947Y596081D01*
X608012Y597828D01*
X606756Y599360D01*
X605224Y600616D01*
X603477Y601550D01*
X601581Y602126D01*
X599609Y602320D01*
D02*
G37*
G36*
X713625Y571446D02*
X712490Y571297D01*
X711432Y570858D01*
X710523Y570161D01*
X709826Y569253D01*
X709388Y568194D01*
X709238Y567059D01*
X709388Y565924D01*
X709826Y564865D01*
X710523Y563957D01*
X711432Y563260D01*
X712490Y562821D01*
X713625Y562672D01*
X714761Y562821D01*
X715819Y563260D01*
X716727Y563957D01*
X717425Y564865D01*
X717863Y565924D01*
X718012Y567059D01*
X717863Y568194D01*
X717425Y569253D01*
X716727Y570161D01*
X715819Y570858D01*
X714761Y571297D01*
X713625Y571446D01*
D02*
G37*
G36*
X703625D02*
X702490Y571297D01*
X701432Y570858D01*
X700523Y570161D01*
X699826Y569253D01*
X699388Y568194D01*
X699238Y567059D01*
X699388Y565924D01*
X699826Y564865D01*
X700523Y563957D01*
X701432Y563260D01*
X702490Y562821D01*
X703625Y562672D01*
X704761Y562821D01*
X705819Y563260D01*
X706727Y563957D01*
X707425Y564865D01*
X707863Y565924D01*
X708012Y567059D01*
X707863Y568194D01*
X707425Y569253D01*
X706727Y570161D01*
X705819Y570858D01*
X704761Y571297D01*
X703625Y571446D01*
D02*
G37*
G36*
X693625D02*
X692490Y571297D01*
X691432Y570858D01*
X690523Y570161D01*
X689826Y569253D01*
X689388Y568194D01*
X689238Y567059D01*
X689388Y565924D01*
X689826Y564865D01*
X690523Y563957D01*
X691432Y563260D01*
X692490Y562821D01*
X693625Y562672D01*
X694761Y562821D01*
X695819Y563260D01*
X696727Y563957D01*
X697425Y564865D01*
X697863Y565924D01*
X698012Y567059D01*
X697863Y568194D01*
X697425Y569253D01*
X696727Y570161D01*
X695819Y570858D01*
X694761Y571297D01*
X693625Y571446D01*
D02*
G37*
G36*
X683625D02*
X682490Y571297D01*
X681432Y570858D01*
X680523Y570161D01*
X679826Y569253D01*
X679388Y568194D01*
X679238Y567059D01*
X679388Y565924D01*
X679826Y564865D01*
X680523Y563957D01*
X681432Y563260D01*
X682490Y562821D01*
X683625Y562672D01*
X684761Y562821D01*
X685819Y563260D01*
X686727Y563957D01*
X687425Y564865D01*
X687863Y565924D01*
X688012Y567059D01*
X687863Y568194D01*
X687425Y569253D01*
X686727Y570161D01*
X685819Y570858D01*
X684761Y571297D01*
X683625Y571446D01*
D02*
G37*
G36*
X673625D02*
X672490Y571297D01*
X671432Y570858D01*
X670523Y570161D01*
X669826Y569253D01*
X669388Y568194D01*
X669238Y567059D01*
X669388Y565924D01*
X669826Y564865D01*
X670523Y563957D01*
X671432Y563260D01*
X672490Y562821D01*
X673625Y562672D01*
X674761Y562821D01*
X675819Y563260D01*
X676727Y563957D01*
X677425Y564865D01*
X677863Y565924D01*
X678012Y567059D01*
X677863Y568194D01*
X677425Y569253D01*
X676727Y570161D01*
X675819Y570858D01*
X674761Y571297D01*
X673625Y571446D01*
D02*
G37*
G36*
X663625D02*
X662490Y571297D01*
X661432Y570858D01*
X660523Y570161D01*
X659826Y569253D01*
X659388Y568194D01*
X659238Y567059D01*
X659388Y565924D01*
X659826Y564865D01*
X660523Y563957D01*
X661432Y563260D01*
X662490Y562821D01*
X663625Y562672D01*
X664761Y562821D01*
X665819Y563260D01*
X666727Y563957D01*
X667425Y564865D01*
X667863Y565924D01*
X668012Y567059D01*
X667863Y568194D01*
X667425Y569253D01*
X666727Y570161D01*
X665819Y570858D01*
X664761Y571297D01*
X663625Y571446D01*
D02*
G37*
G36*
X653625D02*
X652490Y571297D01*
X651432Y570858D01*
X650523Y570161D01*
X649826Y569253D01*
X649388Y568194D01*
X649238Y567059D01*
X649388Y565924D01*
X649826Y564865D01*
X650523Y563957D01*
X651432Y563260D01*
X652490Y562821D01*
X653625Y562672D01*
X654761Y562821D01*
X655819Y563260D01*
X656727Y563957D01*
X657425Y564865D01*
X657863Y565924D01*
X658012Y567059D01*
X657863Y568194D01*
X657425Y569253D01*
X656727Y570161D01*
X655819Y570858D01*
X654761Y571297D01*
X653625Y571446D01*
D02*
G37*
G36*
X643625D02*
X642490Y571297D01*
X641432Y570858D01*
X640523Y570161D01*
X639826Y569253D01*
X639388Y568194D01*
X639238Y567059D01*
X639388Y565924D01*
X639826Y564865D01*
X640523Y563957D01*
X641432Y563260D01*
X642490Y562821D01*
X643625Y562672D01*
X644761Y562821D01*
X645819Y563260D01*
X646727Y563957D01*
X647425Y564865D01*
X647863Y565924D01*
X648012Y567059D01*
X647863Y568194D01*
X647425Y569253D01*
X646727Y570161D01*
X645819Y570858D01*
X644761Y571297D01*
X643625Y571446D01*
D02*
G37*
G36*
X633625D02*
X632490Y571297D01*
X631432Y570858D01*
X630523Y570161D01*
X629826Y569253D01*
X629388Y568194D01*
X629238Y567059D01*
X629388Y565924D01*
X629826Y564865D01*
X630523Y563957D01*
X631432Y563260D01*
X632490Y562821D01*
X633625Y562672D01*
X634761Y562821D01*
X635819Y563260D01*
X636727Y563957D01*
X637425Y564865D01*
X637863Y565924D01*
X638012Y567059D01*
X637863Y568194D01*
X637425Y569253D01*
X636727Y570161D01*
X635819Y570858D01*
X634761Y571297D01*
X633625Y571446D01*
D02*
G37*
G36*
X623625D02*
X622490Y571297D01*
X621432Y570858D01*
X620523Y570161D01*
X619826Y569253D01*
X619388Y568194D01*
X619238Y567059D01*
X619388Y565924D01*
X619826Y564865D01*
X620523Y563957D01*
X621432Y563260D01*
X622490Y562821D01*
X623625Y562672D01*
X624761Y562821D01*
X625819Y563260D01*
X626727Y563957D01*
X627425Y564865D01*
X627863Y565924D01*
X628012Y567059D01*
X627863Y568194D01*
X627425Y569253D01*
X626727Y570161D01*
X625819Y570858D01*
X624761Y571297D01*
X623625Y571446D01*
D02*
G37*
G36*
X613625D02*
X612490Y571297D01*
X611432Y570858D01*
X610523Y570161D01*
X609826Y569253D01*
X609388Y568194D01*
X609238Y567059D01*
X609388Y565924D01*
X609826Y564865D01*
X610523Y563957D01*
X611432Y563260D01*
X612490Y562821D01*
X613625Y562672D01*
X614761Y562821D01*
X615819Y563260D01*
X616727Y563957D01*
X617425Y564865D01*
X617863Y565924D01*
X618012Y567059D01*
X617863Y568194D01*
X617425Y569253D01*
X616727Y570161D01*
X615819Y570858D01*
X614761Y571297D01*
X613625Y571446D01*
D02*
G37*
G36*
X479478Y665065D02*
X478266Y664905D01*
X477136Y664437D01*
X476165Y663693D01*
X475421Y662722D01*
X474953Y661592D01*
X474793Y660380D01*
X474953Y659167D01*
X475421Y658037D01*
X476165Y657067D01*
X477136Y656322D01*
X477972Y655976D01*
Y652972D01*
X478096Y652348D01*
X478449Y651819D01*
X482167Y648101D01*
X482696Y647747D01*
X483321Y647623D01*
X574458D01*
X576593Y645489D01*
Y572460D01*
X576717Y571836D01*
X577070Y571307D01*
X579620Y568757D01*
X579388Y568194D01*
X579238Y567059D01*
X579388Y565924D01*
X579826Y564865D01*
X580523Y563957D01*
X581432Y563260D01*
X582490Y562821D01*
X583625Y562672D01*
X584761Y562821D01*
X585819Y563260D01*
X586727Y563957D01*
X587425Y564865D01*
X587657Y565428D01*
X589593D01*
X589826Y564865D01*
X590523Y563957D01*
X591432Y563260D01*
X592490Y562821D01*
X593625Y562672D01*
X594761Y562821D01*
X595819Y563260D01*
X596727Y563957D01*
X597425Y564865D01*
X597657Y565428D01*
X599593D01*
X599826Y564865D01*
X600523Y563957D01*
X601432Y563260D01*
X602490Y562821D01*
X603625Y562672D01*
X604761Y562821D01*
X605819Y563260D01*
X606727Y563957D01*
X607425Y564865D01*
X607863Y565924D01*
X608012Y567059D01*
X607863Y568194D01*
X607425Y569253D01*
X606727Y570161D01*
X605819Y570858D01*
X604761Y571297D01*
X603625Y571446D01*
X602490Y571297D01*
X601432Y570858D01*
X600523Y570161D01*
X599826Y569253D01*
X599593Y568690D01*
X597657D01*
X597425Y569253D01*
X596727Y570161D01*
X595819Y570858D01*
X594761Y571297D01*
X593625Y571446D01*
X592490Y571297D01*
X591432Y570858D01*
X590523Y570161D01*
X589826Y569253D01*
X589593Y568690D01*
X587657D01*
X587425Y569253D01*
X586727Y570161D01*
X585819Y570858D01*
X584761Y571297D01*
X583625Y571446D01*
X582490Y571297D01*
X581927Y571064D01*
X579855Y573136D01*
Y646165D01*
X579731Y646789D01*
X579377Y647318D01*
X576288Y650408D01*
X575758Y650762D01*
X575134Y650886D01*
X483996D01*
X481234Y653648D01*
Y656079D01*
X481821Y656322D01*
X482791Y657067D01*
X483536Y658037D01*
X484004Y659167D01*
X484164Y660380D01*
X484004Y661592D01*
X483536Y662722D01*
X482791Y663693D01*
X481821Y664437D01*
X480691Y664905D01*
X479478Y665065D01*
D02*
G37*
G36*
X573625Y571446D02*
X572490Y571297D01*
X571432Y570858D01*
X570523Y570161D01*
X569826Y569253D01*
X569388Y568194D01*
X569238Y567059D01*
X569388Y565924D01*
X569826Y564865D01*
X570523Y563957D01*
X571432Y563260D01*
X572490Y562821D01*
X573625Y562672D01*
X574761Y562821D01*
X575819Y563260D01*
X576727Y563957D01*
X577425Y564865D01*
X577863Y565924D01*
X578012Y567059D01*
X577863Y568194D01*
X577425Y569253D01*
X576727Y570161D01*
X575819Y570858D01*
X574761Y571297D01*
X573625Y571446D01*
D02*
G37*
G36*
X563625D02*
X562490Y571297D01*
X561432Y570858D01*
X560523Y570161D01*
X559826Y569253D01*
X559388Y568194D01*
X559238Y567059D01*
X559388Y565924D01*
X559826Y564865D01*
X560523Y563957D01*
X561432Y563260D01*
X562490Y562821D01*
X563625Y562672D01*
X564761Y562821D01*
X565819Y563260D01*
X566727Y563957D01*
X567425Y564865D01*
X567863Y565924D01*
X568012Y567059D01*
X567863Y568194D01*
X567425Y569253D01*
X566727Y570161D01*
X565819Y570858D01*
X564761Y571297D01*
X563625Y571446D01*
D02*
G37*
G36*
X553625D02*
X552490Y571297D01*
X551432Y570858D01*
X550523Y570161D01*
X549826Y569253D01*
X549388Y568194D01*
X549238Y567059D01*
X549388Y565924D01*
X549826Y564865D01*
X550523Y563957D01*
X551432Y563260D01*
X552490Y562821D01*
X553625Y562672D01*
X554761Y562821D01*
X555819Y563260D01*
X556727Y563957D01*
X557425Y564865D01*
X557863Y565924D01*
X558012Y567059D01*
X557863Y568194D01*
X557425Y569253D01*
X556727Y570161D01*
X555819Y570858D01*
X554761Y571297D01*
X553625Y571446D01*
D02*
G37*
G36*
X543625D02*
X542490Y571297D01*
X541432Y570858D01*
X540523Y570161D01*
X539826Y569253D01*
X539388Y568194D01*
X539238Y567059D01*
X539388Y565924D01*
X539826Y564865D01*
X540523Y563957D01*
X541432Y563260D01*
X542490Y562821D01*
X543625Y562672D01*
X544761Y562821D01*
X545819Y563260D01*
X546727Y563957D01*
X547425Y564865D01*
X547863Y565924D01*
X548012Y567059D01*
X547863Y568194D01*
X547425Y569253D01*
X546727Y570161D01*
X545819Y570858D01*
X544761Y571297D01*
X543625Y571446D01*
D02*
G37*
G36*
X533625D02*
X532490Y571297D01*
X531432Y570858D01*
X530523Y570161D01*
X529826Y569253D01*
X529388Y568194D01*
X529238Y567059D01*
X529388Y565924D01*
X529826Y564865D01*
X530523Y563957D01*
X531432Y563260D01*
X532490Y562821D01*
X533625Y562672D01*
X534761Y562821D01*
X535819Y563260D01*
X536727Y563957D01*
X537425Y564865D01*
X537863Y565924D01*
X538012Y567059D01*
X537863Y568194D01*
X537425Y569253D01*
X536727Y570161D01*
X535819Y570858D01*
X534761Y571297D01*
X533625Y571446D01*
D02*
G37*
G36*
X713625Y561446D02*
X712490Y561297D01*
X711432Y560858D01*
X710523Y560161D01*
X709826Y559253D01*
X709388Y558194D01*
X709238Y557059D01*
X709388Y555924D01*
X709826Y554865D01*
X710523Y553957D01*
X711432Y553260D01*
X712490Y552821D01*
X713625Y552672D01*
X714761Y552821D01*
X715819Y553260D01*
X716727Y553957D01*
X717425Y554865D01*
X717863Y555924D01*
X718012Y557059D01*
X717863Y558194D01*
X717425Y559253D01*
X716727Y560161D01*
X715819Y560858D01*
X714761Y561297D01*
X713625Y561446D01*
D02*
G37*
G36*
X703625D02*
X702490Y561297D01*
X701432Y560858D01*
X700523Y560161D01*
X699826Y559253D01*
X699388Y558194D01*
X699238Y557059D01*
X699388Y555924D01*
X699826Y554865D01*
X700523Y553957D01*
X701432Y553260D01*
X702490Y552821D01*
X703625Y552672D01*
X704761Y552821D01*
X705819Y553260D01*
X706727Y553957D01*
X707425Y554865D01*
X707863Y555924D01*
X708012Y557059D01*
X707863Y558194D01*
X707425Y559253D01*
X706727Y560161D01*
X705819Y560858D01*
X704761Y561297D01*
X703625Y561446D01*
D02*
G37*
G36*
X693625D02*
X692490Y561297D01*
X691432Y560858D01*
X690523Y560161D01*
X689826Y559253D01*
X689388Y558194D01*
X689238Y557059D01*
X689388Y555924D01*
X689826Y554865D01*
X690523Y553957D01*
X691432Y553260D01*
X692490Y552821D01*
X693625Y552672D01*
X694761Y552821D01*
X695819Y553260D01*
X696727Y553957D01*
X697425Y554865D01*
X697863Y555924D01*
X698012Y557059D01*
X697863Y558194D01*
X697425Y559253D01*
X696727Y560161D01*
X695819Y560858D01*
X694761Y561297D01*
X693625Y561446D01*
D02*
G37*
G36*
X683625D02*
X682490Y561297D01*
X681432Y560858D01*
X680523Y560161D01*
X679826Y559253D01*
X679388Y558194D01*
X679238Y557059D01*
X679388Y555924D01*
X679826Y554865D01*
X680523Y553957D01*
X681432Y553260D01*
X682490Y552821D01*
X683625Y552672D01*
X684761Y552821D01*
X685819Y553260D01*
X686727Y553957D01*
X687425Y554865D01*
X687863Y555924D01*
X688012Y557059D01*
X687863Y558194D01*
X687425Y559253D01*
X686727Y560161D01*
X685819Y560858D01*
X684761Y561297D01*
X683625Y561446D01*
D02*
G37*
G36*
X673625D02*
X672490Y561297D01*
X671432Y560858D01*
X670523Y560161D01*
X669826Y559253D01*
X669388Y558194D01*
X669238Y557059D01*
X669388Y555924D01*
X669826Y554865D01*
X670523Y553957D01*
X671432Y553260D01*
X672490Y552821D01*
X673625Y552672D01*
X674761Y552821D01*
X675819Y553260D01*
X676727Y553957D01*
X677425Y554865D01*
X677863Y555924D01*
X678012Y557059D01*
X677863Y558194D01*
X677425Y559253D01*
X676727Y560161D01*
X675819Y560858D01*
X674761Y561297D01*
X673625Y561446D01*
D02*
G37*
G36*
X663625D02*
X662490Y561297D01*
X661432Y560858D01*
X660523Y560161D01*
X659826Y559253D01*
X659388Y558194D01*
X659238Y557059D01*
X659388Y555924D01*
X659826Y554865D01*
X660523Y553957D01*
X661432Y553260D01*
X662490Y552821D01*
X663625Y552672D01*
X664761Y552821D01*
X665819Y553260D01*
X666727Y553957D01*
X667425Y554865D01*
X667863Y555924D01*
X668012Y557059D01*
X667863Y558194D01*
X667425Y559253D01*
X666727Y560161D01*
X665819Y560858D01*
X664761Y561297D01*
X663625Y561446D01*
D02*
G37*
G36*
X653625D02*
X652490Y561297D01*
X651432Y560858D01*
X650523Y560161D01*
X649826Y559253D01*
X649388Y558194D01*
X649238Y557059D01*
X649388Y555924D01*
X649826Y554865D01*
X650523Y553957D01*
X651432Y553260D01*
X652490Y552821D01*
X653625Y552672D01*
X654761Y552821D01*
X655819Y553260D01*
X656727Y553957D01*
X657425Y554865D01*
X657863Y555924D01*
X658012Y557059D01*
X657863Y558194D01*
X657425Y559253D01*
X656727Y560161D01*
X655819Y560858D01*
X654761Y561297D01*
X653625Y561446D01*
D02*
G37*
G36*
X643625D02*
X642490Y561297D01*
X641432Y560858D01*
X640523Y560161D01*
X639826Y559253D01*
X639388Y558194D01*
X639238Y557059D01*
X639388Y555924D01*
X639826Y554865D01*
X640523Y553957D01*
X641432Y553260D01*
X642490Y552821D01*
X643625Y552672D01*
X644761Y552821D01*
X645819Y553260D01*
X646727Y553957D01*
X647425Y554865D01*
X647863Y555924D01*
X648012Y557059D01*
X647863Y558194D01*
X647425Y559253D01*
X646727Y560161D01*
X645819Y560858D01*
X644761Y561297D01*
X643625Y561446D01*
D02*
G37*
G36*
X633625D02*
X632490Y561297D01*
X631432Y560858D01*
X630523Y560161D01*
X629826Y559253D01*
X629388Y558194D01*
X629238Y557059D01*
X629388Y555924D01*
X629826Y554865D01*
X630523Y553957D01*
X631432Y553260D01*
X632490Y552821D01*
X633625Y552672D01*
X634761Y552821D01*
X635819Y553260D01*
X636727Y553957D01*
X637425Y554865D01*
X637863Y555924D01*
X638012Y557059D01*
X637863Y558194D01*
X637425Y559253D01*
X636727Y560161D01*
X635819Y560858D01*
X634761Y561297D01*
X633625Y561446D01*
D02*
G37*
G36*
X623625D02*
X622490Y561297D01*
X621432Y560858D01*
X620523Y560161D01*
X619826Y559253D01*
X619388Y558194D01*
X619238Y557059D01*
X619388Y555924D01*
X619826Y554865D01*
X620523Y553957D01*
X621432Y553260D01*
X622490Y552821D01*
X623625Y552672D01*
X624761Y552821D01*
X625819Y553260D01*
X626727Y553957D01*
X627425Y554865D01*
X627863Y555924D01*
X628012Y557059D01*
X627863Y558194D01*
X627425Y559253D01*
X626727Y560161D01*
X625819Y560858D01*
X624761Y561297D01*
X623625Y561446D01*
D02*
G37*
G36*
X613625D02*
X612490Y561297D01*
X611432Y560858D01*
X610523Y560161D01*
X609826Y559253D01*
X609388Y558194D01*
X609238Y557059D01*
X609388Y555924D01*
X609826Y554865D01*
X610523Y553957D01*
X611432Y553260D01*
X612490Y552821D01*
X613625Y552672D01*
X614761Y552821D01*
X615819Y553260D01*
X616727Y553957D01*
X617425Y554865D01*
X617863Y555924D01*
X618012Y557059D01*
X617863Y558194D01*
X617425Y559253D01*
X616727Y560161D01*
X615819Y560858D01*
X614761Y561297D01*
X613625Y561446D01*
D02*
G37*
G36*
X603625D02*
X602490Y561297D01*
X601432Y560858D01*
X600523Y560161D01*
X599826Y559253D01*
X599388Y558194D01*
X599238Y557059D01*
X599388Y555924D01*
X599826Y554865D01*
X600523Y553957D01*
X601432Y553260D01*
X602490Y552821D01*
X603625Y552672D01*
X604761Y552821D01*
X605819Y553260D01*
X606727Y553957D01*
X607425Y554865D01*
X607863Y555924D01*
X608012Y557059D01*
X607863Y558194D01*
X607425Y559253D01*
X606727Y560161D01*
X605819Y560858D01*
X604761Y561297D01*
X603625Y561446D01*
D02*
G37*
G36*
X593625D02*
X592490Y561297D01*
X591432Y560858D01*
X590523Y560161D01*
X589826Y559253D01*
X589388Y558194D01*
X589238Y557059D01*
X589388Y555924D01*
X589826Y554865D01*
X590523Y553957D01*
X591432Y553260D01*
X592490Y552821D01*
X593625Y552672D01*
X594761Y552821D01*
X595819Y553260D01*
X596727Y553957D01*
X597425Y554865D01*
X597863Y555924D01*
X598012Y557059D01*
X597863Y558194D01*
X597425Y559253D01*
X596727Y560161D01*
X595819Y560858D01*
X594761Y561297D01*
X593625Y561446D01*
D02*
G37*
G36*
X583625D02*
X582490Y561297D01*
X581432Y560858D01*
X580523Y560161D01*
X579826Y559253D01*
X579388Y558194D01*
X579238Y557059D01*
X579388Y555924D01*
X579826Y554865D01*
X580523Y553957D01*
X581432Y553260D01*
X582490Y552821D01*
X583625Y552672D01*
X584761Y552821D01*
X585819Y553260D01*
X586727Y553957D01*
X587425Y554865D01*
X587863Y555924D01*
X588012Y557059D01*
X587863Y558194D01*
X587425Y559253D01*
X586727Y560161D01*
X585819Y560858D01*
X584761Y561297D01*
X583625Y561446D01*
D02*
G37*
G36*
X573625D02*
X572490Y561297D01*
X571432Y560858D01*
X570523Y560161D01*
X569826Y559253D01*
X569388Y558194D01*
X569238Y557059D01*
X569388Y555924D01*
X569826Y554865D01*
X570523Y553957D01*
X571432Y553260D01*
X572490Y552821D01*
X573625Y552672D01*
X574761Y552821D01*
X575819Y553260D01*
X576727Y553957D01*
X577425Y554865D01*
X577863Y555924D01*
X578012Y557059D01*
X577863Y558194D01*
X577425Y559253D01*
X576727Y560161D01*
X575819Y560858D01*
X574761Y561297D01*
X573625Y561446D01*
D02*
G37*
G36*
X563625D02*
X562490Y561297D01*
X561432Y560858D01*
X560523Y560161D01*
X559826Y559253D01*
X559388Y558194D01*
X559238Y557059D01*
X559388Y555924D01*
X559826Y554865D01*
X560523Y553957D01*
X561432Y553260D01*
X562490Y552821D01*
X563625Y552672D01*
X564761Y552821D01*
X565819Y553260D01*
X566727Y553957D01*
X567425Y554865D01*
X567863Y555924D01*
X568012Y557059D01*
X567863Y558194D01*
X567425Y559253D01*
X566727Y560161D01*
X565819Y560858D01*
X564761Y561297D01*
X563625Y561446D01*
D02*
G37*
G36*
X553625D02*
X552490Y561297D01*
X551432Y560858D01*
X550523Y560161D01*
X549826Y559253D01*
X549388Y558194D01*
X549238Y557059D01*
X549388Y555924D01*
X549826Y554865D01*
X550523Y553957D01*
X551432Y553260D01*
X552490Y552821D01*
X553625Y552672D01*
X554761Y552821D01*
X555819Y553260D01*
X556727Y553957D01*
X557425Y554865D01*
X557863Y555924D01*
X558012Y557059D01*
X557863Y558194D01*
X557425Y559253D01*
X556727Y560161D01*
X555819Y560858D01*
X554761Y561297D01*
X553625Y561446D01*
D02*
G37*
G36*
X543625D02*
X542490Y561297D01*
X541432Y560858D01*
X540523Y560161D01*
X539826Y559253D01*
X539388Y558194D01*
X539238Y557059D01*
X539388Y555924D01*
X539826Y554865D01*
X540523Y553957D01*
X541432Y553260D01*
X542490Y552821D01*
X543625Y552672D01*
X544761Y552821D01*
X545819Y553260D01*
X546727Y553957D01*
X547425Y554865D01*
X547863Y555924D01*
X548012Y557059D01*
X547863Y558194D01*
X547425Y559253D01*
X546727Y560161D01*
X545819Y560858D01*
X544761Y561297D01*
X543625Y561446D01*
D02*
G37*
G36*
X533625D02*
X532490Y561297D01*
X531432Y560858D01*
X530523Y560161D01*
X529826Y559253D01*
X529388Y558194D01*
X529238Y557059D01*
X529388Y555924D01*
X529826Y554865D01*
X530523Y553957D01*
X531432Y553260D01*
X532490Y552821D01*
X533625Y552672D01*
X534761Y552821D01*
X535819Y553260D01*
X536727Y553957D01*
X537425Y554865D01*
X537863Y555924D01*
X538012Y557059D01*
X537863Y558194D01*
X537425Y559253D01*
X536727Y560161D01*
X535819Y560858D01*
X534761Y561297D01*
X533625Y561446D01*
D02*
G37*
G36*
X389176Y541076D02*
X387899Y540950D01*
X386671Y540577D01*
X385539Y539972D01*
X384547Y539158D01*
X383733Y538166D01*
X383128Y537034D01*
X382756Y535806D01*
X382630Y534529D01*
X382756Y533252D01*
X383128Y532024D01*
X383733Y530892D01*
X384547Y529900D01*
X385539Y529086D01*
X386671Y528481D01*
X387899Y528108D01*
X389176Y527983D01*
X390454Y528108D01*
X391682Y528481D01*
X392813Y529086D01*
X393806Y529900D01*
X394620Y530892D01*
X395224Y532024D01*
X395597Y533252D01*
X395723Y534529D01*
X395597Y535806D01*
X395224Y537034D01*
X394620Y538166D01*
X393806Y539158D01*
X392813Y539972D01*
X391682Y540577D01*
X390454Y540950D01*
X389176Y541076D01*
D02*
G37*
G36*
X618433Y519678D02*
X613731D01*
Y513363D01*
X618433D01*
Y519678D01*
D02*
G37*
G36*
X654048Y534539D02*
X624860D01*
X624392Y534446D01*
X624233Y534340D01*
X623995Y534181D01*
X620286Y530472D01*
X620021Y530075D01*
X619928Y529607D01*
Y520678D01*
X619739D01*
Y512363D01*
X619928D01*
Y508349D01*
Y508292D01*
X620021Y507824D01*
X620286Y507427D01*
X627354Y500360D01*
X627751Y500094D01*
X628219Y500001D01*
X654537D01*
X655005Y500094D01*
X655402Y500360D01*
X661175Y506132D01*
X661440Y506529D01*
X661533Y506997D01*
Y512468D01*
Y527054D01*
X661440Y527522D01*
X661175Y527919D01*
X654913Y534181D01*
X654516Y534446D01*
X654048Y534539D01*
D02*
G37*
G36*
X402349Y403105D02*
X392070D01*
X391602Y403012D01*
X391205Y402746D01*
X389755Y401296D01*
X381595D01*
Y391179D01*
X383547D01*
Y383121D01*
X389508D01*
Y382229D01*
X390847D01*
Y368777D01*
X378356Y356286D01*
X378091Y355889D01*
X377997Y355421D01*
Y349087D01*
X378091Y348619D01*
X378356Y348222D01*
X381323Y345254D01*
X381720Y344989D01*
X382188Y344896D01*
X402506D01*
X402975Y344989D01*
X403371Y345254D01*
X404365Y346248D01*
X404630Y346645D01*
X404724Y347113D01*
Y400730D01*
X404630Y401199D01*
X404365Y401596D01*
X403214Y402746D01*
X402817Y403012D01*
X402349Y403105D01*
D02*
G37*
G36*
X385369Y341758D02*
X384160Y341599D01*
X383032Y341132D01*
X382064Y340389D01*
X381321Y339421D01*
X380855Y338294D01*
X380695Y337084D01*
X380855Y335875D01*
X381321Y334747D01*
X382064Y333779D01*
X383032Y333036D01*
X384160Y332569D01*
X385369Y332410D01*
X386579Y332569D01*
X387706Y333036D01*
X388674Y333779D01*
X389417Y334747D01*
X389884Y335875D01*
X390043Y337084D01*
X389884Y338294D01*
X389417Y339421D01*
X388674Y340389D01*
X387706Y341132D01*
X386579Y341599D01*
X385369Y341758D01*
D02*
G37*
G36*
X633625Y330740D02*
X632672Y330615D01*
X631785Y330247D01*
X631022Y329662D01*
X630437Y328900D01*
X630069Y328012D01*
X629944Y327059D01*
X630069Y326106D01*
X630437Y325218D01*
X631022Y324456D01*
X631785Y323871D01*
X632672Y323503D01*
X633625Y323378D01*
X634578Y323503D01*
X635466Y323871D01*
X636228Y324456D01*
X636813Y325218D01*
X637181Y326106D01*
X637306Y327059D01*
X637181Y328012D01*
X636813Y328900D01*
X636228Y329662D01*
X635466Y330247D01*
X634578Y330615D01*
X633625Y330740D01*
D02*
G37*
G36*
X563625D02*
X562672Y330615D01*
X561785Y330247D01*
X561022Y329662D01*
X560437Y328900D01*
X560069Y328012D01*
X559944Y327059D01*
X560069Y326106D01*
X560437Y325218D01*
X561022Y324456D01*
X561785Y323871D01*
X562672Y323503D01*
X563625Y323378D01*
X564578Y323503D01*
X565466Y323871D01*
X566228Y324456D01*
X566813Y325218D01*
X567181Y326106D01*
X567307Y327059D01*
X567181Y328012D01*
X566813Y328900D01*
X566228Y329662D01*
X565466Y330247D01*
X564578Y330615D01*
X563625Y330740D01*
D02*
G37*
G36*
X713625Y331446D02*
X712490Y331297D01*
X711432Y330858D01*
X710523Y330161D01*
X709826Y329253D01*
X709388Y328194D01*
X709238Y327059D01*
X709388Y325923D01*
X709826Y324865D01*
X710523Y323957D01*
X711432Y323260D01*
X712490Y322821D01*
X713625Y322672D01*
X714761Y322821D01*
X715819Y323260D01*
X716727Y323957D01*
X717425Y324865D01*
X717863Y325923D01*
X718012Y327059D01*
X717863Y328194D01*
X717425Y329253D01*
X716727Y330161D01*
X715819Y330858D01*
X714761Y331297D01*
X713625Y331446D01*
D02*
G37*
G36*
X703625D02*
X702490Y331297D01*
X701432Y330858D01*
X700523Y330161D01*
X699826Y329253D01*
X699388Y328194D01*
X699238Y327059D01*
X699388Y325923D01*
X699826Y324865D01*
X700523Y323957D01*
X701432Y323260D01*
X702490Y322821D01*
X703625Y322672D01*
X704761Y322821D01*
X705819Y323260D01*
X706727Y323957D01*
X707425Y324865D01*
X707863Y325923D01*
X708012Y327059D01*
X707863Y328194D01*
X707425Y329253D01*
X706727Y330161D01*
X705819Y330858D01*
X704761Y331297D01*
X703625Y331446D01*
D02*
G37*
G36*
X693625D02*
X692490Y331297D01*
X691432Y330858D01*
X690523Y330161D01*
X689826Y329253D01*
X689388Y328194D01*
X689238Y327059D01*
X689388Y325923D01*
X689826Y324865D01*
X690523Y323957D01*
X691432Y323260D01*
X692490Y322821D01*
X693625Y322672D01*
X694761Y322821D01*
X695819Y323260D01*
X696727Y323957D01*
X697425Y324865D01*
X697863Y325923D01*
X698012Y327059D01*
X697863Y328194D01*
X697425Y329253D01*
X696727Y330161D01*
X695819Y330858D01*
X694761Y331297D01*
X693625Y331446D01*
D02*
G37*
G36*
X683625D02*
X682490Y331297D01*
X681432Y330858D01*
X680523Y330161D01*
X679826Y329253D01*
X679388Y328194D01*
X679238Y327059D01*
X679388Y325923D01*
X679826Y324865D01*
X680523Y323957D01*
X681432Y323260D01*
X682490Y322821D01*
X683625Y322672D01*
X684761Y322821D01*
X685819Y323260D01*
X686727Y323957D01*
X687425Y324865D01*
X687863Y325923D01*
X688012Y327059D01*
X687863Y328194D01*
X687425Y329253D01*
X686727Y330161D01*
X685819Y330858D01*
X684761Y331297D01*
X683625Y331446D01*
D02*
G37*
G36*
X673625D02*
X672490Y331297D01*
X671432Y330858D01*
X670523Y330161D01*
X669826Y329253D01*
X669388Y328194D01*
X669238Y327059D01*
X669388Y325923D01*
X669826Y324865D01*
X670523Y323957D01*
X671432Y323260D01*
X672490Y322821D01*
X673625Y322672D01*
X674761Y322821D01*
X675819Y323260D01*
X676727Y323957D01*
X677425Y324865D01*
X677863Y325923D01*
X678012Y327059D01*
X677863Y328194D01*
X677425Y329253D01*
X676727Y330161D01*
X675819Y330858D01*
X674761Y331297D01*
X673625Y331446D01*
D02*
G37*
G36*
X663625D02*
X662490Y331297D01*
X661432Y330858D01*
X660523Y330161D01*
X659826Y329253D01*
X659388Y328194D01*
X659238Y327059D01*
X659388Y325923D01*
X659826Y324865D01*
X660523Y323957D01*
X661432Y323260D01*
X662490Y322821D01*
X663625Y322672D01*
X664761Y322821D01*
X665819Y323260D01*
X666727Y323957D01*
X667425Y324865D01*
X667863Y325923D01*
X668012Y327059D01*
X667863Y328194D01*
X667425Y329253D01*
X666727Y330161D01*
X665819Y330858D01*
X664761Y331297D01*
X663625Y331446D01*
D02*
G37*
G36*
X653625D02*
X652490Y331297D01*
X651432Y330858D01*
X650523Y330161D01*
X649826Y329253D01*
X649388Y328194D01*
X649238Y327059D01*
X649388Y325923D01*
X649826Y324865D01*
X650523Y323957D01*
X651432Y323260D01*
X652490Y322821D01*
X653625Y322672D01*
X654761Y322821D01*
X655819Y323260D01*
X656727Y323957D01*
X657425Y324865D01*
X657863Y325923D01*
X658012Y327059D01*
X657863Y328194D01*
X657425Y329253D01*
X656727Y330161D01*
X655819Y330858D01*
X654761Y331297D01*
X653625Y331446D01*
D02*
G37*
G36*
X643625D02*
X642490Y331297D01*
X641432Y330858D01*
X640523Y330161D01*
X639826Y329253D01*
X639388Y328194D01*
X639238Y327059D01*
X639388Y325923D01*
X639826Y324865D01*
X640523Y323957D01*
X641432Y323260D01*
X642490Y322821D01*
X643625Y322672D01*
X644761Y322821D01*
X645819Y323260D01*
X646727Y323957D01*
X647425Y324865D01*
X647863Y325923D01*
X648012Y327059D01*
X647863Y328194D01*
X647425Y329253D01*
X646727Y330161D01*
X645819Y330858D01*
X644761Y331297D01*
X643625Y331446D01*
D02*
G37*
G36*
X603625D02*
X602490Y331297D01*
X601432Y330858D01*
X600523Y330161D01*
X599826Y329253D01*
X599388Y328194D01*
X599238Y327059D01*
X599388Y325923D01*
X599826Y324865D01*
X600523Y323957D01*
X601432Y323260D01*
X602490Y322821D01*
X603625Y322672D01*
X604761Y322821D01*
X605819Y323260D01*
X606727Y323957D01*
X607425Y324865D01*
X607863Y325923D01*
X608012Y327059D01*
X607863Y328194D01*
X607425Y329253D01*
X606727Y330161D01*
X605819Y330858D01*
X604761Y331297D01*
X603625Y331446D01*
D02*
G37*
G36*
X593625D02*
X592490Y331297D01*
X591432Y330858D01*
X590523Y330161D01*
X589826Y329253D01*
X589388Y328194D01*
X589238Y327059D01*
X589388Y325923D01*
X589826Y324865D01*
X590523Y323957D01*
X591432Y323260D01*
X592490Y322821D01*
X593625Y322672D01*
X594761Y322821D01*
X595819Y323260D01*
X596727Y323957D01*
X597425Y324865D01*
X597863Y325923D01*
X598012Y327059D01*
X597863Y328194D01*
X597425Y329253D01*
X596727Y330161D01*
X595819Y330858D01*
X594761Y331297D01*
X593625Y331446D01*
D02*
G37*
G36*
X583625D02*
X582490Y331297D01*
X581432Y330858D01*
X580523Y330161D01*
X579826Y329253D01*
X579388Y328194D01*
X579238Y327059D01*
X579388Y325923D01*
X579826Y324865D01*
X580523Y323957D01*
X581432Y323260D01*
X582490Y322821D01*
X583625Y322672D01*
X584761Y322821D01*
X585819Y323260D01*
X586727Y323957D01*
X587425Y324865D01*
X587863Y325923D01*
X588012Y327059D01*
X587863Y328194D01*
X587425Y329253D01*
X586727Y330161D01*
X585819Y330858D01*
X584761Y331297D01*
X583625Y331446D01*
D02*
G37*
G36*
X573625D02*
X572490Y331297D01*
X571432Y330858D01*
X570523Y330161D01*
X569826Y329253D01*
X569388Y328194D01*
X569238Y327059D01*
X569388Y325923D01*
X569826Y324865D01*
X570523Y323957D01*
X571432Y323260D01*
X572490Y322821D01*
X573625Y322672D01*
X574761Y322821D01*
X575819Y323260D01*
X576727Y323957D01*
X577425Y324865D01*
X577863Y325923D01*
X578012Y327059D01*
X577863Y328194D01*
X577425Y329253D01*
X576727Y330161D01*
X575819Y330858D01*
X574761Y331297D01*
X573625Y331446D01*
D02*
G37*
G36*
X553625D02*
X552490Y331297D01*
X551432Y330858D01*
X550523Y330161D01*
X549826Y329253D01*
X549388Y328194D01*
X549238Y327059D01*
X549388Y325923D01*
X549826Y324865D01*
X550523Y323957D01*
X551432Y323260D01*
X552490Y322821D01*
X553625Y322672D01*
X554761Y322821D01*
X555819Y323260D01*
X556727Y323957D01*
X557425Y324865D01*
X557863Y325923D01*
X558012Y327059D01*
X557863Y328194D01*
X557425Y329253D01*
X556727Y330161D01*
X555819Y330858D01*
X554761Y331297D01*
X553625Y331446D01*
D02*
G37*
G36*
X543625D02*
X542490Y331297D01*
X541432Y330858D01*
X540523Y330161D01*
X539826Y329253D01*
X539388Y328194D01*
X539238Y327059D01*
X539388Y325923D01*
X539826Y324865D01*
X540523Y323957D01*
X541432Y323260D01*
X542490Y322821D01*
X543625Y322672D01*
X544761Y322821D01*
X545819Y323260D01*
X546727Y323957D01*
X547425Y324865D01*
X547863Y325923D01*
X548012Y327059D01*
X547863Y328194D01*
X547425Y329253D01*
X546727Y330161D01*
X545819Y330858D01*
X544761Y331297D01*
X543625Y331446D01*
D02*
G37*
G36*
X533625D02*
X532490Y331297D01*
X531432Y330858D01*
X530523Y330161D01*
X529826Y329253D01*
X529388Y328194D01*
X529238Y327059D01*
X529388Y325923D01*
X529826Y324865D01*
X530523Y323957D01*
X531432Y323260D01*
X532490Y322821D01*
X533625Y322672D01*
X534761Y322821D01*
X535819Y323260D01*
X536727Y323957D01*
X537425Y324865D01*
X537863Y325923D01*
X538012Y327059D01*
X537863Y328194D01*
X537425Y329253D01*
X536727Y330161D01*
X535819Y330858D01*
X534761Y331297D01*
X533625Y331446D01*
D02*
G37*
G36*
X388844Y647785D02*
X388217Y647723D01*
X382650D01*
X382181Y647630D01*
X381785Y647365D01*
X379345Y644926D01*
X379080Y644529D01*
X378987Y644061D01*
Y631912D01*
X379080Y631444D01*
X379345Y631047D01*
X381433Y628959D01*
X381830Y628694D01*
X382298Y628601D01*
X397169D01*
X404277Y621493D01*
Y582350D01*
X403150Y581223D01*
X386000D01*
X385532Y581130D01*
X385135Y580865D01*
X380135Y575865D01*
X379870Y575468D01*
X379777Y575000D01*
Y562597D01*
X379870Y562129D01*
X380135Y561732D01*
X385419Y556448D01*
X385816Y556182D01*
X386284Y556089D01*
X414180D01*
X423277Y546993D01*
Y373500D01*
X423370Y373032D01*
X423635Y372635D01*
X433135Y363135D01*
X433532Y362870D01*
X434000Y362776D01*
X607132D01*
X608777Y361132D01*
Y324866D01*
X608870Y324397D01*
X609135Y324001D01*
X610500Y322635D01*
X610897Y322370D01*
X611366Y322276D01*
X616678D01*
X617146Y322370D01*
X617543Y322635D01*
X619585Y324677D01*
X619850Y325074D01*
X619943Y325542D01*
Y373419D01*
X619850Y373887D01*
X619585Y374284D01*
X614297Y379572D01*
X613900Y379837D01*
X613432Y379930D01*
X450340D01*
X446223Y384047D01*
Y641133D01*
X446130Y641601D01*
X445865Y641998D01*
X440470Y647394D01*
X440073Y647659D01*
X439605Y647752D01*
X439462Y647723D01*
X389472D01*
X388844Y647785D01*
D02*
G37*
G36*
X623625Y320740D02*
X622672Y320615D01*
X621785Y320247D01*
X621022Y319662D01*
X620437Y318900D01*
X620069Y318012D01*
X619944Y317059D01*
X620069Y316106D01*
X620437Y315218D01*
X621022Y314456D01*
X621785Y313871D01*
X622672Y313503D01*
X623625Y313378D01*
X624578Y313503D01*
X625466Y313871D01*
X626228Y314456D01*
X626813Y315218D01*
X627181Y316106D01*
X627307Y317059D01*
X627181Y318012D01*
X626813Y318900D01*
X626228Y319662D01*
X625466Y320247D01*
X624578Y320615D01*
X623625Y320740D01*
D02*
G37*
G36*
X537975Y321409D02*
X529276D01*
Y312709D01*
X537975D01*
Y321409D01*
D02*
G37*
G36*
X713625Y321446D02*
X712490Y321297D01*
X711432Y320858D01*
X710523Y320161D01*
X709826Y319253D01*
X709388Y318195D01*
X709238Y317059D01*
X709388Y315924D01*
X709826Y314865D01*
X710523Y313957D01*
X711432Y313260D01*
X712490Y312821D01*
X713625Y312672D01*
X714761Y312821D01*
X715819Y313260D01*
X716727Y313957D01*
X717425Y314865D01*
X717863Y315924D01*
X718012Y317059D01*
X717863Y318195D01*
X717425Y319253D01*
X716727Y320161D01*
X715819Y320858D01*
X714761Y321297D01*
X713625Y321446D01*
D02*
G37*
G36*
X703625D02*
X702490Y321297D01*
X701432Y320858D01*
X700523Y320161D01*
X699826Y319253D01*
X699388Y318195D01*
X699238Y317059D01*
X699388Y315924D01*
X699826Y314865D01*
X700523Y313957D01*
X701432Y313260D01*
X702490Y312821D01*
X703625Y312672D01*
X704761Y312821D01*
X705819Y313260D01*
X706727Y313957D01*
X707425Y314865D01*
X707863Y315924D01*
X708012Y317059D01*
X707863Y318195D01*
X707425Y319253D01*
X706727Y320161D01*
X705819Y320858D01*
X704761Y321297D01*
X703625Y321446D01*
D02*
G37*
G36*
X693625D02*
X692490Y321297D01*
X691432Y320858D01*
X690523Y320161D01*
X689826Y319253D01*
X689388Y318195D01*
X689238Y317059D01*
X689388Y315924D01*
X689826Y314865D01*
X690523Y313957D01*
X691432Y313260D01*
X692490Y312821D01*
X693625Y312672D01*
X694761Y312821D01*
X695819Y313260D01*
X696727Y313957D01*
X697425Y314865D01*
X697863Y315924D01*
X698012Y317059D01*
X697863Y318195D01*
X697425Y319253D01*
X696727Y320161D01*
X695819Y320858D01*
X694761Y321297D01*
X693625Y321446D01*
D02*
G37*
G36*
X683625D02*
X682490Y321297D01*
X681432Y320858D01*
X680523Y320161D01*
X679826Y319253D01*
X679388Y318195D01*
X679238Y317059D01*
X679388Y315924D01*
X679826Y314865D01*
X680523Y313957D01*
X681432Y313260D01*
X682490Y312821D01*
X683625Y312672D01*
X684761Y312821D01*
X685819Y313260D01*
X686727Y313957D01*
X687425Y314865D01*
X687863Y315924D01*
X688012Y317059D01*
X687863Y318195D01*
X687425Y319253D01*
X686727Y320161D01*
X685819Y320858D01*
X684761Y321297D01*
X683625Y321446D01*
D02*
G37*
G36*
X673625D02*
X672490Y321297D01*
X671432Y320858D01*
X670523Y320161D01*
X669826Y319253D01*
X669388Y318195D01*
X669238Y317059D01*
X669388Y315924D01*
X669826Y314865D01*
X670523Y313957D01*
X671432Y313260D01*
X672490Y312821D01*
X673625Y312672D01*
X674761Y312821D01*
X675819Y313260D01*
X676727Y313957D01*
X677425Y314865D01*
X677863Y315924D01*
X678012Y317059D01*
X677863Y318195D01*
X677425Y319253D01*
X676727Y320161D01*
X675819Y320858D01*
X674761Y321297D01*
X673625Y321446D01*
D02*
G37*
G36*
X663625D02*
X662490Y321297D01*
X661432Y320858D01*
X660523Y320161D01*
X659826Y319253D01*
X659388Y318195D01*
X659238Y317059D01*
X659388Y315924D01*
X659826Y314865D01*
X660523Y313957D01*
X661432Y313260D01*
X662490Y312821D01*
X663625Y312672D01*
X664761Y312821D01*
X665819Y313260D01*
X666727Y313957D01*
X667425Y314865D01*
X667863Y315924D01*
X668012Y317059D01*
X667863Y318195D01*
X667425Y319253D01*
X666727Y320161D01*
X665819Y320858D01*
X664761Y321297D01*
X663625Y321446D01*
D02*
G37*
G36*
X653625D02*
X652490Y321297D01*
X651432Y320858D01*
X650523Y320161D01*
X649826Y319253D01*
X649388Y318195D01*
X649238Y317059D01*
X649388Y315924D01*
X649826Y314865D01*
X650523Y313957D01*
X651432Y313260D01*
X652490Y312821D01*
X653625Y312672D01*
X654761Y312821D01*
X655819Y313260D01*
X656727Y313957D01*
X657425Y314865D01*
X657863Y315924D01*
X658012Y317059D01*
X657863Y318195D01*
X657425Y319253D01*
X656727Y320161D01*
X655819Y320858D01*
X654761Y321297D01*
X653625Y321446D01*
D02*
G37*
G36*
X643625D02*
X642490Y321297D01*
X641432Y320858D01*
X640523Y320161D01*
X639826Y319253D01*
X639388Y318195D01*
X639238Y317059D01*
X639388Y315924D01*
X639826Y314865D01*
X640523Y313957D01*
X641432Y313260D01*
X642490Y312821D01*
X643625Y312672D01*
X644761Y312821D01*
X645819Y313260D01*
X646727Y313957D01*
X647425Y314865D01*
X647863Y315924D01*
X648012Y317059D01*
X647863Y318195D01*
X647425Y319253D01*
X646727Y320161D01*
X645819Y320858D01*
X644761Y321297D01*
X643625Y321446D01*
D02*
G37*
G36*
X633625D02*
X632490Y321297D01*
X631432Y320858D01*
X630523Y320161D01*
X629826Y319253D01*
X629388Y318195D01*
X629238Y317059D01*
X629388Y315924D01*
X629826Y314865D01*
X630523Y313957D01*
X631432Y313260D01*
X632490Y312821D01*
X633625Y312672D01*
X634761Y312821D01*
X635819Y313260D01*
X636727Y313957D01*
X637425Y314865D01*
X637863Y315924D01*
X638012Y317059D01*
X637863Y318195D01*
X637425Y319253D01*
X636727Y320161D01*
X635819Y320858D01*
X634761Y321297D01*
X633625Y321446D01*
D02*
G37*
G36*
X613625D02*
X612490Y321297D01*
X611432Y320858D01*
X610523Y320161D01*
X609826Y319253D01*
X609388Y318195D01*
X609238Y317059D01*
X609388Y315924D01*
X609826Y314865D01*
X610523Y313957D01*
X611432Y313260D01*
X612490Y312821D01*
X613625Y312672D01*
X614761Y312821D01*
X615819Y313260D01*
X616727Y313957D01*
X617425Y314865D01*
X617863Y315924D01*
X618012Y317059D01*
X617863Y318195D01*
X617425Y319253D01*
X616727Y320161D01*
X615819Y320858D01*
X614761Y321297D01*
X613625Y321446D01*
D02*
G37*
G36*
X603625D02*
X602490Y321297D01*
X601432Y320858D01*
X600523Y320161D01*
X599826Y319253D01*
X599388Y318195D01*
X599238Y317059D01*
X599388Y315924D01*
X599826Y314865D01*
X600523Y313957D01*
X601432Y313260D01*
X602490Y312821D01*
X603625Y312672D01*
X604761Y312821D01*
X605819Y313260D01*
X606727Y313957D01*
X607425Y314865D01*
X607863Y315924D01*
X608012Y317059D01*
X607863Y318195D01*
X607425Y319253D01*
X606727Y320161D01*
X605819Y320858D01*
X604761Y321297D01*
X603625Y321446D01*
D02*
G37*
G36*
X593625D02*
X592490Y321297D01*
X591432Y320858D01*
X590523Y320161D01*
X589826Y319253D01*
X589388Y318195D01*
X589238Y317059D01*
X589388Y315924D01*
X589826Y314865D01*
X590523Y313957D01*
X591432Y313260D01*
X592490Y312821D01*
X593625Y312672D01*
X594761Y312821D01*
X595819Y313260D01*
X596727Y313957D01*
X597425Y314865D01*
X597863Y315924D01*
X598012Y317059D01*
X597863Y318195D01*
X597425Y319253D01*
X596727Y320161D01*
X595819Y320858D01*
X594761Y321297D01*
X593625Y321446D01*
D02*
G37*
G36*
X583625D02*
X582490Y321297D01*
X581432Y320858D01*
X580523Y320161D01*
X579826Y319253D01*
X579388Y318195D01*
X579238Y317059D01*
X579388Y315924D01*
X579826Y314865D01*
X580523Y313957D01*
X581432Y313260D01*
X582490Y312821D01*
X583625Y312672D01*
X584761Y312821D01*
X585819Y313260D01*
X586727Y313957D01*
X587425Y314865D01*
X587863Y315924D01*
X588012Y317059D01*
X587863Y318195D01*
X587425Y319253D01*
X586727Y320161D01*
X585819Y320858D01*
X584761Y321297D01*
X583625Y321446D01*
D02*
G37*
G36*
X573625D02*
X572490Y321297D01*
X571432Y320858D01*
X570523Y320161D01*
X569826Y319253D01*
X569388Y318195D01*
X569238Y317059D01*
X569388Y315924D01*
X569826Y314865D01*
X570523Y313957D01*
X571432Y313260D01*
X572490Y312821D01*
X573625Y312672D01*
X574761Y312821D01*
X575819Y313260D01*
X576727Y313957D01*
X577425Y314865D01*
X577863Y315924D01*
X578012Y317059D01*
X577863Y318195D01*
X577425Y319253D01*
X576727Y320161D01*
X575819Y320858D01*
X574761Y321297D01*
X573625Y321446D01*
D02*
G37*
G36*
X563625D02*
X562490Y321297D01*
X561432Y320858D01*
X560523Y320161D01*
X559826Y319253D01*
X559388Y318195D01*
X559238Y317059D01*
X559388Y315924D01*
X559826Y314865D01*
X560523Y313957D01*
X561432Y313260D01*
X562490Y312821D01*
X563625Y312672D01*
X564761Y312821D01*
X565819Y313260D01*
X566727Y313957D01*
X567425Y314865D01*
X567863Y315924D01*
X568012Y317059D01*
X567863Y318195D01*
X567425Y319253D01*
X566727Y320161D01*
X565819Y320858D01*
X564761Y321297D01*
X563625Y321446D01*
D02*
G37*
G36*
X553625D02*
X552490Y321297D01*
X551432Y320858D01*
X550523Y320161D01*
X549826Y319253D01*
X549388Y318195D01*
X549238Y317059D01*
X549388Y315924D01*
X549826Y314865D01*
X550523Y313957D01*
X551432Y313260D01*
X552490Y312821D01*
X553625Y312672D01*
X554761Y312821D01*
X555819Y313260D01*
X556727Y313957D01*
X557425Y314865D01*
X557863Y315924D01*
X558012Y317059D01*
X557863Y318195D01*
X557425Y319253D01*
X556727Y320161D01*
X555819Y320858D01*
X554761Y321297D01*
X553625Y321446D01*
D02*
G37*
G36*
X543625D02*
X542490Y321297D01*
X541432Y320858D01*
X540523Y320161D01*
X539826Y319253D01*
X539388Y318195D01*
X539238Y317059D01*
X539388Y315924D01*
X539826Y314865D01*
X540523Y313957D01*
X541432Y313260D01*
X542490Y312821D01*
X543625Y312672D01*
X544761Y312821D01*
X545819Y313260D01*
X546727Y313957D01*
X547425Y314865D01*
X547863Y315924D01*
X548012Y317059D01*
X547863Y318195D01*
X547425Y319253D01*
X546727Y320161D01*
X545819Y320858D01*
X544761Y321297D01*
X543625Y321446D01*
D02*
G37*
G36*
X723625Y289318D02*
X722039Y289162D01*
X720514Y288699D01*
X719108Y287948D01*
X717877Y286937D01*
X716866Y285705D01*
X716115Y284300D01*
X715652Y282775D01*
X715496Y281189D01*
X715652Y279603D01*
X716115Y278078D01*
X716866Y276673D01*
X717877Y275441D01*
X719108Y274430D01*
X720514Y273679D01*
X722039Y273217D01*
X723625Y273060D01*
X725211Y273217D01*
X726735Y273679D01*
X728141Y274430D01*
X729373Y275441D01*
X730383Y276673D01*
X731135Y278078D01*
X731597Y279603D01*
X731753Y281189D01*
X731597Y282775D01*
X731135Y284300D01*
X730383Y285705D01*
X729373Y286937D01*
X728141Y287948D01*
X726735Y288699D01*
X725211Y289162D01*
X723625Y289318D01*
D02*
G37*
G36*
X631494D02*
X629908Y289162D01*
X628383Y288699D01*
X626977Y287948D01*
X625746Y286937D01*
X624735Y285705D01*
X623984Y284300D01*
X623521Y282775D01*
X623365Y281189D01*
X623521Y279603D01*
X623984Y278078D01*
X624735Y276673D01*
X625746Y275441D01*
X626977Y274430D01*
X628383Y273679D01*
X629908Y273217D01*
X631494Y273060D01*
X633080Y273217D01*
X634605Y273679D01*
X636010Y274430D01*
X637242Y275441D01*
X638253Y276673D01*
X639004Y278078D01*
X639466Y279603D01*
X639623Y281189D01*
X639466Y282775D01*
X639004Y284300D01*
X638253Y285705D01*
X637242Y286937D01*
X636010Y287948D01*
X634605Y288699D01*
X633080Y289162D01*
X631494Y289318D01*
D02*
G37*
G36*
X402370D02*
X400784Y289162D01*
X399259Y288699D01*
X397853Y287948D01*
X396622Y286937D01*
X395611Y285705D01*
X394860Y284300D01*
X394397Y282775D01*
X394241Y281189D01*
X394397Y279603D01*
X394860Y278078D01*
X395611Y276673D01*
X396622Y275441D01*
X397853Y274430D01*
X399259Y273679D01*
X400784Y273217D01*
X402370Y273060D01*
X403956Y273217D01*
X405480Y273679D01*
X406886Y274430D01*
X408118Y275441D01*
X409129Y276673D01*
X409880Y278078D01*
X410342Y279603D01*
X410499Y281189D01*
X410342Y282775D01*
X409880Y284300D01*
X409129Y285705D01*
X408118Y286937D01*
X406886Y287948D01*
X405480Y288699D01*
X403956Y289162D01*
X402370Y289318D01*
D02*
G37*
%LPD*%
G36*
X660310Y527054D02*
Y522465D01*
Y512468D01*
Y506997D01*
X654537Y501225D01*
X628219D01*
X621151Y508292D01*
Y508349D01*
Y519678D01*
Y529607D01*
X624860Y533316D01*
X654048D01*
X660310Y527054D01*
D02*
G37*
G36*
X403500Y400730D02*
Y347113D01*
X402506Y346120D01*
X382188D01*
X382103Y346205D01*
X379306Y349002D01*
X379221Y349087D01*
Y349207D01*
Y355300D01*
Y355421D01*
X392070Y368270D01*
Y382809D01*
X390540Y384339D01*
X390199Y384680D01*
Y400010D01*
X391485Y401296D01*
X391985Y401796D01*
X392070Y401881D01*
X402349D01*
X403500Y400730D01*
D02*
G37*
G36*
X445000Y641133D02*
Y383590D01*
X444975Y383565D01*
X449833Y378707D01*
X613432D01*
X618720Y373419D01*
Y325542D01*
X616678Y323500D01*
X611366D01*
X610000Y324866D01*
Y361638D01*
X607639Y364000D01*
X434000D01*
X424500Y373500D01*
Y547500D01*
X414687Y557313D01*
X386284D01*
X381000Y562597D01*
Y575000D01*
X386000Y580000D01*
X403657D01*
X405500Y581843D01*
Y622000D01*
X397676Y629824D01*
X382298D01*
X380210Y631912D01*
Y644061D01*
X382650Y646500D01*
X439576D01*
X439605Y646528D01*
X445000Y641133D01*
D02*
G37*
D17*
X384389Y396358D02*
D03*
X393445D02*
D03*
D18*
X386009Y386229D02*
D03*
X393016D02*
D03*
D19*
X623090Y516520D02*
D03*
X616082D02*
D03*
D20*
X644884Y517410D02*
D03*
D37*
X380929Y396358D02*
X384389D01*
X378424Y398013D02*
X382735D01*
X378424Y394076D02*
X382106D01*
X382735Y398013D02*
X384389Y396358D01*
Y401309D01*
X382106Y394076D02*
X384389Y396358D01*
X386009Y381318D02*
Y386229D01*
X379145D02*
X386009D01*
X378424Y386950D02*
X379145Y386229D01*
X655550Y651685D02*
Y655535D01*
Y659384D01*
X651701Y655535D02*
X655550D01*
X659400D01*
X633625Y323209D02*
Y327059D01*
Y330909D01*
X629775Y327059D02*
X633625D01*
X637475D01*
X623625Y313209D02*
Y317059D01*
Y320909D01*
X619775Y317059D02*
X623625D01*
X627475D01*
X489478Y656235D02*
Y660380D01*
Y664525D01*
X485333Y660380D02*
X489478D01*
X493624D01*
X616082Y513163D02*
Y516520D01*
Y519878D01*
X613531Y516520D02*
X616082D01*
X618633D01*
X563625Y323209D02*
Y327059D01*
Y330909D01*
X559775Y327059D02*
X563625D01*
X567475D01*
X388844Y616723D02*
Y622147D01*
Y627572D01*
X383420Y622147D02*
X388844D01*
X394269D01*
X623625Y323209D02*
Y327059D01*
Y330909D01*
Y327059D02*
X627475D01*
X385369Y332250D02*
Y337084D01*
Y341918D01*
X380535Y337084D02*
X385369D01*
X390203D01*
X623090Y513163D02*
Y516520D01*
Y519878D01*
Y516520D02*
X625641D01*
X644884Y504898D02*
Y517410D01*
Y529921D01*
X632373Y517410D02*
X644884D01*
X657396D01*
D38*
X626510Y643162D02*
X654137Y615535D01*
X655550D01*
X578224Y572460D02*
X583625Y567059D01*
X578224Y572460D02*
Y646165D01*
X575134Y649255D02*
X578224Y646165D01*
X483321Y649255D02*
X575134D01*
X479603Y652972D02*
X483321Y649255D01*
X479603Y652972D02*
Y660255D01*
X479478Y660380D02*
X479603Y660255D01*
X583625Y567059D02*
X593625D01*
X603625D01*
D39*
X644884Y517410D02*
D03*
X613607Y674890D02*
D03*
X644873Y674724D02*
D03*
X402370Y281189D02*
D03*
X631494D02*
D03*
X723625D02*
D03*
D40*
X599609Y592213D02*
D03*
D41*
X655550Y605535D02*
D03*
Y655535D02*
D03*
Y635535D02*
D03*
Y615535D02*
D03*
Y645535D02*
D03*
Y625535D02*
D03*
X593625Y317059D02*
D03*
X603625D02*
D03*
X573625Y327059D02*
D03*
X583625Y317059D02*
D03*
Y327059D02*
D03*
X613625Y317059D02*
D03*
X533625Y327059D02*
D03*
X633625Y317059D02*
D03*
X643625D02*
D03*
Y327059D02*
D03*
X653625Y317059D02*
D03*
Y327059D02*
D03*
X663625Y317059D02*
D03*
Y327059D02*
D03*
X673625Y317059D02*
D03*
X543625D02*
D03*
X683625D02*
D03*
Y327059D02*
D03*
X693625Y317059D02*
D03*
Y327059D02*
D03*
X703625D02*
D03*
X713625Y317059D02*
D03*
X543625Y327059D02*
D03*
X553625Y317059D02*
D03*
Y327059D02*
D03*
X563625Y317059D02*
D03*
X573625D02*
D03*
X533625Y557059D02*
D03*
Y567059D02*
D03*
X543625Y557059D02*
D03*
Y567059D02*
D03*
X553625Y557059D02*
D03*
X563625D02*
D03*
Y567059D02*
D03*
X573625Y557059D02*
D03*
Y567059D02*
D03*
X583625Y557059D02*
D03*
X593625D02*
D03*
X603625D02*
D03*
X613625D02*
D03*
X623625D02*
D03*
Y567059D02*
D03*
X633625Y557059D02*
D03*
Y567059D02*
D03*
X643625Y557059D02*
D03*
Y567059D02*
D03*
X653625D02*
D03*
X663625Y557059D02*
D03*
Y567059D02*
D03*
X673625Y557059D02*
D03*
Y567059D02*
D03*
X683625Y557059D02*
D03*
Y567059D02*
D03*
X693625Y557059D02*
D03*
Y567059D02*
D03*
X703625Y557059D02*
D03*
Y567059D02*
D03*
X713625Y557059D02*
D03*
Y567059D02*
D03*
X593625D02*
D03*
X603625D02*
D03*
X583625D02*
D03*
X613625D02*
D03*
X653625Y557059D02*
D03*
X613625Y327059D02*
D03*
X713625D02*
D03*
X603625D02*
D03*
X593625D02*
D03*
X703625Y317059D02*
D03*
X673625Y327059D02*
D03*
X553625Y567059D02*
D03*
X633625Y327059D02*
D03*
X623625D02*
D03*
Y317059D02*
D03*
X563625Y327059D02*
D03*
D42*
X389176Y534529D02*
D03*
Y573899D02*
D03*
D43*
X385369Y352084D02*
D03*
Y337084D02*
D03*
D44*
X533625Y317059D02*
D03*
D45*
X388844Y641832D02*
D03*
Y622147D02*
D03*
D46*
X626510Y643162D02*
D03*
D47*
Y623477D02*
D03*
D48*
X459478Y600380D02*
D03*
D49*
X499478Y660380D02*
D03*
X509478Y600380D02*
D03*
Y660380D02*
D03*
X519478Y600380D02*
D03*
Y660380D02*
D03*
X529478Y600380D02*
D03*
Y660380D02*
D03*
X539478Y600380D02*
D03*
Y660380D02*
D03*
X549478Y600380D02*
D03*
X559478D02*
D03*
Y660380D02*
D03*
X569478Y600380D02*
D03*
Y660380D02*
D03*
X469478D02*
D03*
X489478Y600380D02*
D03*
X499478D02*
D03*
X459478Y660380D02*
D03*
X489478D02*
D03*
X549478D02*
D03*
X479478Y600380D02*
D03*
Y660380D02*
D03*
X469478Y600380D02*
D03*
D50*
X378424Y398013D02*
D03*
Y394076D02*
D03*
X604805Y359473D02*
D03*
X600635Y355168D02*
D03*
X616234Y510715D02*
D03*
X616430Y521918D02*
D03*
X612198Y516415D02*
D03*
X615970Y532705D02*
D03*
X600970D02*
D03*
Y517705D02*
D03*
X585970Y532705D02*
D03*
Y517705D02*
D03*
X563724Y549267D02*
D03*
X555970Y532705D02*
D03*
X659209Y630543D02*
D03*
X647541Y641311D02*
D03*
X646906Y619540D02*
D03*
X720970Y592705D02*
D03*
X705970D02*
D03*
Y607705D02*
D03*
X675970Y592705D02*
D03*
X690970D02*
D03*
X675970Y607705D02*
D03*
X690970D02*
D03*
X563724Y575165D02*
D03*
X720970Y532705D02*
D03*
X705970D02*
D03*
X690970D02*
D03*
X570970D02*
D03*
X720970Y517705D02*
D03*
X705970D02*
D03*
X690970D02*
D03*
X570970D02*
D03*
X720970Y502705D02*
D03*
X705970D02*
D03*
X690970D02*
D03*
X825970Y682705D02*
D03*
X810970D02*
D03*
X795970D02*
D03*
X780970D02*
D03*
X765970D02*
D03*
X735970D02*
D03*
X750970D02*
D03*
X720970D02*
D03*
X705970D02*
D03*
X690970D02*
D03*
X675970D02*
D03*
X660970D02*
D03*
X600970D02*
D03*
X570970D02*
D03*
X585970D02*
D03*
X555970D02*
D03*
X540970D02*
D03*
X510970D02*
D03*
X525970D02*
D03*
X495970D02*
D03*
X480970D02*
D03*
X450970D02*
D03*
X465970D02*
D03*
X435970D02*
D03*
X420970D02*
D03*
X390970D02*
D03*
X405970D02*
D03*
X825970Y652705D02*
D03*
Y667705D02*
D03*
X795970Y652705D02*
D03*
X810970D02*
D03*
X795970Y667705D02*
D03*
X810970D02*
D03*
X780970Y652705D02*
D03*
Y667705D02*
D03*
X765970Y652705D02*
D03*
Y667705D02*
D03*
X735970Y652705D02*
D03*
X750970D02*
D03*
X735970Y667705D02*
D03*
X750970D02*
D03*
X720970Y652705D02*
D03*
Y667705D02*
D03*
X705970D02*
D03*
X675970Y652705D02*
D03*
X690970D02*
D03*
X675970Y667705D02*
D03*
X690970D02*
D03*
X825970Y637705D02*
D03*
X795970D02*
D03*
X810970D02*
D03*
X780970D02*
D03*
X765970D02*
D03*
X735970D02*
D03*
X750970D02*
D03*
X705970D02*
D03*
X675970D02*
D03*
X573286Y645150D02*
D03*
X588286D02*
D03*
X558286D02*
D03*
X543286D02*
D03*
X825970Y622705D02*
D03*
X795970D02*
D03*
X810970D02*
D03*
X780970D02*
D03*
X765970D02*
D03*
X750970D02*
D03*
X720970D02*
D03*
X675970D02*
D03*
X690970D02*
D03*
X573286Y630150D02*
D03*
X588286D02*
D03*
X573286Y615150D02*
D03*
X558286Y630150D02*
D03*
Y615150D02*
D03*
X543286Y630150D02*
D03*
Y615150D02*
D03*
X825970Y592705D02*
D03*
Y607705D02*
D03*
X795970Y592705D02*
D03*
X810970D02*
D03*
X795970Y607705D02*
D03*
X810970D02*
D03*
X780970Y592705D02*
D03*
Y607705D02*
D03*
X765970Y592705D02*
D03*
Y607705D02*
D03*
X735970Y592705D02*
D03*
X750970D02*
D03*
X735970Y607705D02*
D03*
X750970D02*
D03*
X825970Y577705D02*
D03*
X810970D02*
D03*
X795970D02*
D03*
X780970D02*
D03*
X765970D02*
D03*
X750970D02*
D03*
X510970D02*
D03*
X495970D02*
D03*
X465970D02*
D03*
X825970Y562705D02*
D03*
X810970D02*
D03*
X795970D02*
D03*
X780970D02*
D03*
X765970D02*
D03*
X750970D02*
D03*
X510970D02*
D03*
X495970D02*
D03*
X465970D02*
D03*
X825970Y532705D02*
D03*
Y547705D02*
D03*
X810970Y532705D02*
D03*
X795970D02*
D03*
X810970Y547705D02*
D03*
X795970D02*
D03*
X780970Y532705D02*
D03*
Y547705D02*
D03*
X765970Y532705D02*
D03*
Y547705D02*
D03*
X735970Y532705D02*
D03*
X750970D02*
D03*
Y547705D02*
D03*
X540970Y532705D02*
D03*
X510970D02*
D03*
X525970D02*
D03*
X510970Y547705D02*
D03*
X495970Y532705D02*
D03*
Y547705D02*
D03*
X465970Y532705D02*
D03*
Y547705D02*
D03*
X825970Y517705D02*
D03*
X810970D02*
D03*
X795970D02*
D03*
X780970D02*
D03*
X765970D02*
D03*
X735970D02*
D03*
X750970D02*
D03*
X510970D02*
D03*
X525970D02*
D03*
X495970D02*
D03*
X465970D02*
D03*
X825970Y502705D02*
D03*
X810970D02*
D03*
X795970D02*
D03*
X780970D02*
D03*
X765970D02*
D03*
X735970D02*
D03*
X750970D02*
D03*
X570500Y502200D02*
D03*
X555970Y502705D02*
D03*
X540970D02*
D03*
X510970D02*
D03*
X525970D02*
D03*
X495970D02*
D03*
X465970D02*
D03*
X378424Y506950D02*
D03*
Y491950D02*
D03*
X825970Y472705D02*
D03*
Y487705D02*
D03*
X810970Y472705D02*
D03*
X795970D02*
D03*
X810970Y487705D02*
D03*
X795970D02*
D03*
X780970Y472705D02*
D03*
Y487705D02*
D03*
X765970Y472705D02*
D03*
Y487705D02*
D03*
X735970Y472705D02*
D03*
X750970D02*
D03*
X735970Y487705D02*
D03*
X750970D02*
D03*
X570970Y472705D02*
D03*
Y487705D02*
D03*
X555970Y472705D02*
D03*
Y487705D02*
D03*
X540970Y472705D02*
D03*
Y487705D02*
D03*
X510970Y472705D02*
D03*
X525970D02*
D03*
X510970Y487705D02*
D03*
X525970D02*
D03*
X495970Y472705D02*
D03*
Y487705D02*
D03*
X465970Y472705D02*
D03*
Y487705D02*
D03*
X378424Y476950D02*
D03*
X825970Y457705D02*
D03*
X810970D02*
D03*
X795970D02*
D03*
X780970D02*
D03*
X765970D02*
D03*
X735970D02*
D03*
X750970D02*
D03*
X570970D02*
D03*
X555970D02*
D03*
X540970D02*
D03*
X510970D02*
D03*
X525970D02*
D03*
X495970D02*
D03*
X465970D02*
D03*
X378424Y461950D02*
D03*
X825970Y442705D02*
D03*
X810970D02*
D03*
X795970D02*
D03*
X780970D02*
D03*
X765970D02*
D03*
X735970D02*
D03*
X750970D02*
D03*
X570970D02*
D03*
X555970D02*
D03*
X540970D02*
D03*
X510970D02*
D03*
X525970D02*
D03*
X495970D02*
D03*
X465970D02*
D03*
X378424Y431950D02*
D03*
Y446950D02*
D03*
X825970Y412705D02*
D03*
Y427705D02*
D03*
X810970Y412705D02*
D03*
X795970D02*
D03*
X810970Y427705D02*
D03*
X795970D02*
D03*
X780970Y412705D02*
D03*
Y427705D02*
D03*
X765970Y412705D02*
D03*
Y427705D02*
D03*
X735970Y412705D02*
D03*
X750970D02*
D03*
X735970Y427705D02*
D03*
X750970D02*
D03*
X570970Y412705D02*
D03*
Y427705D02*
D03*
X555970Y412705D02*
D03*
Y427705D02*
D03*
X540970Y412705D02*
D03*
Y427705D02*
D03*
X510970Y412705D02*
D03*
X525970D02*
D03*
X510970Y427705D02*
D03*
X525970D02*
D03*
X495970Y412705D02*
D03*
Y427705D02*
D03*
X465970Y412705D02*
D03*
Y427705D02*
D03*
X378424Y416950D02*
D03*
X825970Y397705D02*
D03*
X810970D02*
D03*
X795970D02*
D03*
X780970D02*
D03*
X765970D02*
D03*
X735970D02*
D03*
X750970D02*
D03*
X570970D02*
D03*
X555970D02*
D03*
X540970D02*
D03*
X510970D02*
D03*
X525970D02*
D03*
X495970D02*
D03*
X465970D02*
D03*
X378424Y390139D02*
D03*
Y401950D02*
D03*
X825970Y367705D02*
D03*
Y382705D02*
D03*
X810970Y367705D02*
D03*
X795970D02*
D03*
X810970Y382705D02*
D03*
X795970D02*
D03*
X780970Y367705D02*
D03*
Y382705D02*
D03*
X765970Y367705D02*
D03*
Y382705D02*
D03*
X735970D02*
D03*
Y367705D02*
D03*
X750970D02*
D03*
Y382705D02*
D03*
X720970Y367705D02*
D03*
X570970Y382705D02*
D03*
X555970D02*
D03*
X540970D02*
D03*
X510970D02*
D03*
X525970D02*
D03*
X495970D02*
D03*
X465970D02*
D03*
X378424Y371950D02*
D03*
X825970Y352705D02*
D03*
X810970D02*
D03*
X795970D02*
D03*
X780970D02*
D03*
X765970D02*
D03*
X735970D02*
D03*
X750970D02*
D03*
X720970D02*
D03*
X705970D02*
D03*
X690970D02*
D03*
X418452Y357024D02*
D03*
Y349150D02*
D03*
Y364898D02*
D03*
X825970Y337705D02*
D03*
X810970D02*
D03*
X795970D02*
D03*
X780970D02*
D03*
X765970D02*
D03*
X735970D02*
D03*
X750970D02*
D03*
X720970D02*
D03*
X705970D02*
D03*
X675970D02*
D03*
X690970D02*
D03*
X660970D02*
D03*
X645970D02*
D03*
X630970D02*
D03*
X599400Y340500D02*
D03*
X510970Y337705D02*
D03*
X480970D02*
D03*
X450970D02*
D03*
X465970D02*
D03*
X435970D02*
D03*
X420970D02*
D03*
X378424Y386950D02*
D03*
X664855Y340345D02*
D03*
X656489D02*
D03*
X418452Y345213D02*
D03*
Y353087D02*
D03*
Y360961D02*
D03*
Y368835D02*
D03*
X405970Y337705D02*
D03*
X825970Y307705D02*
D03*
Y322705D02*
D03*
X810970Y307705D02*
D03*
X795970D02*
D03*
X810970Y322705D02*
D03*
X795970D02*
D03*
X780970Y307705D02*
D03*
Y322705D02*
D03*
X765970Y307705D02*
D03*
Y322705D02*
D03*
X750970Y307705D02*
D03*
Y322705D02*
D03*
X495970D02*
D03*
X480970D02*
D03*
X450970D02*
D03*
X465970D02*
D03*
X435970D02*
D03*
X420970D02*
D03*
X405970D02*
D03*
X825970Y292705D02*
D03*
X810970D02*
D03*
X795970D02*
D03*
X780970D02*
D03*
X765970D02*
D03*
X750970D02*
D03*
X675970D02*
D03*
X690970D02*
D03*
X660970D02*
D03*
X825970Y277705D02*
D03*
X810970D02*
D03*
X795970D02*
D03*
X780970D02*
D03*
X765970D02*
D03*
X750970D02*
D03*
X675970D02*
D03*
X690970D02*
D03*
X660970D02*
D03*
X720970Y472705D02*
D03*
Y487705D02*
D03*
X705970Y472705D02*
D03*
Y487705D02*
D03*
X675970Y472705D02*
D03*
X690970D02*
D03*
X675970Y487705D02*
D03*
X690970D02*
D03*
X660970Y472705D02*
D03*
Y487705D02*
D03*
X645970Y472705D02*
D03*
Y487705D02*
D03*
X615970Y472705D02*
D03*
X630970D02*
D03*
X615970Y487705D02*
D03*
X630970D02*
D03*
X600970Y472705D02*
D03*
Y487705D02*
D03*
X720970Y457705D02*
D03*
X705970D02*
D03*
X675970D02*
D03*
X690970D02*
D03*
X660970D02*
D03*
X645970D02*
D03*
X615970D02*
D03*
X630970D02*
D03*
X600970D02*
D03*
X720970Y442705D02*
D03*
X705970D02*
D03*
X675970D02*
D03*
X690970D02*
D03*
X660970D02*
D03*
X645970D02*
D03*
X615970D02*
D03*
X630970D02*
D03*
X600970D02*
D03*
X720970Y412705D02*
D03*
Y427705D02*
D03*
X705970Y412705D02*
D03*
Y427705D02*
D03*
X675970Y412705D02*
D03*
X690970D02*
D03*
X675970Y427705D02*
D03*
X690970D02*
D03*
X660970Y412705D02*
D03*
Y427705D02*
D03*
X645970Y412705D02*
D03*
Y427705D02*
D03*
X615970Y412705D02*
D03*
X630970D02*
D03*
X615970Y427705D02*
D03*
X630970D02*
D03*
X600970Y412705D02*
D03*
Y427705D02*
D03*
X720970Y397705D02*
D03*
X705970D02*
D03*
X675970D02*
D03*
X690970D02*
D03*
X660970D02*
D03*
X645970D02*
D03*
X615970D02*
D03*
X630970D02*
D03*
X600970D02*
D03*
X705970Y382705D02*
D03*
X675970D02*
D03*
X690970D02*
D03*
X660970D02*
D03*
X645970D02*
D03*
X615970D02*
D03*
X630970D02*
D03*
X600970D02*
D03*
X607471Y346140D02*
D03*
M02*
