G04*
G04 #@! TF.GenerationSoftware,Altium Limited,Altium Designer,21.0.9 (235)*
G04*
G04 Layer_Color=8388736*
%FSLAX25Y25*%
%MOIN*%
G70*
G04*
G04 #@! TF.SameCoordinates,20F31B83-B46A-4D4F-BE2C-671A53D897AC*
G04*
G04*
G04 #@! TF.FilePolarity,Positive*
G04*
G01*
G75*
%ADD64C,0.00201*%
%ADD65C,0.00350*%
%ADD66C,0.00354*%
D64*
X393900Y388721D02*
X393402Y389220D01*
X392405D01*
X391906Y388721D01*
Y386727D01*
X392405Y386229D01*
X393402D01*
X393900Y386727D01*
X394897Y388721D02*
X395396Y389220D01*
X396393D01*
X396891Y388721D01*
Y388223D01*
X396393Y387724D01*
X396891Y387226D01*
Y386727D01*
X396393Y386229D01*
X395396D01*
X394897Y386727D01*
Y387226D01*
X395396Y387724D01*
X394897Y388223D01*
Y388721D01*
X395396Y387724D02*
X396393D01*
D65*
X383785Y393443D02*
X384368Y392860D01*
X385534D01*
X386117Y393443D01*
Y395775D01*
X385534Y396358D01*
X384368D01*
X383785Y395775D01*
X382618D02*
X382035Y396358D01*
X380869D01*
X380286Y395775D01*
Y393443D01*
X380869Y392860D01*
X382035D01*
X382618Y393443D01*
Y394026D01*
X382035Y394609D01*
X380286D01*
D66*
X654556Y594105D02*
X652890D01*
X653723D01*
Y589939D01*
X652890Y589106D01*
X652057D01*
X651224Y589939D01*
X656222Y589106D02*
X657888D01*
X657055D01*
Y594105D01*
X656222Y593272D01*
M02*
