G04*
G04 #@! TF.GenerationSoftware,Altium Limited,Altium Designer,21.0.9 (235)*
G04*
G04 Layer_Color=65535*
%FSLAX25Y25*%
%MOIN*%
G70*
G04*
G04 #@! TF.SameCoordinates,A9EE82D5-5453-4621-884F-38B111DD7A68*
G04*
G04*
G04 #@! TF.FilePolarity,Positive*
G04*
G01*
G75*
%ADD10C,0.00984*%
%ADD11C,0.00787*%
%ADD12C,0.00100*%
%ADD13C,0.00512*%
%ADD14C,0.00787*%
%ADD15C,0.03150*%
%ADD16C,0.01000*%
D10*
X380846Y393327D02*
G03*
X382854Y391319I1994J-14D01*
G01*
Y401397D02*
G03*
X380846Y399390I-14J-1994D01*
G01*
X394980Y391319D02*
G03*
X396989Y393327I14J1994D01*
G01*
X396988Y399390D02*
G03*
X394980Y401397I-1994J14D01*
G01*
X380846Y393327D02*
Y399390D01*
X382854Y391319D02*
X394980D01*
X382854Y401397D02*
X394980D01*
X388130Y392854D02*
Y399862D01*
X389704Y392854D02*
Y399862D01*
X388130Y392854D02*
X389704D01*
X396988Y393327D02*
Y399390D01*
X388130Y399862D02*
X389704D01*
X626082Y513017D02*
Y520024D01*
X613090Y513017D02*
X626082D01*
X613090D02*
Y520024D01*
X626082D01*
D11*
X623607Y674890D02*
G03*
X623607Y674890I-10000J0D01*
G01*
X654873Y674724D02*
G03*
X654873Y674724I-10000J0D01*
G01*
X412370Y281189D02*
G03*
X412370Y281189I-10000J0D01*
G01*
X641494D02*
G03*
X641494Y281189I-10000J0D01*
G01*
X733625D02*
G03*
X733625Y281189I-10000J0D01*
G01*
X609609Y592213D02*
G03*
X609609Y592213I-10000J0D01*
G01*
X646198Y633320D02*
G03*
X646198Y633320I-19689J0D01*
G01*
X659026Y517410D02*
G03*
X659026Y517410I-14142J0D01*
G01*
X660472Y677779D02*
X849448D01*
X660472Y583290D02*
Y677779D01*
Y583290D02*
X849448D01*
Y677779D01*
X699842Y583290D02*
Y677779D01*
X650629Y661480D02*
X660472D01*
X650629Y599590D02*
Y661480D01*
Y599590D02*
X660472D01*
X379176Y524529D02*
X399176D01*
Y583427D01*
X379176D02*
X399176D01*
X379176Y524529D02*
Y583427D01*
X353480Y309092D02*
Y380037D01*
X397180D01*
Y309092D02*
Y380037D01*
X353480Y309092D02*
X397180D01*
X405774Y615061D02*
Y648919D01*
X366404Y615061D02*
X405774D01*
X366404D02*
Y648919D01*
X405774D01*
X617848Y612454D02*
Y615603D01*
Y612454D02*
X635171D01*
Y615603D01*
X633596Y614816D02*
X635171D01*
X617848D02*
X619423D01*
X617848Y614028D02*
X622179D01*
X630840D02*
X635171D01*
X617848Y613241D02*
X635171D01*
D12*
X734413Y337531D02*
G03*
X784413Y387531I-0J50000D01*
G01*
Y497374D02*
G03*
X734413Y547374I-49988J12D01*
G01*
X408507Y304264D02*
X733271D01*
X408507D02*
Y579854D01*
X733271D01*
X528507Y337531D02*
X734413D01*
X528507D02*
Y547374D01*
X734413D01*
X733271Y304264D02*
Y579854D01*
X784413Y378831D02*
X821932D01*
X784413D02*
Y406390D01*
Y387531D02*
Y497374D01*
Y406390D02*
X821932D01*
X784413Y478555D02*
X821932D01*
X784413D02*
Y506114D01*
X821932D01*
Y378831D02*
Y406390D01*
Y478555D02*
Y506114D01*
D13*
X383055Y388198D02*
X384551Y389694D01*
X383055Y384260D02*
Y388198D01*
Y384260D02*
X384551Y382764D01*
Y389694D02*
X394474D01*
X395970Y388198D01*
X384551Y382764D02*
X394474D01*
X395970Y384260D02*
Y388198D01*
X394474Y382764D02*
X395970Y384260D01*
D14*
X576998Y592859D02*
Y667900D01*
X425738Y592859D02*
Y615774D01*
Y592859D02*
X576998D01*
X425738Y615774D02*
X439478D01*
X425736Y667900D02*
X576998D01*
X425738Y645774D02*
Y667900D01*
X439478Y615774D02*
Y645774D01*
X425738D02*
X439478D01*
X454006Y665419D02*
X456722D01*
X454006Y654908D02*
Y665419D01*
Y654908D02*
X574754D01*
Y665419D01*
X456722D02*
X574754D01*
X454006Y605419D02*
X456722D01*
X454006Y594908D02*
Y605419D01*
Y594908D02*
X574754D01*
Y605419D01*
X456722D02*
X574754D01*
D15*
X458454Y591443D02*
Y591482D01*
D16*
X387928Y414490D02*
X387666Y415013D01*
X387142Y415537D01*
X386618Y415799D01*
X385571D01*
X385047Y415537D01*
X384524Y415013D01*
X384262Y414490D01*
X384000Y413704D01*
Y412395D01*
X384262Y411609D01*
X384524Y411086D01*
X385047Y410562D01*
X385571Y410300D01*
X386618D01*
X387142Y410562D01*
X387666Y411086D01*
X387928Y411609D01*
X392877Y413966D02*
X392615Y413180D01*
X392091Y412657D01*
X391306Y412395D01*
X391044D01*
X390258Y412657D01*
X389735Y413180D01*
X389473Y413966D01*
Y414228D01*
X389735Y415013D01*
X390258Y415537D01*
X391044Y415799D01*
X391306D01*
X392091Y415537D01*
X392615Y415013D01*
X392877Y413966D01*
Y412657D01*
X392615Y411347D01*
X392091Y410562D01*
X391306Y410300D01*
X390782D01*
X389996Y410562D01*
X389735Y411086D01*
X413157Y644299D02*
X410776D01*
X410538Y642157D01*
X410776Y642395D01*
X411490Y642633D01*
X412204D01*
X412919Y642395D01*
X413395Y641919D01*
X413633Y641204D01*
Y640728D01*
X413395Y640014D01*
X412919Y639538D01*
X412204Y639300D01*
X411490D01*
X410776Y639538D01*
X410538Y639776D01*
X410300Y640252D01*
X414751Y644299D02*
X416656Y639300D01*
X418560Y644299D02*
X416656Y639300D01*
X412671Y623709D02*
X412433Y624185D01*
X411957Y624661D01*
X411480Y624899D01*
X410528D01*
X410052Y624661D01*
X409576Y624185D01*
X409338Y623709D01*
X409100Y622995D01*
Y621804D01*
X409338Y621090D01*
X409576Y620614D01*
X410052Y620138D01*
X410528Y619900D01*
X411480D01*
X411957Y620138D01*
X412433Y620614D01*
X412671Y621090D01*
Y621804D01*
X411480D02*
X412671D01*
X413813Y624899D02*
Y619900D01*
Y624899D02*
X417146Y619900D01*
Y624899D02*
Y619900D01*
X418527Y624899D02*
Y619900D01*
Y624899D02*
X420193D01*
X420907Y624661D01*
X421383Y624185D01*
X421621Y623709D01*
X421859Y622995D01*
Y621804D01*
X421621Y621090D01*
X421383Y620614D01*
X420907Y620138D01*
X420193Y619900D01*
X418527D01*
X388756Y591399D02*
X386376D01*
X386138Y589256D01*
X386376Y589495D01*
X387090Y589733D01*
X387804D01*
X388519Y589495D01*
X388995Y589018D01*
X389233Y588304D01*
Y587828D01*
X388995Y587114D01*
X388519Y586638D01*
X387804Y586400D01*
X387090D01*
X386376Y586638D01*
X386138Y586876D01*
X385900Y587352D01*
X390351Y591399D02*
X392256Y586400D01*
X394160Y591399D02*
X392256Y586400D01*
X387300Y519133D02*
X391965D01*
X389633Y521465D02*
Y516800D01*
X599000Y642933D02*
X603665D01*
X601333Y645265D02*
Y640600D01*
X599300Y623100D02*
X603965D01*
X404130Y331985D02*
X403558Y331699D01*
X402987Y331128D01*
X402701Y330557D01*
Y329414D01*
X402987Y328843D01*
X403558Y328271D01*
X404130Y327986D01*
X404986Y327700D01*
X406415D01*
X407272Y327986D01*
X407843Y328271D01*
X408414Y328843D01*
X408700Y329414D01*
Y330557D01*
X408414Y331128D01*
X407843Y331699D01*
X407272Y331985D01*
X406415D01*
Y330557D02*
Y331985D01*
X402701Y333356D02*
X408700D01*
X402701D02*
X408700Y337355D01*
X402701D02*
X408700D01*
X402701Y339012D02*
X408700D01*
X402701D02*
Y341011D01*
X402987Y341868D01*
X403558Y342440D01*
X404130Y342725D01*
X404986Y343011D01*
X406415D01*
X407272Y342725D01*
X407843Y342440D01*
X408414Y341868D01*
X408700Y341011D01*
Y339012D01*
X403058Y353271D02*
X408200D01*
X405629Y350700D02*
Y355842D01*
X387828Y407190D02*
X387566Y407713D01*
X387042Y408237D01*
X386519Y408499D01*
X385471D01*
X384947Y408237D01*
X384424Y407713D01*
X384162Y407190D01*
X383900Y406404D01*
Y405095D01*
X384162Y404309D01*
X384424Y403786D01*
X384947Y403262D01*
X385471Y403000D01*
X386519D01*
X387042Y403262D01*
X387566Y403786D01*
X387828Y404309D01*
X390682Y408499D02*
X389896Y408237D01*
X389634Y407713D01*
Y407190D01*
X389896Y406666D01*
X390420Y406404D01*
X391467Y406142D01*
X392253Y405880D01*
X392777Y405357D01*
X393039Y404833D01*
Y404047D01*
X392777Y403524D01*
X392515Y403262D01*
X391729Y403000D01*
X390682D01*
X389896Y403262D01*
X389634Y403524D01*
X389373Y404047D01*
Y404833D01*
X389634Y405357D01*
X390158Y405880D01*
X390944Y406142D01*
X391991Y406404D01*
X392515Y406666D01*
X392777Y407190D01*
Y407713D01*
X392515Y408237D01*
X391729Y408499D01*
X390682D01*
X516401Y334736D02*
Y334998D01*
X516663Y335521D01*
X516925Y335783D01*
X517449Y336045D01*
X518496D01*
X519020Y335783D01*
X519282Y335521D01*
X519544Y334998D01*
Y334474D01*
X519282Y333950D01*
X518758Y333165D01*
X516140Y330546D01*
X519805D01*
X516318Y316034D02*
X516842Y316296D01*
X517628Y317081D01*
Y311582D01*
X506520Y588682D02*
X507044Y588943D01*
X507829Y589729D01*
Y584230D01*
X510552Y588682D02*
X511076Y588943D01*
X511862Y589729D01*
Y584230D01*
X507537Y673898D02*
X508061Y674160D01*
X508847Y674945D01*
Y669446D01*
X511832Y673636D02*
Y673898D01*
X512094Y674422D01*
X512355Y674683D01*
X512879Y674945D01*
X513927D01*
X514450Y674683D01*
X514712Y674422D01*
X514974Y673898D01*
Y673374D01*
X514712Y672850D01*
X514188Y672065D01*
X511570Y669446D01*
X515236D01*
X445652Y590202D02*
X446175Y590464D01*
X446961Y591250D01*
Y585751D01*
X568294Y587788D02*
Y588050D01*
X568556Y588574D01*
X568818Y588836D01*
X569341Y589098D01*
X570389D01*
X570912Y588836D01*
X571174Y588574D01*
X571436Y588050D01*
Y587527D01*
X571174Y587003D01*
X570650Y586217D01*
X568032Y583599D01*
X571698D01*
X573452Y589098D02*
X576333D01*
X574761Y587003D01*
X575547D01*
X576071Y586741D01*
X576333Y586479D01*
X576594Y585694D01*
Y585170D01*
X576333Y584384D01*
X575809Y583861D01*
X575023Y583599D01*
X574238D01*
X573452Y583861D01*
X573190Y584123D01*
X572929Y584646D01*
X567567Y673144D02*
Y673406D01*
X567829Y673930D01*
X568091Y674192D01*
X568615Y674453D01*
X569662D01*
X570186Y674192D01*
X570448Y673930D01*
X570710Y673406D01*
Y672882D01*
X570448Y672359D01*
X569924Y671573D01*
X567306Y668955D01*
X570971D01*
X574821Y674453D02*
X572202Y670788D01*
X576130D01*
X574821Y674453D02*
Y668955D01*
X457240Y674570D02*
Y674831D01*
X457502Y675355D01*
X457764Y675617D01*
X458288Y675879D01*
X459335D01*
X459859Y675617D01*
X460121Y675355D01*
X460382Y674831D01*
Y674308D01*
X460121Y673784D01*
X459597Y672998D01*
X456978Y670380D01*
X460644D01*
X430294Y678874D02*
Y674684D01*
X430032Y673899D01*
X429771Y673637D01*
X429247Y673375D01*
X428723D01*
X428199Y673637D01*
X427938Y673899D01*
X427676Y674684D01*
Y675208D01*
X431970Y677564D02*
Y677826D01*
X432232Y678350D01*
X432494Y678612D01*
X433017Y678874D01*
X434065D01*
X434589Y678612D01*
X434851Y678350D01*
X435112Y677826D01*
Y677303D01*
X434851Y676779D01*
X434327Y675993D01*
X431708Y673375D01*
X435374D01*
X598628Y659890D02*
X598366Y660413D01*
X597842Y660937D01*
X597319Y661199D01*
X596271D01*
X595747Y660937D01*
X595224Y660413D01*
X594962Y659890D01*
X594700Y659104D01*
Y657795D01*
X594962Y657009D01*
X595224Y656486D01*
X595747Y655962D01*
X596271Y655700D01*
X597319D01*
X597842Y655962D01*
X598366Y656486D01*
X598628Y657009D01*
X604362Y655700D02*
X602267Y661199D01*
X600173Y655700D01*
X600958Y657533D02*
X603577D01*
X605645Y658319D02*
X608002D01*
X608787Y658580D01*
X609049Y658842D01*
X609311Y659366D01*
Y660151D01*
X609049Y660675D01*
X608787Y660937D01*
X608002Y661199D01*
X605645D01*
Y655700D01*
X610542Y660151D02*
X611065Y660413D01*
X611851Y661199D01*
Y655700D01*
X610517Y529955D02*
Y524456D01*
Y529955D02*
X612874D01*
X613660Y529693D01*
X613921Y529431D01*
X614183Y528907D01*
Y528384D01*
X613921Y527860D01*
X613660Y527598D01*
X612874Y527336D01*
X610517D01*
X612350D02*
X614183Y524456D01*
X615414Y528907D02*
X615938Y529169D01*
X616723Y529955D01*
Y524456D01*
X619446Y528907D02*
X619970Y529169D01*
X620756Y529955D01*
Y524456D01*
X386052Y661651D02*
X388408D01*
X389194Y661913D01*
X389456Y662175D01*
X389718Y662699D01*
Y663484D01*
X389456Y664008D01*
X389194Y664270D01*
X388408Y664532D01*
X386052D01*
Y659033D01*
X390948Y663484D02*
X391472Y663746D01*
X392257Y664532D01*
Y659033D01*
X382183Y305247D02*
Y301057D01*
X381921Y300272D01*
X381660Y300010D01*
X381136Y299748D01*
X380612D01*
X380088Y300010D01*
X379827Y300272D01*
X379565Y301057D01*
Y301581D01*
X383597Y302366D02*
X385954D01*
X386739Y302628D01*
X387001Y302890D01*
X387263Y303414D01*
Y304199D01*
X387001Y304723D01*
X386739Y304985D01*
X385954Y305247D01*
X383597D01*
Y299748D01*
X388494Y304199D02*
X389018Y304461D01*
X389803Y305247D01*
Y299748D01*
X401325Y589908D02*
Y584409D01*
Y589908D02*
X403158D01*
X403943Y589646D01*
X404467Y589122D01*
X404729Y588599D01*
X404991Y587813D01*
Y586504D01*
X404729Y585718D01*
X404467Y585195D01*
X403943Y584671D01*
X403158Y584409D01*
X401325D01*
X406222Y588861D02*
X406745Y589122D01*
X407531Y589908D01*
Y584409D01*
X639705Y661454D02*
Y657264D01*
X639443Y656479D01*
X639182Y656217D01*
X638658Y655955D01*
X638134D01*
X637610Y656217D01*
X637349Y656479D01*
X637087Y657264D01*
Y657788D01*
X641643Y661454D02*
X644523D01*
X642952Y659359D01*
X643738D01*
X644261Y659097D01*
X644523Y658835D01*
X644785Y658050D01*
Y657526D01*
X644523Y656740D01*
X644000Y656217D01*
X643214Y655955D01*
X642428D01*
X641643Y656217D01*
X641381Y656479D01*
X641119Y657002D01*
X663464Y521298D02*
X665820D01*
X666606Y521560D01*
X666868Y521822D01*
X667130Y522346D01*
Y523131D01*
X666868Y523655D01*
X666606Y523917D01*
X665820Y524179D01*
X663464D01*
Y518680D01*
X668622Y522869D02*
Y523131D01*
X668884Y523655D01*
X669146Y523917D01*
X669669Y524179D01*
X670717D01*
X671241Y523917D01*
X671502Y523655D01*
X671764Y523131D01*
Y522608D01*
X671502Y522084D01*
X670979Y521298D01*
X668360Y518680D01*
X672026D01*
M02*
