G04*
G04 #@! TF.GenerationSoftware,Altium Limited,Altium Designer,21.0.9 (235)*
G04*
G04 Layer_Physical_Order=2*
G04 Layer_Color=16711680*
%FSLAX25Y25*%
%MOIN*%
G70*
G04*
G04 #@! TF.SameCoordinates,A9EE82D5-5453-4621-884F-38B111DD7A68*
G04*
G04*
G04 #@! TF.FilePolarity,Positive*
G04*
G01*
G75*
%ADD18R,0.04016X0.05000*%
%ADD19R,0.03701X0.05315*%
%ADD37C,0.02000*%
%ADD38C,0.00800*%
%ADD39C,0.13780*%
%ADD40C,0.17717*%
%ADD41C,0.06299*%
%ADD42C,0.10630*%
%ADD43C,0.08268*%
%ADD44R,0.06299X0.06299*%
%ADD45C,0.09449*%
%ADD46R,0.07087X0.07087*%
%ADD47C,0.07087*%
%ADD48R,0.06890X0.06890*%
%ADD49C,0.06890*%
%ADD50C,0.01600*%
%ADD51R,0.05315X0.03701*%
%ADD52R,0.05000X0.04016*%
%ADD53R,0.08504X0.09488*%
%ADD54C,0.03000*%
%ADD55C,0.01200*%
G36*
X830478Y688697D02*
X831678Y688645D01*
X832869Y688488D01*
X834042Y688228D01*
X835188Y687866D01*
X836297Y687407D01*
X837363Y686852D01*
X838376Y686207D01*
X839329Y685475D01*
X840215Y684664D01*
X841026Y683778D01*
X841757Y682825D01*
X842403Y681812D01*
X842958Y680747D01*
X843417Y679637D01*
X843779Y678491D01*
X844038Y677318D01*
X844195Y676127D01*
X844248Y674948D01*
Y281249D01*
X844195Y280051D01*
X844038Y278861D01*
X843778Y277691D01*
X843417Y276547D01*
X842957Y275439D01*
X842403Y274376D01*
X841758Y273364D01*
X841028Y272413D01*
X840217Y271529D01*
X839332Y270719D01*
X838381Y269989D01*
X837369Y269345D01*
X836305Y268792D01*
X835196Y268334D01*
X834052Y267973D01*
X832881Y267714D01*
X831692Y267558D01*
X830500Y267506D01*
X629000Y267500D01*
X627802Y267552D01*
X626613Y267709D01*
X625442Y267968D01*
X624298Y268329D01*
X623190Y268788D01*
X622126Y269342D01*
X621114Y269986D01*
X620163Y270716D01*
X619278Y271527D01*
X618468Y272411D01*
X617738Y273362D01*
X617094Y274374D01*
X616540Y275438D01*
X616081Y276546D01*
X615720Y277690D01*
X615460Y278861D01*
X615304Y280050D01*
X615252Y281248D01*
Y285186D01*
X615184Y286732D01*
X614982Y288267D01*
X614647Y289779D01*
X614181Y291256D01*
X613589Y292686D01*
X612874Y294060D01*
X612042Y295365D01*
X611099Y296594D01*
X610053Y297735D01*
X608912Y298781D01*
X607683Y299724D01*
X606378Y300556D01*
X605004Y301271D01*
X603574Y301863D01*
X602097Y302329D01*
X600585Y302664D01*
X599050Y302866D01*
X597504Y302934D01*
X434994D01*
X433447Y302866D01*
X431912Y302664D01*
X430400Y302329D01*
X428924Y301863D01*
X427493Y301271D01*
X426120Y300556D01*
X424814Y299724D01*
X423586Y298781D01*
X422444Y297735D01*
X421398Y296594D01*
X420455Y295365D01*
X419623Y294059D01*
X418909Y292686D01*
X418316Y291255D01*
X417850Y289779D01*
X417515Y288267D01*
X417313Y286732D01*
X417246Y285186D01*
Y281248D01*
X417193Y280050D01*
X417037Y278861D01*
X416777Y277690D01*
X416417Y276546D01*
X415958Y275438D01*
X415404Y274374D01*
X414759Y273362D01*
X414029Y272411D01*
X413219Y271527D01*
X412335Y270716D01*
X411383Y269986D01*
X410372Y269342D01*
X409308Y268788D01*
X408200Y268329D01*
X407056Y267968D01*
X405885Y267709D01*
X404696Y267552D01*
X403498Y267500D01*
X389555D01*
X388357Y267552D01*
X387168Y267709D01*
X385997Y267969D01*
X384853Y268329D01*
X383745Y268788D01*
X382681Y269342D01*
X381669Y269986D01*
X380718Y270717D01*
X379833Y271527D01*
X379023Y272411D01*
X378293Y273363D01*
X377649Y274374D01*
X377095Y275438D01*
X376636Y276546D01*
X376275Y277690D01*
X376015Y278861D01*
X375859Y280050D01*
X375807Y281248D01*
Y674949D01*
X375859Y676147D01*
X376016Y677337D01*
X376275Y678508D01*
X376636Y679651D01*
X377095Y680759D01*
X377649Y681823D01*
X378293Y682835D01*
X379023Y683786D01*
X379834Y684671D01*
X380718Y685481D01*
X381669Y686211D01*
X382681Y686855D01*
X383745Y687409D01*
X384853Y687868D01*
X385997Y688229D01*
X387168Y688488D01*
X388357Y688645D01*
X389555Y688697D01*
X830478Y688697D01*
D02*
G37*
%LPC*%
G36*
X613607Y682617D02*
X612100Y682469D01*
X610650Y682029D01*
X609314Y681315D01*
X608143Y680354D01*
X607182Y679183D01*
X606468Y677847D01*
X606029Y676398D01*
X605880Y674890D01*
X606029Y673383D01*
X606468Y671933D01*
X607182Y670597D01*
X608143Y669426D01*
X609314Y668465D01*
X610650Y667751D01*
X612100Y667311D01*
X613607Y667163D01*
X615115Y667311D01*
X616564Y667751D01*
X617900Y668465D01*
X619071Y669426D01*
X620032Y670597D01*
X620746Y671933D01*
X621186Y673383D01*
X621335Y674890D01*
X621186Y676398D01*
X620746Y677847D01*
X620032Y679183D01*
X619071Y680354D01*
X617900Y681315D01*
X616564Y682029D01*
X615115Y682469D01*
X613607Y682617D01*
D02*
G37*
G36*
X644873Y682451D02*
X643365Y682303D01*
X641916Y681863D01*
X640580Y681149D01*
X639409Y680188D01*
X638448Y679017D01*
X637734Y677681D01*
X637294Y676232D01*
X637146Y674724D01*
X637294Y673217D01*
X637734Y671767D01*
X638448Y670431D01*
X639409Y669260D01*
X640580Y668299D01*
X641916Y667585D01*
X643365Y667146D01*
X644873Y666997D01*
X646381Y667146D01*
X647830Y667585D01*
X649166Y668299D01*
X650337Y669260D01*
X651298Y670431D01*
X652012Y671767D01*
X652452Y673217D01*
X652600Y674724D01*
X652452Y676232D01*
X652012Y677681D01*
X651298Y679017D01*
X650337Y680188D01*
X649166Y681149D01*
X647830Y681863D01*
X646381Y682303D01*
X644873Y682451D01*
D02*
G37*
G36*
X459418Y664825D02*
X459031Y664803D01*
X458647Y664747D01*
X458270Y664658D01*
X457902Y664536D01*
X457545Y664383D01*
X457204Y664199D01*
X456880Y663986D01*
X456575Y663746D01*
X456293Y663480D01*
X456035Y663191D01*
X455803Y662880D01*
X455803Y662880D01*
X447271D01*
Y664338D01*
X433374D01*
Y662880D01*
X406357D01*
X390719Y647243D01*
X390603Y647280D01*
X390529Y647303D01*
X390046Y647429D01*
X389553Y647513D01*
X389056Y647553D01*
X388556Y647549D01*
X388059Y647503D01*
X387568Y647413D01*
X387086Y647280D01*
X386618Y647106D01*
X386167Y646892D01*
X385736Y646639D01*
X385329Y646350D01*
X384949Y646027D01*
X384598Y645671D01*
X384279Y645286D01*
X383996Y644875D01*
X383749Y644441D01*
X383541Y643987D01*
X383373Y643517D01*
X383247Y643034D01*
X383164Y642541D01*
X383124Y642043D01*
X383127Y641544D01*
X383174Y641047D01*
X383264Y640555D01*
X383397Y640074D01*
X383571Y639606D01*
X383785Y639155D01*
X384037Y638724D01*
X384327Y638317D01*
X384650Y637936D01*
X385006Y637586D01*
X385390Y637267D01*
X385801Y636983D01*
X386235Y636737D01*
X386689Y636529D01*
X387160Y636361D01*
X387643Y636235D01*
X388136Y636152D01*
X388633Y636111D01*
X389133Y636115D01*
X389630Y636162D01*
X390121Y636252D01*
X390603Y636384D01*
X391071Y636558D01*
X391522Y636772D01*
X391953Y637025D01*
X392360Y637314D01*
X392740Y637638D01*
X393091Y637993D01*
X393409Y638378D01*
X393693Y638789D01*
X393940Y639223D01*
X394148Y639677D01*
X394316Y640148D01*
X394442Y640631D01*
X394525Y641123D01*
X394565Y641621D01*
X394562Y642121D01*
X394515Y642618D01*
X394425Y643109D01*
X394292Y643590D01*
X394292D01*
X394255Y643707D01*
X408428Y657880D01*
X433374D01*
Y656449D01*
X447271D01*
Y657880D01*
X455803D01*
X455872Y657781D01*
X456112Y657477D01*
X456378Y657194D01*
X456667Y656936D01*
X456978Y656704D01*
X457308Y656500D01*
X457654Y656326D01*
X458015Y656182D01*
X458386Y656071D01*
X458766Y655992D01*
X459151Y655947D01*
X459539Y655935D01*
X459926Y655957D01*
X460310Y656013D01*
X460687Y656102D01*
X461055Y656224D01*
X461411Y656377D01*
X461753Y656561D01*
X462077Y656773D01*
X462382Y657014D01*
X462664Y657279D01*
X462922Y657569D01*
X463154Y657880D01*
X463358Y658210D01*
X463532Y658556D01*
X463676Y658916D01*
X463787Y659288D01*
X463866Y659667D01*
X463912Y660052D01*
X463923Y660440D01*
X463901Y660827D01*
X463845Y661211D01*
X463756Y661588D01*
X463635Y661957D01*
X463481Y662313D01*
X463298Y662654D01*
X463085Y662979D01*
X462845Y663283D01*
X462579Y663565D01*
X462289Y663824D01*
X461979Y664055D01*
X461649Y664259D01*
X461302Y664434D01*
X460942Y664577D01*
X460571Y664689D01*
X460191Y664768D01*
X459806Y664813D01*
X459418Y664825D01*
D02*
G37*
G36*
X489478Y664359D02*
X488448Y664224D01*
X487489Y663826D01*
X486665Y663194D01*
X486032Y662370D01*
X485635Y661410D01*
X485499Y660380D01*
X485635Y659350D01*
X486032Y658390D01*
X486665Y657566D01*
X487489Y656934D01*
X488448Y656536D01*
X489478Y656401D01*
X490508Y656536D01*
X491468Y656934D01*
X492292Y657566D01*
X492925Y658390D01*
X493322Y659350D01*
X493458Y660380D01*
X493322Y661410D01*
X492925Y662370D01*
X492292Y663194D01*
X491468Y663826D01*
X490508Y664224D01*
X489478Y664359D01*
D02*
G37*
G36*
X569478Y664864D02*
X568318Y664711D01*
X567237Y664263D01*
X566308Y663550D01*
X565595Y662622D01*
X565147Y661540D01*
X564995Y660380D01*
X565147Y659219D01*
X565595Y658138D01*
X566308Y657209D01*
X567237Y656497D01*
X568318Y656049D01*
X569478Y655896D01*
X570639Y656049D01*
X571720Y656497D01*
X572649Y657209D01*
X573361Y658138D01*
X573809Y659219D01*
X573962Y660380D01*
X573809Y661540D01*
X573361Y662622D01*
X572649Y663550D01*
X571720Y664263D01*
X570639Y664711D01*
X569478Y664864D01*
D02*
G37*
G36*
X559478D02*
X558318Y664711D01*
X557237Y664263D01*
X556308Y663550D01*
X555595Y662622D01*
X555148Y661540D01*
X554995Y660380D01*
X555148Y659219D01*
X555595Y658138D01*
X556308Y657209D01*
X557237Y656497D01*
X558318Y656049D01*
X559478Y655896D01*
X560639Y656049D01*
X561720Y656497D01*
X562649Y657209D01*
X563361Y658138D01*
X563809Y659219D01*
X563962Y660380D01*
X563809Y661540D01*
X563361Y662622D01*
X562649Y663550D01*
X561720Y664263D01*
X560639Y664711D01*
X559478Y664864D01*
D02*
G37*
G36*
X539478D02*
X538318Y664711D01*
X537237Y664263D01*
X536308Y663550D01*
X535595Y662622D01*
X535147Y661540D01*
X534995Y660380D01*
X535147Y659219D01*
X535595Y658138D01*
X536308Y657209D01*
X537237Y656497D01*
X538318Y656049D01*
X539478Y655896D01*
X540639Y656049D01*
X541720Y656497D01*
X542649Y657209D01*
X543361Y658138D01*
X543809Y659219D01*
X543962Y660380D01*
X543809Y661540D01*
X543361Y662622D01*
X542649Y663550D01*
X541720Y664263D01*
X540639Y664711D01*
X539478Y664864D01*
D02*
G37*
G36*
X529478D02*
X528318Y664711D01*
X527237Y664263D01*
X526308Y663550D01*
X525595Y662622D01*
X525147Y661540D01*
X524995Y660380D01*
X525147Y659219D01*
X525595Y658138D01*
X526308Y657209D01*
X527237Y656497D01*
X528318Y656049D01*
X529478Y655896D01*
X530639Y656049D01*
X531720Y656497D01*
X532649Y657209D01*
X533361Y658138D01*
X533809Y659219D01*
X533962Y660380D01*
X533809Y661540D01*
X533361Y662622D01*
X532649Y663550D01*
X531720Y664263D01*
X530639Y664711D01*
X529478Y664864D01*
D02*
G37*
G36*
X519478D02*
X518318Y664711D01*
X517237Y664263D01*
X516308Y663550D01*
X515595Y662622D01*
X515147Y661540D01*
X514995Y660380D01*
X515147Y659219D01*
X515595Y658138D01*
X516308Y657209D01*
X517237Y656497D01*
X518318Y656049D01*
X519478Y655896D01*
X520639Y656049D01*
X521720Y656497D01*
X522649Y657209D01*
X523361Y658138D01*
X523809Y659219D01*
X523962Y660380D01*
X523809Y661540D01*
X523361Y662622D01*
X522649Y663550D01*
X521720Y664263D01*
X520639Y664711D01*
X519478Y664864D01*
D02*
G37*
G36*
X509478D02*
X508318Y664711D01*
X507237Y664263D01*
X506308Y663550D01*
X505595Y662622D01*
X505148Y661540D01*
X504995Y660380D01*
X505148Y659219D01*
X505595Y658138D01*
X506308Y657209D01*
X507237Y656497D01*
X508318Y656049D01*
X509478Y655896D01*
X510639Y656049D01*
X511720Y656497D01*
X512649Y657209D01*
X513361Y658138D01*
X513809Y659219D01*
X513962Y660380D01*
X513809Y661540D01*
X513361Y662622D01*
X512649Y663550D01*
X511720Y664263D01*
X510639Y664711D01*
X509478Y664864D01*
D02*
G37*
G36*
X499478D02*
X498318Y664711D01*
X497237Y664263D01*
X496308Y663550D01*
X495595Y662622D01*
X495148Y661540D01*
X494995Y660380D01*
X495148Y659219D01*
X495595Y658138D01*
X496308Y657209D01*
X497237Y656497D01*
X498318Y656049D01*
X499478Y655896D01*
X500639Y656049D01*
X501720Y656497D01*
X502649Y657209D01*
X503361Y658138D01*
X503809Y659219D01*
X503962Y660380D01*
X503809Y661540D01*
X503361Y662622D01*
X502649Y663550D01*
X501720Y664263D01*
X500639Y664711D01*
X499478Y664864D01*
D02*
G37*
G36*
X479478D02*
X478318Y664711D01*
X477237Y664263D01*
X476308Y663550D01*
X475595Y662622D01*
X475147Y661540D01*
X474995Y660380D01*
X475147Y659219D01*
X475595Y658138D01*
X476308Y657209D01*
X477237Y656497D01*
X478318Y656049D01*
X479478Y655896D01*
X480639Y656049D01*
X481720Y656497D01*
X482649Y657209D01*
X483361Y658138D01*
X483809Y659219D01*
X483962Y660380D01*
X483809Y661540D01*
X483361Y662622D01*
X482649Y663550D01*
X481720Y664263D01*
X480639Y664711D01*
X479478Y664864D01*
D02*
G37*
G36*
X469478D02*
X468318Y664711D01*
X467237Y664263D01*
X466308Y663550D01*
X465595Y662622D01*
X465147Y661540D01*
X464995Y660380D01*
X465147Y659219D01*
X465595Y658138D01*
X466308Y657209D01*
X467237Y656497D01*
X468318Y656049D01*
X469478Y655896D01*
X470639Y656049D01*
X471720Y656497D01*
X472649Y657209D01*
X473361Y658138D01*
X473809Y659219D01*
X473962Y660380D01*
X473809Y661540D01*
X473361Y662622D01*
X472649Y663550D01*
X471720Y664263D01*
X470639Y664711D01*
X469478Y664864D01*
D02*
G37*
G36*
X684855Y650100D02*
X652581D01*
X652122Y649910D01*
X650745Y648532D01*
X650555Y648073D01*
Y642688D01*
X650689Y642363D01*
X650745Y642229D01*
X652433Y640541D01*
X652892Y640351D01*
X678506D01*
X723851Y595006D01*
Y397030D01*
X696565Y369744D01*
X634614D01*
X634155Y369554D01*
X634074Y369473D01*
X634041Y369459D01*
X623244Y358663D01*
X622744D01*
X612854Y368552D01*
X612325Y368906D01*
X611701Y369030D01*
X603467D01*
Y371308D01*
X596549D01*
Y372600D01*
X596415Y372925D01*
X596359Y373059D01*
X590349Y379069D01*
Y495100D01*
X590159Y495559D01*
X568616Y517102D01*
Y528533D01*
X569348Y529265D01*
X569614Y529662D01*
X569707Y530130D01*
Y555439D01*
X570197Y555537D01*
X570350Y555168D01*
X570951Y554385D01*
X571734Y553784D01*
X572646Y553406D01*
X573625Y553277D01*
X574604Y553406D01*
X575516Y553784D01*
X576299Y554385D01*
X576900Y555168D01*
X577278Y556080D01*
X577407Y557059D01*
X577278Y558038D01*
X576900Y558950D01*
X576299Y559733D01*
X575516Y560334D01*
X574604Y560712D01*
X573625Y560841D01*
X572646Y560712D01*
X571734Y560334D01*
X570951Y559733D01*
X570350Y558950D01*
X570197Y558581D01*
X569707Y558679D01*
Y565439D01*
X570197Y565537D01*
X570350Y565168D01*
X570951Y564385D01*
X571734Y563784D01*
X572646Y563406D01*
X573625Y563277D01*
X574604Y563406D01*
X575516Y563784D01*
X576299Y564385D01*
X576900Y565168D01*
X577278Y566080D01*
X577407Y567059D01*
X577278Y568038D01*
X576900Y568950D01*
X576299Y569733D01*
X575516Y570334D01*
X574604Y570712D01*
X573625Y570841D01*
X572646Y570712D01*
X571734Y570334D01*
X570951Y569733D01*
X570350Y568950D01*
X570197Y568581D01*
X569707Y568679D01*
Y579526D01*
X581565Y591384D01*
X581830Y591781D01*
X581830Y591781D01*
X581830Y591781D01*
X581923Y592250D01*
Y607515D01*
X596662Y622254D01*
X622532D01*
X622890Y621388D01*
X623555Y620522D01*
X624420Y619858D01*
X625428Y619440D01*
X626510Y619298D01*
X627591Y619440D01*
X628599Y619858D01*
X629464Y620522D01*
X630129Y621388D01*
X630546Y622396D01*
X630689Y623477D01*
X630546Y624559D01*
X630129Y625567D01*
X629464Y626432D01*
X628599Y627096D01*
X627591Y627514D01*
X626510Y627656D01*
X625428Y627514D01*
X624420Y627096D01*
X623555Y626432D01*
X622890Y625567D01*
X622532Y624701D01*
X596155D01*
X595687Y624608D01*
X595290Y624342D01*
X579835Y608887D01*
X579570Y608490D01*
X579476Y608022D01*
Y592756D01*
X567618Y580898D01*
X567353Y580501D01*
X567260Y580033D01*
Y569260D01*
X566786Y569099D01*
X566299Y569733D01*
X565516Y570334D01*
X564604Y570712D01*
X563625Y570841D01*
X562646Y570712D01*
X561734Y570334D01*
X560951Y569733D01*
X560350Y568950D01*
X560120Y568395D01*
X559630Y568492D01*
Y577189D01*
X576469Y594028D01*
X576690Y594359D01*
X576768Y594749D01*
X576768Y594749D01*
X576768Y594749D01*
Y594749D01*
Y612211D01*
X606700Y642142D01*
X622366D01*
Y639019D01*
X630653D01*
Y647305D01*
X622366D01*
Y644182D01*
X606277D01*
X605887Y644104D01*
X605556Y643883D01*
X575027Y613354D01*
X574806Y613023D01*
X574728Y612633D01*
Y595171D01*
X557889Y578332D01*
X557668Y578001D01*
X557590Y577611D01*
Y568566D01*
X557100Y568468D01*
X556901Y568950D01*
X556299Y569733D01*
X555516Y570334D01*
X554604Y570712D01*
X553625Y570841D01*
X552646Y570712D01*
X551775Y570351D01*
X525369Y596757D01*
Y598450D01*
X525859Y598547D01*
X525945Y598340D01*
X526593Y597495D01*
X527438Y596846D01*
X528422Y596439D01*
X529478Y596300D01*
X530534Y596439D01*
X531518Y596846D01*
X532363Y597495D01*
X533012Y598340D01*
X533419Y599324D01*
X533558Y600380D01*
X533419Y601436D01*
X533012Y602420D01*
X532363Y603265D01*
X531518Y603913D01*
X530534Y604321D01*
X529478Y604460D01*
X528422Y604321D01*
X527438Y603913D01*
X526593Y603265D01*
X525945Y602420D01*
X525859Y602213D01*
X525369Y602310D01*
Y607898D01*
X525291Y608288D01*
X525070Y608619D01*
X514645Y619044D01*
X514314Y619265D01*
X513924Y619343D01*
X472736D01*
Y620774D01*
X466221D01*
Y615872D01*
X472736D01*
Y617304D01*
X513501D01*
X523330Y607475D01*
Y602783D01*
X522856Y602623D01*
X522363Y603265D01*
X521518Y603913D01*
X520534Y604321D01*
X519478Y604460D01*
X518422Y604321D01*
X517438Y603913D01*
X516593Y603265D01*
X515945Y602420D01*
X515537Y601436D01*
X515398Y600380D01*
X515537Y599324D01*
X515945Y598340D01*
X516593Y597495D01*
X517438Y596846D01*
X518422Y596439D01*
X519478Y596300D01*
X520534Y596439D01*
X521518Y596846D01*
X522363Y597495D01*
X522856Y598137D01*
X523330Y597976D01*
Y596335D01*
X523407Y595945D01*
X523628Y595614D01*
X550333Y568909D01*
X549972Y568038D01*
X549843Y567059D01*
X549972Y566080D01*
X550350Y565168D01*
X550951Y564385D01*
X551734Y563784D01*
X552646Y563406D01*
X553625Y563277D01*
X554604Y563406D01*
X555516Y563784D01*
X556299Y564385D01*
X556901Y565168D01*
X557100Y565650D01*
X557590Y565552D01*
Y558566D01*
X557100Y558468D01*
X556901Y558950D01*
X556299Y559733D01*
X555516Y560334D01*
X554604Y560712D01*
X553625Y560841D01*
X552646Y560712D01*
X551734Y560334D01*
X550951Y559733D01*
X550350Y558950D01*
X549972Y558038D01*
X549843Y557059D01*
X549972Y556080D01*
X550350Y555168D01*
X550951Y554385D01*
X551734Y553784D01*
X552646Y553406D01*
X553625Y553277D01*
X554604Y553406D01*
X555516Y553784D01*
X556299Y554385D01*
X556901Y555168D01*
X557100Y555650D01*
X557590Y555552D01*
Y540699D01*
X547146Y530255D01*
X528879D01*
Y505067D01*
X568616D01*
Y505512D01*
X569078Y505704D01*
X582351Y492431D01*
Y373700D01*
X582541Y373241D01*
X589551Y366231D01*
Y327600D01*
X589741Y327141D01*
X589846Y327035D01*
X589972Y326080D01*
X590350Y325168D01*
X590951Y324385D01*
X591734Y323784D01*
X592646Y323406D01*
X593625Y323277D01*
X594604Y323406D01*
X595516Y323784D01*
X596299Y324385D01*
X596901Y325168D01*
X597278Y326080D01*
X597407Y327059D01*
X597278Y328038D01*
X596901Y328950D01*
X596549Y329408D01*
Y356326D01*
X603467D01*
Y365768D01*
X611025D01*
X620687Y356105D01*
X599556Y334975D01*
X599366Y334516D01*
Y334496D01*
Y324957D01*
X599501Y324632D01*
X599556Y324498D01*
X600872Y323182D01*
X601332Y322992D01*
X606610D01*
X607069Y323182D01*
X608590Y324703D01*
X608780Y325162D01*
Y328362D01*
X636817Y356399D01*
X671746D01*
X671937Y355937D01*
X671602Y355602D01*
X643674D01*
Y355548D01*
X637161D01*
X613501Y331889D01*
X613487Y331874D01*
X613465Y331847D01*
X613445Y331818D01*
X613428Y331788D01*
X613413Y331756D01*
X613402Y331723D01*
X613393Y331689D01*
X613387Y331655D01*
X613384Y331620D01*
X613385Y331585D01*
X613388Y331550D01*
X613394Y331516D01*
X613404Y331482D01*
X613416Y331450D01*
X613431Y331418D01*
X613449Y331388D01*
X613469Y331360D01*
X613491Y331333D01*
X613516Y331309D01*
X613537Y331292D01*
X613530Y331267D01*
X613198Y330785D01*
X612646Y330712D01*
X611734Y330334D01*
X610951Y329733D01*
X610350Y328950D01*
X609972Y328038D01*
X609843Y327059D01*
X609972Y326080D01*
X610350Y325168D01*
X610951Y324385D01*
X611734Y323784D01*
X612646Y323406D01*
X613625Y323277D01*
X614604Y323406D01*
X615516Y323784D01*
X616299Y324385D01*
X616900Y325168D01*
X617278Y326080D01*
X617407Y327059D01*
X617278Y328038D01*
X617171Y328297D01*
X632057Y343184D01*
X643674D01*
Y341343D01*
X672606D01*
Y330695D01*
X671734Y330334D01*
X670951Y329733D01*
X670350Y328950D01*
X669972Y328038D01*
X669843Y327059D01*
X669972Y326080D01*
X670350Y325168D01*
X670951Y324385D01*
X671734Y323784D01*
X672646Y323406D01*
X673625Y323277D01*
X674604Y323406D01*
X675516Y323784D01*
X676299Y324385D01*
X676900Y325168D01*
X677278Y326080D01*
X677407Y327059D01*
X677278Y328038D01*
X676900Y328950D01*
X676299Y329733D01*
X675516Y330334D01*
X674645Y330695D01*
Y341343D01*
X677548D01*
Y351800D01*
X678000D01*
Y356200D01*
X678000Y356200D01*
X678000Y356200D01*
X678082Y356399D01*
X702671D01*
X703130Y356589D01*
X733959Y387418D01*
X734149Y387877D01*
Y600500D01*
X734120Y600571D01*
Y600835D01*
X733985Y601159D01*
X733930Y601294D01*
X685314Y649910D01*
X684855Y650100D01*
D02*
G37*
G36*
X645121Y643565D02*
X637160D01*
Y641078D01*
X635957D01*
X635567Y641000D01*
X635236Y640779D01*
X633796Y639339D01*
X633575Y639009D01*
X633497Y638618D01*
Y588373D01*
X615475Y570351D01*
X614604Y570712D01*
X613625Y570841D01*
X612646Y570712D01*
X611734Y570334D01*
X610951Y569733D01*
X610350Y568950D01*
X609972Y568038D01*
X609843Y567059D01*
X609972Y566080D01*
X610350Y565168D01*
X610951Y564385D01*
X611734Y563784D01*
X612646Y563406D01*
X613625Y563277D01*
X614604Y563406D01*
X615516Y563784D01*
X616299Y564385D01*
X616900Y565168D01*
X617278Y566080D01*
X617407Y567059D01*
X617278Y568038D01*
X616917Y568909D01*
X635238Y587230D01*
X635459Y587561D01*
X635536Y587951D01*
X635536Y587951D01*
X635536Y587951D01*
Y587951D01*
Y638196D01*
X636379Y639039D01*
X637160D01*
Y629741D01*
X645121D01*
Y632031D01*
X653066D01*
X653457Y632109D01*
X653674Y632254D01*
X654572Y631882D01*
X655550Y631753D01*
X656529Y631882D01*
X657442Y632259D01*
X658225Y632860D01*
X658826Y633644D01*
X659204Y634556D01*
X659333Y635535D01*
X659204Y636513D01*
X658826Y637426D01*
X658225Y638209D01*
X657442Y638810D01*
X656529Y639188D01*
X655550Y639317D01*
X654572Y639188D01*
X653659Y638810D01*
X652876Y638209D01*
X652275Y637426D01*
X651897Y636513D01*
X651768Y635535D01*
X651897Y634556D01*
X651926Y634486D01*
X651649Y634070D01*
X645121D01*
Y643565D01*
D02*
G37*
G36*
X655649Y629683D02*
X655287Y629676D01*
X654927Y629637D01*
X654572Y629567D01*
X654224Y629467D01*
X653886Y629336D01*
X653561Y629177D01*
X653251Y628989D01*
X652959Y628776D01*
X652686Y628538D01*
X652436Y628276D01*
X652209Y627995D01*
X652007Y627694D01*
X651832Y627377D01*
X651686Y627046D01*
X651569Y626703D01*
X651482Y626352D01*
X651426Y625994D01*
X651402Y625633D01*
X651409Y625271D01*
X651448Y624911D01*
X651448Y624911D01*
X651451Y624886D01*
X651452Y624851D01*
X651451Y624816D01*
X651446Y624781D01*
X651439Y624747D01*
X651428Y624714D01*
X651415Y624682D01*
X651399Y624651D01*
X651380Y624621D01*
X651359Y624594D01*
X651335Y624568D01*
X651309Y624544D01*
X651282Y624523D01*
X651252Y624504D01*
X651222Y624488D01*
X651189Y624475D01*
X651156Y624464D01*
X651122Y624457D01*
X651087Y624452D01*
X651052Y624451D01*
X645302D01*
Y626592D01*
X637340D01*
Y612622D01*
X640011D01*
Y590478D01*
X657307Y573181D01*
Y570210D01*
X657307Y570202D01*
X657305Y570167D01*
X657300Y570132D01*
X657292Y570098D01*
X657280Y570065D01*
X657266Y570033D01*
X657250Y570003D01*
X657230Y569974D01*
X657208Y569946D01*
X657184Y569921D01*
X657158Y569898D01*
X657130Y569877D01*
X657100Y569859D01*
X657069Y569844D01*
X657036Y569831D01*
X657003Y569821D01*
X656969Y569814D01*
X656934Y569811D01*
X656899Y569810D01*
X656864Y569812D01*
X656830Y569817D01*
X656796Y569826D01*
X656763Y569837D01*
X656731Y569851D01*
X656700Y569868D01*
X656671Y569887D01*
X656644Y569909D01*
X656619Y569933D01*
X656619Y569933D01*
X656499Y570053D01*
X656227Y570292D01*
X655935Y570506D01*
X655626Y570694D01*
X655302Y570855D01*
X654965Y570987D01*
X654617Y571088D01*
X654262Y571160D01*
X653902Y571199D01*
X653541Y571208D01*
X653179Y571185D01*
X652821Y571130D01*
X652470Y571044D01*
X652127Y570929D01*
X651795Y570783D01*
X651477Y570610D01*
X651176Y570409D01*
X650893Y570183D01*
X650632Y569933D01*
X650393Y569661D01*
X650178Y569369D01*
X649990Y569060D01*
X649829Y568736D01*
X649698Y568398D01*
X649596Y568051D01*
X649525Y567696D01*
X649485Y567336D01*
X649476Y566974D01*
X649500Y566613D01*
X649554Y566255D01*
X649640Y565903D01*
X649755Y565560D01*
X649901Y565229D01*
X650075Y564911D01*
X650275Y564610D01*
X650501Y564327D01*
X650751Y564065D01*
X651023Y563826D01*
X651315Y563612D01*
X651624Y563424D01*
X651949Y563263D01*
X652286Y563131D01*
X652633Y563030D01*
X652988Y562958D01*
X653348Y562919D01*
X653710Y562910D01*
X654071Y562933D01*
X654429Y562988D01*
X654781Y563073D01*
X655124Y563189D01*
X655455Y563335D01*
X655773Y563508D01*
X656074Y563709D01*
X656357Y563935D01*
X656619Y564185D01*
X656619Y564185D01*
X656625Y564191D01*
X656650Y564215D01*
X656678Y564236D01*
X656707Y564255D01*
X656738Y564271D01*
X656771Y564284D01*
X656804Y564295D01*
X656838Y564302D01*
X656873Y564307D01*
X656907Y564308D01*
X656942Y564307D01*
X656977Y564302D01*
X657011Y564295D01*
X657044Y564284D01*
X657077Y564271D01*
X657107Y564255D01*
X657137Y564236D01*
X657164Y564215D01*
X657190Y564191D01*
X657214Y564165D01*
X657235Y564138D01*
X657254Y564108D01*
X657270Y564077D01*
X657283Y564045D01*
X657294Y564012D01*
X657301Y563978D01*
X657306Y563943D01*
X657307Y563908D01*
Y562721D01*
X655399Y560813D01*
X655274Y560867D01*
X655152Y560918D01*
X654810Y561036D01*
X654459Y561124D01*
X654101Y561181D01*
X653740Y561207D01*
X653378Y561201D01*
X653018Y561164D01*
X652662Y561096D01*
X652314Y560996D01*
X651976Y560867D01*
X651650Y560709D01*
X651340Y560523D01*
X651047Y560311D01*
X650773Y560073D01*
X650521Y559813D01*
X650293Y559532D01*
X650090Y559233D01*
X649914Y558916D01*
X649766Y558586D01*
X649648Y558244D01*
X649560Y557892D01*
X649503Y557535D01*
X649477Y557174D01*
X649483Y556812D01*
X649520Y556452D01*
X649589Y556096D01*
X649688Y555748D01*
X649817Y555410D01*
X649975Y555084D01*
X650161Y554774D01*
X650374Y554481D01*
X650611Y554207D01*
X650871Y553955D01*
X651152Y553727D01*
X651452Y553524D01*
X651768Y553348D01*
X652099Y553200D01*
X652441Y553082D01*
X652792Y552994D01*
X653149Y552937D01*
X653510Y552911D01*
X653872Y552917D01*
X654233Y552954D01*
X654588Y553022D01*
X654936Y553122D01*
X655274Y553251D01*
X655600Y553409D01*
X655910Y553595D01*
X656204Y553807D01*
X656477Y554045D01*
X656729Y554305D01*
X656957Y554586D01*
X657160Y554885D01*
X657336Y555202D01*
X657484Y555532D01*
X657602Y555874D01*
X657690Y556226D01*
X657748Y556583D01*
X657773Y556944D01*
X657768Y557306D01*
X657730Y557666D01*
X657662Y558022D01*
X657562Y558370D01*
X657433Y558708D01*
X657433Y558708D01*
X657379Y558833D01*
X660108Y561561D01*
Y563745D01*
X660108Y563768D01*
X660112Y563802D01*
X660118Y563837D01*
X660128Y563870D01*
X660140Y563903D01*
X660155Y563934D01*
X660173Y563964D01*
X660194Y563993D01*
X660216Y564019D01*
X660241Y564043D01*
X660268Y564066D01*
X660297Y564085D01*
X660328Y564102D01*
X660360Y564116D01*
X660393Y564128D01*
X660426Y564137D01*
X660461Y564142D01*
X660496Y564145D01*
X660531Y564144D01*
X660565Y564141D01*
X660600Y564134D01*
X660633Y564125D01*
X660666Y564113D01*
X660697Y564097D01*
X660727Y564080D01*
X660755Y564059D01*
X660782Y564036D01*
X660782Y564036D01*
X660862Y563963D01*
X661142Y563734D01*
X661442Y563530D01*
X661757Y563353D01*
X662087Y563205D01*
X662429Y563085D01*
X662780Y562996D01*
X663137Y562938D01*
X663498Y562911D01*
X663860Y562916D01*
X664221Y562952D01*
X664576Y563020D01*
X664925Y563118D01*
X665263Y563246D01*
X665589Y563403D01*
X665901Y563589D01*
X666194Y563800D01*
X666468Y564036D01*
X666721Y564296D01*
X666950Y564576D01*
X667154Y564875D01*
X667331Y565191D01*
X667480Y565521D01*
X667599Y565863D01*
X667688Y566214D01*
X667746Y566571D01*
X667773Y566932D01*
X667768Y567294D01*
X667732Y567654D01*
X667664Y568010D01*
X667566Y568359D01*
X667438Y568697D01*
X667281Y569023D01*
X667096Y569334D01*
X666884Y569628D01*
X666648Y569902D01*
X666389Y570155D01*
X666108Y570384D01*
X665809Y570588D01*
X665493Y570765D01*
X665163Y570913D01*
X664821Y571033D01*
X664470Y571122D01*
X664113Y571180D01*
X663752Y571207D01*
X663390Y571202D01*
X663030Y571166D01*
X662674Y571098D01*
X662326Y571000D01*
X661987Y570872D01*
X661661Y570715D01*
X661350Y570529D01*
X661056Y570318D01*
X660782Y570082D01*
Y570082D01*
X660782Y570082D01*
X660765Y570067D01*
X660737Y570045D01*
X660708Y570027D01*
X660677Y570011D01*
X660645Y569997D01*
X660611Y569987D01*
X660577Y569979D01*
X660543Y569975D01*
X660508Y569973D01*
X660473Y569975D01*
X660438Y569979D01*
X660404Y569987D01*
X660371Y569997D01*
X660339Y570011D01*
X660308Y570027D01*
X660278Y570045D01*
X660251Y570067D01*
X660225Y570090D01*
X660201Y570116D01*
X660180Y570144D01*
X660161Y570173D01*
X660145Y570204D01*
X660132Y570236D01*
X660121Y570269D01*
X660114Y570303D01*
X660109Y570338D01*
X660108Y570373D01*
Y574341D01*
X642811Y591638D01*
Y612622D01*
X645302D01*
Y621650D01*
X653647D01*
X653777Y621781D01*
X653901Y621727D01*
X654039Y621670D01*
X654382Y621553D01*
X654733Y621466D01*
X655091Y621410D01*
X655452Y621386D01*
X655814Y621393D01*
X656174Y621432D01*
X656529Y621502D01*
X656877Y621603D01*
X657215Y621733D01*
X657540Y621893D01*
X657850Y622080D01*
X658142Y622293D01*
X658415Y622532D01*
X658665Y622793D01*
X658892Y623075D01*
X659094Y623375D01*
X659269Y623692D01*
X659415Y624023D01*
X659532Y624366D01*
X659619Y624718D01*
X659675Y625075D01*
X659699Y625436D01*
X659692Y625798D01*
X659653Y626158D01*
X659583Y626513D01*
X659482Y626861D01*
X659352Y627199D01*
X659192Y627524D01*
X659005Y627834D01*
X658792Y628126D01*
X658554Y628399D01*
X658292Y628650D01*
X658010Y628877D01*
X657710Y629078D01*
X657393Y629253D01*
X657062Y629399D01*
X656719Y629517D01*
X656368Y629603D01*
X656010Y629659D01*
X655649Y629683D01*
D02*
G37*
G36*
X388844Y627417D02*
X387481Y627237D01*
X386210Y626711D01*
X385118Y625873D01*
X384281Y624782D01*
X383754Y623511D01*
X383575Y622147D01*
X383754Y620783D01*
X384281Y619512D01*
X385118Y618421D01*
X386210Y617584D01*
X387481Y617057D01*
X388844Y616878D01*
X390208Y617057D01*
X391479Y617584D01*
X392571Y618421D01*
X393408Y619512D01*
X393935Y620783D01*
X394114Y622147D01*
X393935Y623511D01*
X393408Y624782D01*
X392571Y625873D01*
X391479Y626711D01*
X390208Y627237D01*
X388844Y627417D01*
D02*
G37*
G36*
X655550Y619720D02*
X654467Y619578D01*
X653458Y619159D01*
X652591Y618494D01*
X651926Y617627D01*
X651508Y616618D01*
X651365Y615535D01*
X651508Y614451D01*
X651926Y613442D01*
X652591Y612575D01*
X653458Y611910D01*
X654467Y611492D01*
X655550Y611349D01*
X656634Y611492D01*
X657643Y611910D01*
X658510Y612575D01*
X659175Y613442D01*
X659593Y614451D01*
X659736Y615535D01*
X659593Y616618D01*
X659175Y617627D01*
X658510Y618494D01*
X657643Y619159D01*
X656634Y619578D01*
X655550Y619720D01*
D02*
G37*
G36*
Y609720D02*
X654467Y609578D01*
X653458Y609159D01*
X652591Y608494D01*
X651926Y607627D01*
X651508Y606618D01*
X651365Y605535D01*
X651508Y604451D01*
X651926Y603442D01*
X652591Y602575D01*
X653458Y601910D01*
X654467Y601492D01*
X655550Y601349D01*
X656634Y601492D01*
X657643Y601910D01*
X658510Y602575D01*
X659175Y603442D01*
X659593Y604451D01*
X659736Y605535D01*
X659593Y606618D01*
X659175Y607627D01*
X658510Y608494D01*
X657643Y609159D01*
X656634Y609578D01*
X655550Y609720D01*
D02*
G37*
G36*
X473136Y614166D02*
X465821D01*
Y608464D01*
X468078D01*
Y604599D01*
X467839Y604512D01*
X467485Y604353D01*
X467146Y604165D01*
X466825Y603947D01*
X466525Y603702D01*
X466246Y603432D01*
X465993Y603139D01*
X465765Y602824D01*
X465567Y602492D01*
X465398Y602142D01*
X465259Y601780D01*
X465153Y601407D01*
X465080Y601026D01*
X465041Y600640D01*
X465035Y600253D01*
X465063Y599866D01*
X465125Y599483D01*
X465219Y599107D01*
X465346Y598741D01*
X465505Y598387D01*
X465694Y598048D01*
X465911Y597727D01*
X466156Y597426D01*
X466426Y597148D01*
X466720Y596894D01*
X467034Y596667D01*
X467367Y596468D01*
X467716Y596299D01*
X468078Y596161D01*
X468451Y596055D01*
X468832Y595982D01*
X469218Y595942D01*
X469606Y595936D01*
X469992Y595964D01*
X470375Y596026D01*
X470751Y596121D01*
X471118Y596248D01*
X471472Y596407D01*
X471810Y596595D01*
X472131Y596813D01*
X472432Y597058D01*
X472710Y597328D01*
X472964Y597621D01*
X473191Y597935D01*
X473390Y598268D01*
X473559Y598617D01*
X473697Y598980D01*
X473803Y599353D01*
X473876Y599734D01*
X473916Y600119D01*
X473922Y600507D01*
X473894Y600894D01*
X473832Y601277D01*
X473737Y601653D01*
X473610Y602019D01*
X473452Y602373D01*
X473263Y602712D01*
X473045Y603033D01*
X472800Y603334D01*
X472531Y603612D01*
X472237Y603866D01*
X471923Y604093D01*
X471590Y604292D01*
X471241Y604461D01*
X470879Y604599D01*
X470879Y604599D01*
X470879D01*
X470879D01*
Y608464D01*
X473136D01*
Y614166D01*
D02*
G37*
G36*
X463924Y604825D02*
X455033D01*
Y595935D01*
X463924D01*
Y604825D01*
D02*
G37*
G36*
X569478Y604864D02*
X568318Y604711D01*
X567237Y604263D01*
X566308Y603550D01*
X565595Y602622D01*
X565147Y601540D01*
X564995Y600380D01*
X565147Y599219D01*
X565595Y598138D01*
X566308Y597210D01*
X567237Y596497D01*
X568318Y596049D01*
X569478Y595896D01*
X570639Y596049D01*
X571720Y596497D01*
X572649Y597210D01*
X573361Y598138D01*
X573809Y599219D01*
X573962Y600380D01*
X573809Y601540D01*
X573361Y602622D01*
X572649Y603550D01*
X571720Y604263D01*
X570639Y604711D01*
X569478Y604864D01*
D02*
G37*
G36*
X559478D02*
X558318Y604711D01*
X557237Y604263D01*
X556308Y603550D01*
X555595Y602622D01*
X555148Y601540D01*
X554995Y600380D01*
X555148Y599219D01*
X555595Y598138D01*
X556308Y597210D01*
X557237Y596497D01*
X558318Y596049D01*
X559478Y595896D01*
X560639Y596049D01*
X561720Y596497D01*
X562649Y597210D01*
X563361Y598138D01*
X563809Y599219D01*
X563962Y600380D01*
X563809Y601540D01*
X563361Y602622D01*
X562649Y603550D01*
X561720Y604263D01*
X560639Y604711D01*
X559478Y604864D01*
D02*
G37*
G36*
X549478D02*
X548318Y604711D01*
X547237Y604263D01*
X546308Y603550D01*
X545595Y602622D01*
X545148Y601540D01*
X544995Y600380D01*
X545148Y599219D01*
X545595Y598138D01*
X546308Y597210D01*
X547237Y596497D01*
X548318Y596049D01*
X549478Y595896D01*
X550639Y596049D01*
X551720Y596497D01*
X552649Y597210D01*
X553361Y598138D01*
X553809Y599219D01*
X553962Y600380D01*
X553809Y601540D01*
X553361Y602622D01*
X552649Y603550D01*
X551720Y604263D01*
X550639Y604711D01*
X549478Y604864D01*
D02*
G37*
G36*
X539478D02*
X538318Y604711D01*
X537237Y604263D01*
X536308Y603550D01*
X535595Y602622D01*
X535147Y601540D01*
X534995Y600380D01*
X535147Y599219D01*
X535595Y598138D01*
X536308Y597210D01*
X537237Y596497D01*
X538318Y596049D01*
X539478Y595896D01*
X540639Y596049D01*
X541720Y596497D01*
X542649Y597210D01*
X543361Y598138D01*
X543809Y599219D01*
X543962Y600380D01*
X543809Y601540D01*
X543361Y602622D01*
X542649Y603550D01*
X541720Y604263D01*
X540639Y604711D01*
X539478Y604864D01*
D02*
G37*
G36*
X509478D02*
X508318Y604711D01*
X507237Y604263D01*
X506308Y603550D01*
X505595Y602622D01*
X505148Y601540D01*
X504995Y600380D01*
X505148Y599219D01*
X505595Y598138D01*
X506308Y597210D01*
X507237Y596497D01*
X508318Y596049D01*
X509478Y595896D01*
X510639Y596049D01*
X511720Y596497D01*
X512649Y597210D01*
X513361Y598138D01*
X513809Y599219D01*
X513962Y600380D01*
X513809Y601540D01*
X513361Y602622D01*
X512649Y603550D01*
X511720Y604263D01*
X510639Y604711D01*
X509478Y604864D01*
D02*
G37*
G36*
X499478D02*
X498318Y604711D01*
X497237Y604263D01*
X496308Y603550D01*
X495595Y602622D01*
X495148Y601540D01*
X494995Y600380D01*
X495148Y599219D01*
X495595Y598138D01*
X496308Y597210D01*
X497237Y596497D01*
X498318Y596049D01*
X499478Y595896D01*
X500639Y596049D01*
X501720Y596497D01*
X502649Y597210D01*
X503361Y598138D01*
X503809Y599219D01*
X503962Y600380D01*
X503809Y601540D01*
X503361Y602622D01*
X502649Y603550D01*
X501720Y604263D01*
X500639Y604711D01*
X499478Y604864D01*
D02*
G37*
G36*
X489478D02*
X488318Y604711D01*
X487237Y604263D01*
X486308Y603550D01*
X485595Y602622D01*
X485147Y601540D01*
X484995Y600380D01*
X485147Y599219D01*
X485595Y598138D01*
X486308Y597210D01*
X487237Y596497D01*
X488318Y596049D01*
X489478Y595896D01*
X490639Y596049D01*
X491720Y596497D01*
X492649Y597210D01*
X493361Y598138D01*
X493809Y599219D01*
X493962Y600380D01*
X493809Y601540D01*
X493361Y602622D01*
X492649Y603550D01*
X491720Y604263D01*
X490639Y604711D01*
X489478Y604864D01*
D02*
G37*
G36*
X479340Y604823D02*
X478954Y604794D01*
X478571Y604732D01*
X478195Y604636D01*
X477829Y604508D01*
X477476Y604349D01*
X477137Y604159D01*
X476817Y603940D01*
X476517Y603695D01*
X476239Y603424D01*
X475986Y603130D01*
X475760Y602815D01*
X475562Y602482D01*
X475393Y602133D01*
X475256Y601770D01*
X475151Y601397D01*
X475079Y601016D01*
X475040Y600630D01*
X475035Y600242D01*
X475064Y599855D01*
X475127Y599473D01*
X475222Y599097D01*
X475350Y598731D01*
X475510Y598377D01*
X475700Y598039D01*
X475918Y597718D01*
X476163Y597418D01*
X476434Y597141D01*
X476728Y596888D01*
X477043Y596661D01*
X477376Y596463D01*
X477726Y596295D01*
X478088Y596158D01*
Y596158D01*
Y590881D01*
X475831D01*
Y585180D01*
X483146D01*
Y590881D01*
X480889D01*
Y596164D01*
X481128Y596252D01*
X481481Y596411D01*
X481819Y596601D01*
X482140Y596819D01*
X482440Y597065D01*
X482718Y597336D01*
X482971Y597630D01*
X483197Y597944D01*
X483395Y598278D01*
X483564Y598627D01*
X483701Y598990D01*
X483806Y599363D01*
X483878Y599744D01*
X483917Y600130D01*
X483922Y600518D01*
X483893Y600905D01*
X483830Y601287D01*
X483735Y601663D01*
X483606Y602029D01*
X483447Y602383D01*
X483257Y602721D01*
X483039Y603041D01*
X482793Y603342D01*
X482523Y603619D01*
X482229Y603872D01*
X481914Y604099D01*
X481580Y604297D01*
X481231Y604465D01*
X480868Y604602D01*
X480495Y604707D01*
X480114Y604779D01*
X479728Y604818D01*
X479340Y604823D01*
D02*
G37*
G36*
X599609Y601918D02*
X597716Y601731D01*
X595895Y601179D01*
X594217Y600282D01*
X592746Y599075D01*
X591539Y597605D01*
X590642Y595927D01*
X590090Y594106D01*
X589904Y592213D01*
X590090Y590319D01*
X590642Y588499D01*
X591539Y586821D01*
X592746Y585350D01*
X594217Y584143D01*
X595895Y583246D01*
X597716Y582694D01*
X599609Y582508D01*
X601502Y582694D01*
X603323Y583246D01*
X605001Y584143D01*
X606471Y585350D01*
X607679Y586821D01*
X608575Y588499D01*
X609128Y590319D01*
X609314Y592213D01*
X609128Y594106D01*
X608575Y595927D01*
X607679Y597605D01*
X606471Y599075D01*
X605001Y600282D01*
X603323Y601179D01*
X601502Y601731D01*
X599609Y601918D01*
D02*
G37*
G36*
X389176Y580245D02*
X387938Y580123D01*
X386748Y579762D01*
X385651Y579176D01*
X384689Y578386D01*
X383900Y577425D01*
X383314Y576328D01*
X382953Y575137D01*
X382831Y573899D01*
X382953Y572661D01*
X383314Y571471D01*
X383900Y570374D01*
X384689Y569412D01*
X385651Y568623D01*
X386748Y568037D01*
X387938Y567675D01*
X389176Y567553D01*
X390414Y567675D01*
X391605Y568037D01*
X392702Y568623D01*
X393664Y569412D01*
X394453Y570374D01*
X395039Y571471D01*
X395400Y572661D01*
X395522Y573899D01*
X395400Y575137D01*
X395039Y576328D01*
X394453Y577425D01*
X393664Y578386D01*
X392702Y579176D01*
X391605Y579762D01*
X390414Y580123D01*
X389176Y580245D01*
D02*
G37*
G36*
X713625Y571245D02*
X712542Y571102D01*
X711532Y570684D01*
X710666Y570019D01*
X710000Y569152D01*
X709582Y568142D01*
X709440Y567059D01*
X709582Y565976D01*
X710000Y564966D01*
X710666Y564099D01*
X711532Y563434D01*
X712542Y563016D01*
X713625Y562873D01*
X714709Y563016D01*
X715718Y563434D01*
X716585Y564099D01*
X717250Y564966D01*
X717668Y565976D01*
X717811Y567059D01*
X717668Y568142D01*
X717250Y569152D01*
X716585Y570019D01*
X715718Y570684D01*
X714709Y571102D01*
X713625Y571245D01*
D02*
G37*
G36*
X703625D02*
X702542Y571102D01*
X701532Y570684D01*
X700666Y570019D01*
X700000Y569152D01*
X699582Y568142D01*
X699440Y567059D01*
X699582Y565976D01*
X700000Y564966D01*
X700666Y564099D01*
X701532Y563434D01*
X702542Y563016D01*
X703625Y562873D01*
X704708Y563016D01*
X705718Y563434D01*
X706585Y564099D01*
X707250Y564966D01*
X707668Y565976D01*
X707811Y567059D01*
X707668Y568142D01*
X707250Y569152D01*
X706585Y570019D01*
X705718Y570684D01*
X704708Y571102D01*
X703625Y571245D01*
D02*
G37*
G36*
X693625D02*
X692542Y571102D01*
X691532Y570684D01*
X690665Y570019D01*
X690000Y569152D01*
X689582Y568142D01*
X689440Y567059D01*
X689582Y565976D01*
X690000Y564966D01*
X690665Y564099D01*
X691532Y563434D01*
X692542Y563016D01*
X693625Y562873D01*
X694708Y563016D01*
X695718Y563434D01*
X696585Y564099D01*
X697250Y564966D01*
X697668Y565976D01*
X697811Y567059D01*
X697668Y568142D01*
X697250Y569152D01*
X696585Y570019D01*
X695718Y570684D01*
X694708Y571102D01*
X693625Y571245D01*
D02*
G37*
G36*
X683625D02*
X682542Y571102D01*
X681532Y570684D01*
X680665Y570019D01*
X680000Y569152D01*
X679582Y568142D01*
X679440Y567059D01*
X679582Y565976D01*
X680000Y564966D01*
X680665Y564099D01*
X681532Y563434D01*
X682542Y563016D01*
X683625Y562873D01*
X684708Y563016D01*
X685718Y563434D01*
X686585Y564099D01*
X687250Y564966D01*
X687668Y565976D01*
X687811Y567059D01*
X687668Y568142D01*
X687250Y569152D01*
X686585Y570019D01*
X685718Y570684D01*
X684708Y571102D01*
X683625Y571245D01*
D02*
G37*
G36*
X673625D02*
X672542Y571102D01*
X671532Y570684D01*
X670666Y570019D01*
X670000Y569152D01*
X669582Y568142D01*
X669440Y567059D01*
X669582Y565976D01*
X670000Y564966D01*
X670666Y564099D01*
X671532Y563434D01*
X672542Y563016D01*
X673625Y562873D01*
X674709Y563016D01*
X675718Y563434D01*
X676585Y564099D01*
X677250Y564966D01*
X677668Y565976D01*
X677811Y567059D01*
X677668Y568142D01*
X677250Y569152D01*
X676585Y570019D01*
X675718Y570684D01*
X674709Y571102D01*
X673625Y571245D01*
D02*
G37*
G36*
X643625D02*
X642542Y571102D01*
X641532Y570684D01*
X640665Y570019D01*
X640000Y569152D01*
X639582Y568142D01*
X639440Y567059D01*
X639582Y565976D01*
X640000Y564966D01*
X640665Y564099D01*
X641532Y563434D01*
X642542Y563016D01*
X643625Y562873D01*
X644708Y563016D01*
X645718Y563434D01*
X646585Y564099D01*
X647250Y564966D01*
X647668Y565976D01*
X647811Y567059D01*
X647668Y568142D01*
X647250Y569152D01*
X646585Y570019D01*
X645718Y570684D01*
X644708Y571102D01*
X643625Y571245D01*
D02*
G37*
G36*
X633625D02*
X632542Y571102D01*
X631532Y570684D01*
X630665Y570019D01*
X630000Y569152D01*
X629582Y568142D01*
X629440Y567059D01*
X629582Y565976D01*
X630000Y564966D01*
X630665Y564099D01*
X631532Y563434D01*
X632542Y563016D01*
X633625Y562873D01*
X634708Y563016D01*
X635718Y563434D01*
X636585Y564099D01*
X637250Y564966D01*
X637668Y565976D01*
X637811Y567059D01*
X637668Y568142D01*
X637250Y569152D01*
X636585Y570019D01*
X635718Y570684D01*
X634708Y571102D01*
X633625Y571245D01*
D02*
G37*
G36*
X623625D02*
X622542Y571102D01*
X621532Y570684D01*
X620666Y570019D01*
X620000Y569152D01*
X619582Y568142D01*
X619440Y567059D01*
X619582Y565976D01*
X620000Y564966D01*
X620666Y564099D01*
X621532Y563434D01*
X622542Y563016D01*
X623625Y562873D01*
X624709Y563016D01*
X625718Y563434D01*
X626585Y564099D01*
X627250Y564966D01*
X627668Y565976D01*
X627811Y567059D01*
X627668Y568142D01*
X627250Y569152D01*
X626585Y570019D01*
X625718Y570684D01*
X624709Y571102D01*
X623625Y571245D01*
D02*
G37*
G36*
X603625D02*
X602542Y571102D01*
X601532Y570684D01*
X600666Y570019D01*
X600000Y569152D01*
X599582Y568142D01*
X599440Y567059D01*
X599582Y565976D01*
X600000Y564966D01*
X600666Y564099D01*
X601532Y563434D01*
X602542Y563016D01*
X603625Y562873D01*
X604708Y563016D01*
X605718Y563434D01*
X606585Y564099D01*
X607250Y564966D01*
X607668Y565976D01*
X607811Y567059D01*
X607668Y568142D01*
X607250Y569152D01*
X606585Y570019D01*
X605718Y570684D01*
X604708Y571102D01*
X603625Y571245D01*
D02*
G37*
G36*
X593625D02*
X592542Y571102D01*
X591532Y570684D01*
X590665Y570019D01*
X590000Y569152D01*
X589582Y568142D01*
X589440Y567059D01*
X589582Y565976D01*
X590000Y564966D01*
X590665Y564099D01*
X591532Y563434D01*
X592542Y563016D01*
X593625Y562873D01*
X594708Y563016D01*
X595718Y563434D01*
X596585Y564099D01*
X597250Y564966D01*
X597668Y565976D01*
X597811Y567059D01*
X597668Y568142D01*
X597250Y569152D01*
X596585Y570019D01*
X595718Y570684D01*
X594708Y571102D01*
X593625Y571245D01*
D02*
G37*
G36*
X583625D02*
X582542Y571102D01*
X581532Y570684D01*
X580665Y570019D01*
X580000Y569152D01*
X579582Y568142D01*
X579440Y567059D01*
X579582Y565976D01*
X580000Y564966D01*
X580665Y564099D01*
X581532Y563434D01*
X582542Y563016D01*
X583625Y562873D01*
X584708Y563016D01*
X585718Y563434D01*
X586585Y564099D01*
X587250Y564966D01*
X587668Y565976D01*
X587811Y567059D01*
X587668Y568142D01*
X587250Y569152D01*
X586585Y570019D01*
X585718Y570684D01*
X584708Y571102D01*
X583625Y571245D01*
D02*
G37*
G36*
X543625D02*
X542542Y571102D01*
X541532Y570684D01*
X540665Y570019D01*
X540000Y569152D01*
X539582Y568142D01*
X539440Y567059D01*
X539582Y565976D01*
X540000Y564966D01*
X540665Y564099D01*
X541532Y563434D01*
X542542Y563016D01*
X543625Y562873D01*
X544708Y563016D01*
X545718Y563434D01*
X546585Y564099D01*
X547250Y564966D01*
X547668Y565976D01*
X547811Y567059D01*
X547668Y568142D01*
X547250Y569152D01*
X546585Y570019D01*
X545718Y570684D01*
X544708Y571102D01*
X543625Y571245D01*
D02*
G37*
G36*
X533625D02*
X532542Y571102D01*
X531532Y570684D01*
X530665Y570019D01*
X530000Y569152D01*
X529582Y568142D01*
X529440Y567059D01*
X529582Y565976D01*
X530000Y564966D01*
X530665Y564099D01*
X531532Y563434D01*
X532542Y563016D01*
X533625Y562873D01*
X534708Y563016D01*
X535718Y563434D01*
X536585Y564099D01*
X537250Y564966D01*
X537668Y565976D01*
X537811Y567059D01*
X537668Y568142D01*
X537250Y569152D01*
X536585Y570019D01*
X535718Y570684D01*
X534708Y571102D01*
X533625Y571245D01*
D02*
G37*
G36*
X713625Y561245D02*
X712542Y561102D01*
X711532Y560684D01*
X710666Y560019D01*
X710000Y559152D01*
X709582Y558142D01*
X709440Y557059D01*
X709582Y555976D01*
X710000Y554966D01*
X710666Y554099D01*
X711532Y553434D01*
X712542Y553016D01*
X713625Y552873D01*
X714709Y553016D01*
X715718Y553434D01*
X716585Y554099D01*
X717250Y554966D01*
X717668Y555976D01*
X717811Y557059D01*
X717668Y558142D01*
X717250Y559152D01*
X716585Y560019D01*
X715718Y560684D01*
X714709Y561102D01*
X713625Y561245D01*
D02*
G37*
G36*
X703625D02*
X702542Y561102D01*
X701532Y560684D01*
X700666Y560019D01*
X700000Y559152D01*
X699582Y558142D01*
X699440Y557059D01*
X699582Y555976D01*
X700000Y554966D01*
X700666Y554099D01*
X701532Y553434D01*
X702542Y553016D01*
X703625Y552873D01*
X704708Y553016D01*
X705718Y553434D01*
X706585Y554099D01*
X707250Y554966D01*
X707668Y555976D01*
X707811Y557059D01*
X707668Y558142D01*
X707250Y559152D01*
X706585Y560019D01*
X705718Y560684D01*
X704708Y561102D01*
X703625Y561245D01*
D02*
G37*
G36*
X693625D02*
X692542Y561102D01*
X691532Y560684D01*
X690665Y560019D01*
X690000Y559152D01*
X689582Y558142D01*
X689440Y557059D01*
X689582Y555976D01*
X690000Y554966D01*
X690665Y554099D01*
X691532Y553434D01*
X692542Y553016D01*
X693625Y552873D01*
X694708Y553016D01*
X695718Y553434D01*
X696585Y554099D01*
X697250Y554966D01*
X697668Y555976D01*
X697811Y557059D01*
X697668Y558142D01*
X697250Y559152D01*
X696585Y560019D01*
X695718Y560684D01*
X694708Y561102D01*
X693625Y561245D01*
D02*
G37*
G36*
X683625D02*
X682542Y561102D01*
X681532Y560684D01*
X680665Y560019D01*
X680000Y559152D01*
X679582Y558142D01*
X679440Y557059D01*
X679582Y555976D01*
X680000Y554966D01*
X680665Y554099D01*
X681532Y553434D01*
X682542Y553016D01*
X683625Y552873D01*
X684708Y553016D01*
X685718Y553434D01*
X686585Y554099D01*
X687250Y554966D01*
X687668Y555976D01*
X687811Y557059D01*
X687668Y558142D01*
X687250Y559152D01*
X686585Y560019D01*
X685718Y560684D01*
X684708Y561102D01*
X683625Y561245D01*
D02*
G37*
G36*
X673625D02*
X672542Y561102D01*
X671532Y560684D01*
X670666Y560019D01*
X670000Y559152D01*
X669582Y558142D01*
X669440Y557059D01*
X669582Y555976D01*
X670000Y554966D01*
X670666Y554099D01*
X671532Y553434D01*
X672542Y553016D01*
X673625Y552873D01*
X674709Y553016D01*
X675718Y553434D01*
X676585Y554099D01*
X677250Y554966D01*
X677668Y555976D01*
X677811Y557059D01*
X677668Y558142D01*
X677250Y559152D01*
X676585Y560019D01*
X675718Y560684D01*
X674709Y561102D01*
X673625Y561245D01*
D02*
G37*
G36*
X663625D02*
X662542Y561102D01*
X661532Y560684D01*
X660666Y560019D01*
X660000Y559152D01*
X659582Y558142D01*
X659440Y557059D01*
X659582Y555976D01*
X660000Y554966D01*
X660666Y554099D01*
X661532Y553434D01*
X662542Y553016D01*
X663625Y552873D01*
X664709Y553016D01*
X665718Y553434D01*
X666585Y554099D01*
X667250Y554966D01*
X667668Y555976D01*
X667811Y557059D01*
X667668Y558142D01*
X667250Y559152D01*
X666585Y560019D01*
X665718Y560684D01*
X664709Y561102D01*
X663625Y561245D01*
D02*
G37*
G36*
X643625D02*
X642542Y561102D01*
X641532Y560684D01*
X640665Y560019D01*
X640000Y559152D01*
X639582Y558142D01*
X639440Y557059D01*
X639582Y555976D01*
X640000Y554966D01*
X640665Y554099D01*
X641532Y553434D01*
X642542Y553016D01*
X643625Y552873D01*
X644708Y553016D01*
X645718Y553434D01*
X646585Y554099D01*
X647250Y554966D01*
X647668Y555976D01*
X647811Y557059D01*
X647668Y558142D01*
X647250Y559152D01*
X646585Y560019D01*
X645718Y560684D01*
X644708Y561102D01*
X643625Y561245D01*
D02*
G37*
G36*
X633625D02*
X632542Y561102D01*
X631532Y560684D01*
X630665Y560019D01*
X630000Y559152D01*
X629582Y558142D01*
X629440Y557059D01*
X629582Y555976D01*
X630000Y554966D01*
X630665Y554099D01*
X631532Y553434D01*
X632542Y553016D01*
X633625Y552873D01*
X634708Y553016D01*
X635718Y553434D01*
X636585Y554099D01*
X637250Y554966D01*
X637668Y555976D01*
X637811Y557059D01*
X637668Y558142D01*
X637250Y559152D01*
X636585Y560019D01*
X635718Y560684D01*
X634708Y561102D01*
X633625Y561245D01*
D02*
G37*
G36*
X623625D02*
X622542Y561102D01*
X621532Y560684D01*
X620666Y560019D01*
X620000Y559152D01*
X619582Y558142D01*
X619440Y557059D01*
X619582Y555976D01*
X620000Y554966D01*
X620666Y554099D01*
X621532Y553434D01*
X622542Y553016D01*
X623625Y552873D01*
X624709Y553016D01*
X625718Y553434D01*
X626585Y554099D01*
X627250Y554966D01*
X627668Y555976D01*
X627811Y557059D01*
X627668Y558142D01*
X627250Y559152D01*
X626585Y560019D01*
X625718Y560684D01*
X624709Y561102D01*
X623625Y561245D01*
D02*
G37*
G36*
X613625D02*
X612542Y561102D01*
X611532Y560684D01*
X610666Y560019D01*
X610000Y559152D01*
X609582Y558142D01*
X609440Y557059D01*
X609582Y555976D01*
X610000Y554966D01*
X610666Y554099D01*
X611532Y553434D01*
X612542Y553016D01*
X613625Y552873D01*
X614709Y553016D01*
X615718Y553434D01*
X616585Y554099D01*
X617250Y554966D01*
X617668Y555976D01*
X617811Y557059D01*
X617668Y558142D01*
X617250Y559152D01*
X616585Y560019D01*
X615718Y560684D01*
X614709Y561102D01*
X613625Y561245D01*
D02*
G37*
G36*
X603625D02*
X602542Y561102D01*
X601532Y560684D01*
X600666Y560019D01*
X600000Y559152D01*
X599582Y558142D01*
X599440Y557059D01*
X599582Y555976D01*
X600000Y554966D01*
X600666Y554099D01*
X601532Y553434D01*
X602542Y553016D01*
X603625Y552873D01*
X604708Y553016D01*
X605718Y553434D01*
X606585Y554099D01*
X607250Y554966D01*
X607668Y555976D01*
X607811Y557059D01*
X607668Y558142D01*
X607250Y559152D01*
X606585Y560019D01*
X605718Y560684D01*
X604708Y561102D01*
X603625Y561245D01*
D02*
G37*
G36*
X593625D02*
X592542Y561102D01*
X591532Y560684D01*
X590665Y560019D01*
X590000Y559152D01*
X589582Y558142D01*
X589440Y557059D01*
X589582Y555976D01*
X590000Y554966D01*
X590665Y554099D01*
X591532Y553434D01*
X592542Y553016D01*
X593625Y552873D01*
X594708Y553016D01*
X595718Y553434D01*
X596585Y554099D01*
X597250Y554966D01*
X597668Y555976D01*
X597811Y557059D01*
X597668Y558142D01*
X597250Y559152D01*
X596585Y560019D01*
X595718Y560684D01*
X594708Y561102D01*
X593625Y561245D01*
D02*
G37*
G36*
X583625D02*
X582542Y561102D01*
X581532Y560684D01*
X580665Y560019D01*
X580000Y559152D01*
X579582Y558142D01*
X579440Y557059D01*
X579582Y555976D01*
X580000Y554966D01*
X580665Y554099D01*
X581532Y553434D01*
X582542Y553016D01*
X583625Y552873D01*
X584708Y553016D01*
X585718Y553434D01*
X586585Y554099D01*
X587250Y554966D01*
X587668Y555976D01*
X587811Y557059D01*
X587668Y558142D01*
X587250Y559152D01*
X586585Y560019D01*
X585718Y560684D01*
X584708Y561102D01*
X583625Y561245D01*
D02*
G37*
G36*
X543625D02*
X542542Y561102D01*
X541532Y560684D01*
X540665Y560019D01*
X540000Y559152D01*
X539582Y558142D01*
X539440Y557059D01*
X539582Y555976D01*
X540000Y554966D01*
X540665Y554099D01*
X541532Y553434D01*
X542542Y553016D01*
X543625Y552873D01*
X544708Y553016D01*
X545718Y553434D01*
X546585Y554099D01*
X547250Y554966D01*
X547668Y555976D01*
X547811Y557059D01*
X547668Y558142D01*
X547250Y559152D01*
X546585Y560019D01*
X545718Y560684D01*
X544708Y561102D01*
X543625Y561245D01*
D02*
G37*
G36*
X533625D02*
X532542Y561102D01*
X531532Y560684D01*
X530665Y560019D01*
X530000Y559152D01*
X529582Y558142D01*
X529440Y557059D01*
X529582Y555976D01*
X530000Y554966D01*
X530665Y554099D01*
X531532Y553434D01*
X532542Y553016D01*
X533625Y552873D01*
X534708Y553016D01*
X535718Y553434D01*
X536585Y554099D01*
X537250Y554966D01*
X537668Y555976D01*
X537811Y557059D01*
X537668Y558142D01*
X537250Y559152D01*
X536585Y560019D01*
X535718Y560684D01*
X534708Y561102D01*
X533625Y561245D01*
D02*
G37*
G36*
X644884Y525137D02*
X643377Y524988D01*
X641927Y524549D01*
X640591Y523835D01*
X639420Y522874D01*
X638459Y521703D01*
X637745Y520367D01*
X637306Y518917D01*
X637157Y517410D01*
X637306Y515902D01*
X637745Y514453D01*
X638459Y513117D01*
X639420Y511946D01*
X640591Y510985D01*
X641927Y510271D01*
X643377Y509831D01*
X644884Y509682D01*
X646392Y509831D01*
X647842Y510271D01*
X649177Y510985D01*
X650348Y511946D01*
X651309Y513117D01*
X652023Y514453D01*
X652463Y515902D01*
X652612Y517410D01*
X652463Y518917D01*
X652023Y520367D01*
X651309Y521703D01*
X650348Y522874D01*
X649177Y523835D01*
X647842Y524549D01*
X646392Y524988D01*
X644884Y525137D01*
D02*
G37*
G36*
X402853Y542521D02*
X384223D01*
X380116Y538413D01*
Y348773D01*
X383292Y345596D01*
X392296D01*
X399188Y338704D01*
X408441D01*
X410127Y340390D01*
Y340837D01*
X416184D01*
Y371598D01*
X410127D01*
Y535246D01*
X402853Y542521D01*
D02*
G37*
G36*
X385369Y341758D02*
X384160Y341599D01*
X383032Y341132D01*
X382064Y340389D01*
X381321Y339421D01*
X380855Y338294D01*
X380695Y337084D01*
X380855Y335875D01*
X381321Y334747D01*
X382064Y333779D01*
X383032Y333036D01*
X384160Y332569D01*
X385369Y332410D01*
X386579Y332569D01*
X387706Y333036D01*
X388674Y333779D01*
X389417Y334747D01*
X389884Y335875D01*
X390043Y337084D01*
X389884Y338294D01*
X389417Y339421D01*
X388674Y340389D01*
X387706Y341132D01*
X386579Y341599D01*
X385369Y341758D01*
D02*
G37*
G36*
X549351Y664823D02*
X548964Y664795D01*
X548582Y664734D01*
X548206Y664639D01*
X547839Y664512D01*
X547485Y664353D01*
X547147Y664164D01*
X546826Y663947D01*
X546525Y663702D01*
X546246Y663432D01*
X545993Y663139D01*
X545765Y662824D01*
X545567Y662492D01*
X545398Y662143D01*
X545259Y661780D01*
X545153Y661407D01*
X545080Y661026D01*
X545041Y660640D01*
X545035Y660253D01*
X545063Y659866D01*
X545124Y659483D01*
X545219Y659107D01*
X545346Y658741D01*
X545505Y658387D01*
X545694Y658048D01*
X545912Y657727D01*
X546156Y657426D01*
X546426Y657148D01*
X546720Y656894D01*
X547034Y656667D01*
X547367Y656468D01*
X547716Y656299D01*
X548078Y656161D01*
X548078Y656161D01*
X548078D01*
X548078D01*
Y650297D01*
X545491D01*
Y636400D01*
X553344D01*
Y638388D01*
X573554D01*
X594460Y659295D01*
X653290D01*
X653297Y659295D01*
X653332Y659292D01*
X653367Y659287D01*
X653400Y659279D01*
X653434Y659268D01*
X653466Y659254D01*
X653496Y659237D01*
X653525Y659218D01*
X653552Y659196D01*
X653578Y659172D01*
X653601Y659146D01*
X653622Y659118D01*
X653640Y659088D01*
X653655Y659057D01*
X653668Y659024D01*
X653678Y658991D01*
X653685Y658957D01*
X653689Y658922D01*
X653690Y658887D01*
X653687Y658852D01*
X653682Y658818D01*
X653674Y658784D01*
X653663Y658751D01*
X653649Y658719D01*
X653632Y658688D01*
X653613Y658659D01*
X653591Y658632D01*
X653567Y658606D01*
X653541Y658583D01*
X653513Y658563D01*
X653513Y658563D01*
X653402Y658485D01*
X653153Y658286D01*
X652922Y658067D01*
X652711Y657828D01*
X652522Y657572D01*
X652356Y657301D01*
X652215Y657015D01*
X652098Y656719D01*
X652008Y656414D01*
X651945Y656102D01*
X651909Y655785D01*
X651901Y655467D01*
X651921Y655149D01*
X651968Y654834D01*
X652043Y654525D01*
X652145Y654223D01*
X652272Y653931D01*
X652424Y653651D01*
X652600Y653386D01*
X652799Y653137D01*
X653018Y652906D01*
X653257Y652696D01*
X653513Y652506D01*
X653785Y652340D01*
X654070Y652199D01*
X654366Y652082D01*
X654671Y651992D01*
X654984Y651929D01*
X655300Y651893D01*
X655618Y651885D01*
X655936Y651905D01*
X656251Y651953D01*
X656561Y652027D01*
X656862Y652129D01*
X657154Y652256D01*
X657434Y652408D01*
X657699Y652584D01*
X657948Y652783D01*
X658179Y653002D01*
X658390Y653241D01*
X658579Y653497D01*
X658745Y653769D01*
X658886Y654054D01*
X659003Y654350D01*
X659093Y654656D01*
X659156Y654968D01*
X659192Y655284D01*
X659200Y655602D01*
X659180Y655920D01*
X659132Y656235D01*
X659058Y656545D01*
X658956Y656846D01*
X658829Y657138D01*
X658677Y657418D01*
X658501Y657683D01*
X658302Y657932D01*
X658083Y658163D01*
X657844Y658374D01*
X657588Y658563D01*
X657588Y658563D01*
X657588Y658563D01*
X657582Y658567D01*
X657554Y658588D01*
X657528Y658612D01*
X657505Y658638D01*
X657484Y658665D01*
X657465Y658695D01*
X657449Y658726D01*
X657435Y658758D01*
X657425Y658791D01*
X657417Y658825D01*
X657413Y658860D01*
X657411Y658895D01*
X657413Y658929D01*
X657417Y658964D01*
X657425Y658998D01*
X657435Y659031D01*
X657449Y659064D01*
X657465Y659095D01*
X657484Y659124D01*
X657505Y659152D01*
X657528Y659177D01*
X657554Y659201D01*
X657582Y659222D01*
X657611Y659241D01*
X657642Y659257D01*
X657675Y659270D01*
X657708Y659281D01*
X657742Y659289D01*
X657776Y659293D01*
X657811Y659295D01*
X698365D01*
X746228Y611432D01*
Y373152D01*
X707639Y334563D01*
Y329823D01*
X707639Y329805D01*
X707635Y329771D01*
X707629Y329736D01*
X707620Y329703D01*
X707608Y329670D01*
X707593Y329638D01*
X707576Y329608D01*
X707556Y329579D01*
X707533Y329553D01*
X707509Y329528D01*
X707482Y329506D01*
X707453Y329486D01*
X707423Y329468D01*
X707392Y329454D01*
X707359Y329442D01*
X707325Y329433D01*
X707291Y329427D01*
X707256Y329424D01*
X707221Y329424D01*
X707186Y329427D01*
X707152Y329433D01*
X707118Y329442D01*
X707085Y329454D01*
X707054Y329469D01*
X707023Y329486D01*
X706995Y329506D01*
X706968Y329529D01*
X706944Y329554D01*
X706921Y329580D01*
X706921Y329580D01*
X706914Y329590D01*
X706681Y329867D01*
X706424Y330123D01*
X706146Y330355D01*
X705850Y330562D01*
X705536Y330743D01*
X705207Y330895D01*
X704867Y331019D01*
X704517Y331112D01*
X704161Y331174D01*
X703800Y331205D01*
X703438Y331205D01*
X703077Y331172D01*
X702721Y331109D01*
X702371Y331015D01*
X702031Y330890D01*
X701704Y330737D01*
X701390Y330556D01*
X701094Y330347D01*
X700817Y330114D01*
X700562Y329858D01*
X700329Y329580D01*
X700122Y329283D01*
X699941Y328970D01*
X699789Y328641D01*
X699666Y328301D01*
X699572Y327951D01*
X699510Y327594D01*
X699479Y327234D01*
X699480Y326872D01*
X699512Y326511D01*
X699575Y326155D01*
X699669Y325805D01*
X699794Y325465D01*
X699947Y325137D01*
X700129Y324824D01*
X700337Y324528D01*
X700570Y324251D01*
X700826Y323995D01*
X701104Y323763D01*
X701401Y323556D01*
X701715Y323375D01*
X702043Y323223D01*
X702383Y323099D01*
X702733Y323006D01*
X703090Y322944D01*
X703450Y322913D01*
X703812Y322913D01*
X704173Y322945D01*
X704529Y323009D01*
X704879Y323103D01*
X705219Y323228D01*
X705547Y323381D01*
X705860Y323562D01*
X706156Y323770D01*
X706433Y324004D01*
X706689Y324260D01*
X706921Y324538D01*
X706921Y324538D01*
X706921Y324538D01*
X706932Y324552D01*
X706956Y324577D01*
X706982Y324601D01*
X707010Y324622D01*
X707039Y324641D01*
X707070Y324657D01*
X707102Y324671D01*
X707135Y324681D01*
X707169Y324689D01*
X707204Y324693D01*
X707239Y324695D01*
X707274Y324693D01*
X707308Y324689D01*
X707342Y324681D01*
X707376Y324671D01*
X707408Y324657D01*
X707439Y324641D01*
X707468Y324622D01*
X707496Y324601D01*
X707522Y324577D01*
X707545Y324552D01*
X707567Y324524D01*
X707585Y324495D01*
X707601Y324464D01*
X707615Y324431D01*
X707625Y324398D01*
X707633Y324364D01*
X707637Y324329D01*
X707639Y324295D01*
Y323053D01*
X705399Y320813D01*
X705274Y320867D01*
X705152Y320918D01*
X704810Y321036D01*
X704459Y321124D01*
X704101Y321181D01*
X703740Y321207D01*
X703378Y321201D01*
X703018Y321164D01*
X702662Y321096D01*
X702314Y320996D01*
X701976Y320867D01*
X701650Y320709D01*
X701340Y320523D01*
X701047Y320310D01*
X700773Y320073D01*
X700521Y319813D01*
X700293Y319532D01*
X700090Y319233D01*
X699914Y318916D01*
X699766Y318586D01*
X699648Y318244D01*
X699560Y317892D01*
X699503Y317535D01*
X699477Y317174D01*
X699483Y316812D01*
X699520Y316452D01*
X699589Y316096D01*
X699688Y315748D01*
X699817Y315410D01*
X699975Y315084D01*
X700161Y314774D01*
X700374Y314480D01*
X700611Y314207D01*
X700871Y313955D01*
X701152Y313727D01*
X701452Y313524D01*
X701768Y313348D01*
X702099Y313200D01*
X702441Y313082D01*
X702792Y312994D01*
X703149Y312937D01*
X703510Y312911D01*
X703872Y312917D01*
X704233Y312954D01*
X704588Y313022D01*
X704936Y313122D01*
X705274Y313251D01*
X705600Y313409D01*
X705910Y313595D01*
X706204Y313808D01*
X706477Y314045D01*
X706729Y314305D01*
X706957Y314586D01*
X707160Y314885D01*
X707336Y315202D01*
X707484Y315532D01*
X707602Y315875D01*
X707690Y316226D01*
X707748Y316583D01*
X707773Y316944D01*
X707768Y317306D01*
X707730Y317666D01*
X707662Y318022D01*
X707562Y318370D01*
X707433Y318708D01*
X707433Y318708D01*
X707379Y318833D01*
X710439Y321893D01*
Y323462D01*
X710440Y323481D01*
X710443Y323516D01*
X710449Y323550D01*
X710458Y323584D01*
X710470Y323617D01*
X710485Y323648D01*
X710503Y323678D01*
X710523Y323707D01*
X710546Y323733D01*
X710570Y323758D01*
X710597Y323780D01*
X710626Y323800D01*
X710656Y323817D01*
X710688Y323832D01*
X710721Y323844D01*
X710754Y323853D01*
X710789Y323859D01*
X710824Y323862D01*
X710859Y323861D01*
X710893Y323858D01*
X710928Y323852D01*
X710961Y323843D01*
X710994Y323831D01*
X711026Y323816D01*
X711056Y323798D01*
X711084Y323778D01*
Y323778D01*
X711084Y323778D01*
X711084Y323778D01*
D01*
Y323778D01*
X711084Y323778D01*
X711152Y323727D01*
X711452Y323524D01*
X711768Y323348D01*
X712099Y323200D01*
X712441Y323082D01*
X712792Y322994D01*
X713149Y322937D01*
X713510Y322911D01*
X713872Y322917D01*
X714232Y322954D01*
X714588Y323022D01*
X714936Y323122D01*
X715274Y323251D01*
X715274Y323251D01*
X715399Y323305D01*
X719403Y319301D01*
Y314783D01*
X716249Y311629D01*
X521933D01*
X480889Y352673D01*
Y578172D01*
X483146D01*
Y583873D01*
X475831D01*
Y578172D01*
X478088D01*
Y351513D01*
X520773Y308828D01*
X717409D01*
X722203Y313623D01*
Y320461D01*
X717379Y325285D01*
X717433Y325410D01*
X717466Y325488D01*
X717589Y325829D01*
X717681Y326179D01*
X717742Y326536D01*
X717772Y326897D01*
X717770Y327259D01*
X717737Y327619D01*
X717673Y327975D01*
X717577Y328325D01*
X717452Y328664D01*
X717298Y328992D01*
X717115Y329304D01*
X716906Y329600D01*
X716672Y329876D01*
X716415Y330131D01*
X716137Y330363D01*
X715839Y330569D01*
X715525Y330749D01*
X715196Y330900D01*
X714855Y331022D01*
X714505Y331114D01*
X714148Y331176D01*
X713788Y331206D01*
X713426Y331204D01*
X713065Y331171D01*
X712709Y331106D01*
X712360Y331011D01*
X712020Y330886D01*
X711692Y330731D01*
X711380Y330549D01*
X711084Y330340D01*
X711084Y330340D01*
X711069Y330328D01*
X711039Y330310D01*
X711008Y330294D01*
X710976Y330280D01*
X710943Y330270D01*
X710909Y330262D01*
X710874Y330258D01*
X710839Y330256D01*
X710804Y330258D01*
X710770Y330262D01*
X710736Y330270D01*
X710703Y330280D01*
X710670Y330294D01*
X710639Y330310D01*
X710610Y330328D01*
X710582Y330350D01*
X710557Y330373D01*
X710533Y330399D01*
X710512Y330427D01*
X710493Y330456D01*
X710477Y330487D01*
X710463Y330519D01*
X710453Y330553D01*
X710445Y330587D01*
X710441Y330621D01*
X710439Y330656D01*
Y333403D01*
X749028Y371992D01*
Y612592D01*
X699525Y662095D01*
X593300D01*
X572394Y641188D01*
X553344D01*
Y650297D01*
X550879D01*
Y656161D01*
X551118Y656248D01*
X551472Y656406D01*
X551810Y656595D01*
X552131Y656813D01*
X552432Y657058D01*
X552710Y657328D01*
X552964Y657621D01*
X553191Y657935D01*
X553390Y658268D01*
X553559Y658617D01*
X553697Y658980D01*
X553803Y659353D01*
X553876Y659734D01*
X553916Y660119D01*
X553922Y660507D01*
X553894Y660894D01*
X553832Y661277D01*
X553737Y661653D01*
X553610Y662019D01*
X553452Y662373D01*
X553263Y662712D01*
X553045Y663033D01*
X552801Y663334D01*
X552530Y663612D01*
X552237Y663866D01*
X551923Y664093D01*
X551590Y664292D01*
X551241Y664461D01*
X550879Y664599D01*
X550506Y664705D01*
X550125Y664778D01*
X549739Y664818D01*
X549351Y664823D01*
D02*
G37*
G36*
X633625Y330740D02*
X632672Y330615D01*
X631785Y330247D01*
X631022Y329662D01*
X630437Y328900D01*
X630069Y328012D01*
X629944Y327059D01*
X630069Y326106D01*
X630437Y325218D01*
X631022Y324456D01*
X631785Y323871D01*
X632672Y323503D01*
X633625Y323378D01*
X634578Y323503D01*
X635466Y323871D01*
X636228Y324456D01*
X636813Y325218D01*
X637181Y326106D01*
X637306Y327059D01*
X637181Y328012D01*
X636813Y328900D01*
X636228Y329662D01*
X635466Y330247D01*
X634578Y330615D01*
X633625Y330740D01*
D02*
G37*
G36*
X623625D02*
X622672Y330615D01*
X621785Y330247D01*
X621022Y329662D01*
X620437Y328900D01*
X620069Y328012D01*
X619944Y327059D01*
X620069Y326106D01*
X620437Y325218D01*
X621022Y324456D01*
X621785Y323871D01*
X622672Y323503D01*
X623625Y323378D01*
X624578Y323503D01*
X625466Y323871D01*
X626228Y324456D01*
X626813Y325218D01*
X627181Y326106D01*
X627307Y327059D01*
X627181Y328012D01*
X626813Y328900D01*
X626228Y329662D01*
X625466Y330247D01*
X624578Y330615D01*
X623625Y330740D01*
D02*
G37*
G36*
X563625D02*
X562672Y330615D01*
X561785Y330247D01*
X561022Y329662D01*
X560437Y328900D01*
X560069Y328012D01*
X559944Y327059D01*
X560069Y326106D01*
X560437Y325218D01*
X561022Y324456D01*
X561785Y323871D01*
X562672Y323503D01*
X563625Y323378D01*
X564578Y323503D01*
X565466Y323871D01*
X566228Y324456D01*
X566813Y325218D01*
X567181Y326106D01*
X567307Y327059D01*
X567181Y328012D01*
X566813Y328900D01*
X566228Y329662D01*
X565466Y330247D01*
X564578Y330615D01*
X563625Y330740D01*
D02*
G37*
G36*
X693625Y331245D02*
X692542Y331102D01*
X691532Y330684D01*
X690665Y330019D01*
X690000Y329152D01*
X689582Y328142D01*
X689440Y327059D01*
X689582Y325976D01*
X690000Y324966D01*
X690665Y324099D01*
X691532Y323434D01*
X692542Y323016D01*
X693625Y322873D01*
X694708Y323016D01*
X695718Y323434D01*
X696585Y324099D01*
X697250Y324966D01*
X697668Y325976D01*
X697811Y327059D01*
X697668Y328142D01*
X697250Y329152D01*
X696585Y330019D01*
X695718Y330684D01*
X694708Y331102D01*
X693625Y331245D01*
D02*
G37*
G36*
X683625D02*
X682542Y331102D01*
X681532Y330684D01*
X680665Y330019D01*
X680000Y329152D01*
X679582Y328142D01*
X679440Y327059D01*
X679582Y325976D01*
X680000Y324966D01*
X680665Y324099D01*
X681532Y323434D01*
X682542Y323016D01*
X683625Y322873D01*
X684708Y323016D01*
X685718Y323434D01*
X686585Y324099D01*
X687250Y324966D01*
X687668Y325976D01*
X687811Y327059D01*
X687668Y328142D01*
X687250Y329152D01*
X686585Y330019D01*
X685718Y330684D01*
X684708Y331102D01*
X683625Y331245D01*
D02*
G37*
G36*
X663625D02*
X662542Y331102D01*
X661532Y330684D01*
X660666Y330019D01*
X660000Y329152D01*
X659582Y328142D01*
X659440Y327059D01*
X659582Y325976D01*
X660000Y324966D01*
X660666Y324099D01*
X661532Y323434D01*
X662542Y323016D01*
X663625Y322873D01*
X664709Y323016D01*
X665718Y323434D01*
X666585Y324099D01*
X667250Y324966D01*
X667668Y325976D01*
X667811Y327059D01*
X667668Y328142D01*
X667250Y329152D01*
X666585Y330019D01*
X665718Y330684D01*
X664709Y331102D01*
X663625Y331245D01*
D02*
G37*
G36*
X653625D02*
X652542Y331102D01*
X651532Y330684D01*
X650666Y330019D01*
X650000Y329152D01*
X649582Y328142D01*
X649440Y327059D01*
X649582Y325976D01*
X650000Y324966D01*
X650666Y324099D01*
X651532Y323434D01*
X652542Y323016D01*
X653625Y322873D01*
X654708Y323016D01*
X655718Y323434D01*
X656585Y324099D01*
X657250Y324966D01*
X657668Y325976D01*
X657811Y327059D01*
X657668Y328142D01*
X657250Y329152D01*
X656585Y330019D01*
X655718Y330684D01*
X654708Y331102D01*
X653625Y331245D01*
D02*
G37*
G36*
X643625D02*
X642542Y331102D01*
X641532Y330684D01*
X640665Y330019D01*
X640000Y329152D01*
X639582Y328142D01*
X639440Y327059D01*
X639582Y325976D01*
X640000Y324966D01*
X640665Y324099D01*
X641532Y323434D01*
X642542Y323016D01*
X643625Y322873D01*
X644708Y323016D01*
X645718Y323434D01*
X646585Y324099D01*
X647250Y324966D01*
X647668Y325976D01*
X647811Y327059D01*
X647668Y328142D01*
X647250Y329152D01*
X646585Y330019D01*
X645718Y330684D01*
X644708Y331102D01*
X643625Y331245D01*
D02*
G37*
G36*
X583625D02*
X582542Y331102D01*
X581532Y330684D01*
X580665Y330019D01*
X580000Y329152D01*
X579582Y328142D01*
X579440Y327059D01*
X579582Y325976D01*
X580000Y324966D01*
X580665Y324099D01*
X581532Y323434D01*
X582542Y323016D01*
X583625Y322873D01*
X584708Y323016D01*
X585718Y323434D01*
X586585Y324099D01*
X587250Y324966D01*
X587668Y325976D01*
X587811Y327059D01*
X587668Y328142D01*
X587250Y329152D01*
X586585Y330019D01*
X585718Y330684D01*
X584708Y331102D01*
X583625Y331245D01*
D02*
G37*
G36*
X573625D02*
X572542Y331102D01*
X571532Y330684D01*
X570666Y330019D01*
X570000Y329152D01*
X569582Y328142D01*
X569440Y327059D01*
X569582Y325976D01*
X570000Y324966D01*
X570666Y324099D01*
X571532Y323434D01*
X572542Y323016D01*
X573625Y322873D01*
X574709Y323016D01*
X575718Y323434D01*
X576585Y324099D01*
X577250Y324966D01*
X577668Y325976D01*
X577811Y327059D01*
X577668Y328142D01*
X577250Y329152D01*
X576585Y330019D01*
X575718Y330684D01*
X574709Y331102D01*
X573625Y331245D01*
D02*
G37*
G36*
X553625D02*
X552542Y331102D01*
X551532Y330684D01*
X550666Y330019D01*
X550000Y329152D01*
X549582Y328142D01*
X549440Y327059D01*
X549582Y325976D01*
X550000Y324966D01*
X550666Y324099D01*
X551532Y323434D01*
X552542Y323016D01*
X553625Y322873D01*
X554708Y323016D01*
X555718Y323434D01*
X556585Y324099D01*
X557250Y324966D01*
X557668Y325976D01*
X557811Y327059D01*
X557668Y328142D01*
X557250Y329152D01*
X556585Y330019D01*
X555718Y330684D01*
X554708Y331102D01*
X553625Y331245D01*
D02*
G37*
G36*
X543625D02*
X542542Y331102D01*
X541532Y330684D01*
X540665Y330019D01*
X540000Y329152D01*
X539582Y328142D01*
X539440Y327059D01*
X539582Y325976D01*
X540000Y324966D01*
X540665Y324099D01*
X541532Y323434D01*
X542542Y323016D01*
X543625Y322873D01*
X544708Y323016D01*
X545718Y323434D01*
X546585Y324099D01*
X547250Y324966D01*
X547668Y325976D01*
X547811Y327059D01*
X547668Y328142D01*
X547250Y329152D01*
X546585Y330019D01*
X545718Y330684D01*
X544708Y331102D01*
X543625Y331245D01*
D02*
G37*
G36*
X533625D02*
X532542Y331102D01*
X531532Y330684D01*
X530665Y330019D01*
X530000Y329152D01*
X529582Y328142D01*
X529440Y327059D01*
X529582Y325976D01*
X530000Y324966D01*
X530665Y324099D01*
X531532Y323434D01*
X532542Y323016D01*
X533625Y322873D01*
X534708Y323016D01*
X535718Y323434D01*
X536585Y324099D01*
X537250Y324966D01*
X537668Y325976D01*
X537811Y327059D01*
X537668Y328142D01*
X537250Y329152D01*
X536585Y330019D01*
X535718Y330684D01*
X534708Y331102D01*
X533625Y331245D01*
D02*
G37*
G36*
X623625Y320740D02*
X622672Y320615D01*
X621785Y320247D01*
X621022Y319662D01*
X620437Y318900D01*
X620069Y318012D01*
X619944Y317059D01*
X620069Y316106D01*
X620437Y315218D01*
X621022Y314456D01*
X621785Y313871D01*
X622672Y313503D01*
X623625Y313378D01*
X624578Y313503D01*
X625466Y313871D01*
X626228Y314456D01*
X626813Y315218D01*
X627181Y316106D01*
X627307Y317059D01*
X627181Y318012D01*
X626813Y318900D01*
X626228Y319662D01*
X625466Y320247D01*
X624578Y320615D01*
X623625Y320740D01*
D02*
G37*
G36*
X537775Y321209D02*
X529475D01*
Y312909D01*
X537775D01*
Y321209D01*
D02*
G37*
G36*
X713625Y321245D02*
X712542Y321102D01*
X711532Y320684D01*
X710666Y320019D01*
X710000Y319152D01*
X709582Y318142D01*
X709440Y317059D01*
X709582Y315976D01*
X710000Y314966D01*
X710666Y314099D01*
X711532Y313434D01*
X712542Y313016D01*
X713625Y312873D01*
X714709Y313016D01*
X715718Y313434D01*
X716585Y314099D01*
X717250Y314966D01*
X717668Y315976D01*
X717811Y317059D01*
X717668Y318142D01*
X717250Y319152D01*
X716585Y320019D01*
X715718Y320684D01*
X714709Y321102D01*
X713625Y321245D01*
D02*
G37*
G36*
X693625D02*
X692542Y321102D01*
X691532Y320684D01*
X690665Y320019D01*
X690000Y319152D01*
X689582Y318142D01*
X689440Y317059D01*
X689582Y315976D01*
X690000Y314966D01*
X690665Y314099D01*
X691532Y313434D01*
X692542Y313016D01*
X693625Y312873D01*
X694708Y313016D01*
X695718Y313434D01*
X696585Y314099D01*
X697250Y314966D01*
X697668Y315976D01*
X697811Y317059D01*
X697668Y318142D01*
X697250Y319152D01*
X696585Y320019D01*
X695718Y320684D01*
X694708Y321102D01*
X693625Y321245D01*
D02*
G37*
G36*
X683625D02*
X682542Y321102D01*
X681532Y320684D01*
X680665Y320019D01*
X680000Y319152D01*
X679582Y318142D01*
X679440Y317059D01*
X679582Y315976D01*
X680000Y314966D01*
X680665Y314099D01*
X681532Y313434D01*
X682542Y313016D01*
X683625Y312873D01*
X684708Y313016D01*
X685718Y313434D01*
X686585Y314099D01*
X687250Y314966D01*
X687668Y315976D01*
X687811Y317059D01*
X687668Y318142D01*
X687250Y319152D01*
X686585Y320019D01*
X685718Y320684D01*
X684708Y321102D01*
X683625Y321245D01*
D02*
G37*
G36*
X673625D02*
X672542Y321102D01*
X671532Y320684D01*
X670666Y320019D01*
X670000Y319152D01*
X669582Y318142D01*
X669440Y317059D01*
X669582Y315976D01*
X670000Y314966D01*
X670666Y314099D01*
X671532Y313434D01*
X672542Y313016D01*
X673625Y312873D01*
X674709Y313016D01*
X675718Y313434D01*
X676585Y314099D01*
X677250Y314966D01*
X677668Y315976D01*
X677811Y317059D01*
X677668Y318142D01*
X677250Y319152D01*
X676585Y320019D01*
X675718Y320684D01*
X674709Y321102D01*
X673625Y321245D01*
D02*
G37*
G36*
X663625D02*
X662542Y321102D01*
X661532Y320684D01*
X660666Y320019D01*
X660000Y319152D01*
X659582Y318142D01*
X659440Y317059D01*
X659582Y315976D01*
X660000Y314966D01*
X660666Y314099D01*
X661532Y313434D01*
X662542Y313016D01*
X663625Y312873D01*
X664709Y313016D01*
X665718Y313434D01*
X666585Y314099D01*
X667250Y314966D01*
X667668Y315976D01*
X667811Y317059D01*
X667668Y318142D01*
X667250Y319152D01*
X666585Y320019D01*
X665718Y320684D01*
X664709Y321102D01*
X663625Y321245D01*
D02*
G37*
G36*
X653625D02*
X652542Y321102D01*
X651532Y320684D01*
X650666Y320019D01*
X650000Y319152D01*
X649582Y318142D01*
X649440Y317059D01*
X649582Y315976D01*
X650000Y314966D01*
X650666Y314099D01*
X651532Y313434D01*
X652542Y313016D01*
X653625Y312873D01*
X654708Y313016D01*
X655718Y313434D01*
X656585Y314099D01*
X657250Y314966D01*
X657668Y315976D01*
X657811Y317059D01*
X657668Y318142D01*
X657250Y319152D01*
X656585Y320019D01*
X655718Y320684D01*
X654708Y321102D01*
X653625Y321245D01*
D02*
G37*
G36*
X643625D02*
X642542Y321102D01*
X641532Y320684D01*
X640665Y320019D01*
X640000Y319152D01*
X639582Y318142D01*
X639440Y317059D01*
X639582Y315976D01*
X640000Y314966D01*
X640665Y314099D01*
X641532Y313434D01*
X642542Y313016D01*
X643625Y312873D01*
X644708Y313016D01*
X645718Y313434D01*
X646585Y314099D01*
X647250Y314966D01*
X647668Y315976D01*
X647811Y317059D01*
X647668Y318142D01*
X647250Y319152D01*
X646585Y320019D01*
X645718Y320684D01*
X644708Y321102D01*
X643625Y321245D01*
D02*
G37*
G36*
X633625D02*
X632542Y321102D01*
X631532Y320684D01*
X630665Y320019D01*
X630000Y319152D01*
X629582Y318142D01*
X629440Y317059D01*
X629582Y315976D01*
X630000Y314966D01*
X630665Y314099D01*
X631532Y313434D01*
X632542Y313016D01*
X633625Y312873D01*
X634708Y313016D01*
X635718Y313434D01*
X636585Y314099D01*
X637250Y314966D01*
X637668Y315976D01*
X637811Y317059D01*
X637668Y318142D01*
X637250Y319152D01*
X636585Y320019D01*
X635718Y320684D01*
X634708Y321102D01*
X633625Y321245D01*
D02*
G37*
G36*
X613625D02*
X612542Y321102D01*
X611532Y320684D01*
X610666Y320019D01*
X610000Y319152D01*
X609582Y318142D01*
X609440Y317059D01*
X609582Y315976D01*
X610000Y314966D01*
X610666Y314099D01*
X611532Y313434D01*
X612542Y313016D01*
X613625Y312873D01*
X614709Y313016D01*
X615718Y313434D01*
X616585Y314099D01*
X617250Y314966D01*
X617668Y315976D01*
X617811Y317059D01*
X617668Y318142D01*
X617250Y319152D01*
X616585Y320019D01*
X615718Y320684D01*
X614709Y321102D01*
X613625Y321245D01*
D02*
G37*
G36*
X603625D02*
X602542Y321102D01*
X601532Y320684D01*
X600666Y320019D01*
X600000Y319152D01*
X599582Y318142D01*
X599440Y317059D01*
X599582Y315976D01*
X600000Y314966D01*
X600666Y314099D01*
X601532Y313434D01*
X602542Y313016D01*
X603625Y312873D01*
X604708Y313016D01*
X605718Y313434D01*
X606585Y314099D01*
X607250Y314966D01*
X607668Y315976D01*
X607811Y317059D01*
X607668Y318142D01*
X607250Y319152D01*
X606585Y320019D01*
X605718Y320684D01*
X604708Y321102D01*
X603625Y321245D01*
D02*
G37*
G36*
X593625D02*
X592542Y321102D01*
X591532Y320684D01*
X590665Y320019D01*
X590000Y319152D01*
X589582Y318142D01*
X589440Y317059D01*
X589582Y315976D01*
X590000Y314966D01*
X590665Y314099D01*
X591532Y313434D01*
X592542Y313016D01*
X593625Y312873D01*
X594708Y313016D01*
X595718Y313434D01*
X596585Y314099D01*
X597250Y314966D01*
X597668Y315976D01*
X597811Y317059D01*
X597668Y318142D01*
X597250Y319152D01*
X596585Y320019D01*
X595718Y320684D01*
X594708Y321102D01*
X593625Y321245D01*
D02*
G37*
G36*
X583625D02*
X582542Y321102D01*
X581532Y320684D01*
X580665Y320019D01*
X580000Y319152D01*
X579582Y318142D01*
X579440Y317059D01*
X579582Y315976D01*
X580000Y314966D01*
X580665Y314099D01*
X581532Y313434D01*
X582542Y313016D01*
X583625Y312873D01*
X584708Y313016D01*
X585718Y313434D01*
X586585Y314099D01*
X587250Y314966D01*
X587668Y315976D01*
X587811Y317059D01*
X587668Y318142D01*
X587250Y319152D01*
X586585Y320019D01*
X585718Y320684D01*
X584708Y321102D01*
X583625Y321245D01*
D02*
G37*
G36*
X573625D02*
X572542Y321102D01*
X571532Y320684D01*
X570666Y320019D01*
X570000Y319152D01*
X569582Y318142D01*
X569440Y317059D01*
X569582Y315976D01*
X570000Y314966D01*
X570666Y314099D01*
X571532Y313434D01*
X572542Y313016D01*
X573625Y312873D01*
X574709Y313016D01*
X575718Y313434D01*
X576585Y314099D01*
X577250Y314966D01*
X577668Y315976D01*
X577811Y317059D01*
X577668Y318142D01*
X577250Y319152D01*
X576585Y320019D01*
X575718Y320684D01*
X574709Y321102D01*
X573625Y321245D01*
D02*
G37*
G36*
X563625D02*
X562542Y321102D01*
X561532Y320684D01*
X560666Y320019D01*
X560000Y319152D01*
X559582Y318142D01*
X559440Y317059D01*
X559582Y315976D01*
X560000Y314966D01*
X560666Y314099D01*
X561532Y313434D01*
X562542Y313016D01*
X563625Y312873D01*
X564709Y313016D01*
X565718Y313434D01*
X566585Y314099D01*
X567250Y314966D01*
X567668Y315976D01*
X567811Y317059D01*
X567668Y318142D01*
X567250Y319152D01*
X566585Y320019D01*
X565718Y320684D01*
X564709Y321102D01*
X563625Y321245D01*
D02*
G37*
G36*
X553625D02*
X552542Y321102D01*
X551532Y320684D01*
X550666Y320019D01*
X550000Y319152D01*
X549582Y318142D01*
X549440Y317059D01*
X549582Y315976D01*
X550000Y314966D01*
X550666Y314099D01*
X551532Y313434D01*
X552542Y313016D01*
X553625Y312873D01*
X554708Y313016D01*
X555718Y313434D01*
X556585Y314099D01*
X557250Y314966D01*
X557668Y315976D01*
X557811Y317059D01*
X557668Y318142D01*
X557250Y319152D01*
X556585Y320019D01*
X555718Y320684D01*
X554708Y321102D01*
X553625Y321245D01*
D02*
G37*
G36*
X543625D02*
X542542Y321102D01*
X541532Y320684D01*
X540665Y320019D01*
X540000Y319152D01*
X539582Y318142D01*
X539440Y317059D01*
X539582Y315976D01*
X540000Y314966D01*
X540665Y314099D01*
X541532Y313434D01*
X542542Y313016D01*
X543625Y312873D01*
X544708Y313016D01*
X545718Y313434D01*
X546585Y314099D01*
X547250Y314966D01*
X547668Y315976D01*
X547811Y317059D01*
X547668Y318142D01*
X547250Y319152D01*
X546585Y320019D01*
X545718Y320684D01*
X544708Y321102D01*
X543625Y321245D01*
D02*
G37*
G36*
X723625Y288916D02*
X722117Y288768D01*
X720668Y288328D01*
X719332Y287614D01*
X718161Y286653D01*
X717200Y285482D01*
X716486Y284146D01*
X716046Y282697D01*
X715897Y281189D01*
X716046Y279682D01*
X716486Y278232D01*
X717200Y276896D01*
X718161Y275725D01*
X719332Y274764D01*
X720668Y274050D01*
X722117Y273610D01*
X723625Y273462D01*
X725132Y273610D01*
X726582Y274050D01*
X727918Y274764D01*
X729089Y275725D01*
X730050Y276896D01*
X730764Y278232D01*
X731203Y279682D01*
X731352Y281189D01*
X731203Y282697D01*
X730764Y284146D01*
X730050Y285482D01*
X729089Y286653D01*
X727918Y287614D01*
X726582Y288328D01*
X725132Y288768D01*
X723625Y288916D01*
D02*
G37*
G36*
X631494D02*
X629986Y288768D01*
X628537Y288328D01*
X627201Y287614D01*
X626030Y286653D01*
X625069Y285482D01*
X624355Y284146D01*
X623915Y282697D01*
X623767Y281189D01*
X623915Y279682D01*
X624355Y278232D01*
X625069Y276896D01*
X626030Y275725D01*
X627201Y274764D01*
X628537Y274050D01*
X629986Y273610D01*
X631494Y273462D01*
X633001Y273610D01*
X634451Y274050D01*
X635787Y274764D01*
X636958Y275725D01*
X637919Y276896D01*
X638633Y278232D01*
X639072Y279682D01*
X639221Y281189D01*
X639072Y282697D01*
X638633Y284146D01*
X637919Y285482D01*
X636958Y286653D01*
X635787Y287614D01*
X634451Y288328D01*
X633001Y288768D01*
X631494Y288916D01*
D02*
G37*
G36*
X402370D02*
X400862Y288768D01*
X399413Y288328D01*
X398077Y287614D01*
X396906Y286653D01*
X395945Y285482D01*
X395231Y284146D01*
X394791Y282697D01*
X394642Y281189D01*
X394791Y279682D01*
X395231Y278232D01*
X395945Y276896D01*
X396906Y275725D01*
X398077Y274764D01*
X399413Y274050D01*
X400862Y273610D01*
X402370Y273462D01*
X403877Y273610D01*
X405327Y274050D01*
X406663Y274764D01*
X407834Y275725D01*
X408795Y276896D01*
X409509Y278232D01*
X409948Y279682D01*
X410097Y281189D01*
X409948Y282697D01*
X409509Y284146D01*
X408795Y285482D01*
X407834Y286653D01*
X406663Y287614D01*
X405327Y288328D01*
X403877Y288768D01*
X402370Y288916D01*
D02*
G37*
%LPD*%
G36*
X560350Y555168D02*
X560951Y554385D01*
X561734Y553784D01*
X562646Y553406D01*
X563625Y553277D01*
X564604Y553406D01*
X565516Y553784D01*
X566299Y554385D01*
X566786Y555019D01*
X567260Y554858D01*
Y530637D01*
X566877Y530255D01*
X550683D01*
X550492Y530717D01*
X559331Y539555D01*
X559552Y539886D01*
X559630Y540276D01*
Y555626D01*
X560120Y555723D01*
X560350Y555168D01*
D02*
G37*
G36*
X589700Y495100D02*
Y378800D01*
X595900Y372600D01*
Y327700D01*
X594500Y326300D01*
X591400D01*
Y326400D01*
X590200Y327600D01*
Y366500D01*
X583000Y373700D01*
Y492700D01*
X561909Y513791D01*
Y517552D01*
X561951D01*
X564600Y520200D01*
X589700Y495100D01*
D02*
G37*
G36*
X733470Y600835D02*
Y600530D01*
X733500Y600500D01*
Y387877D01*
X702671Y357048D01*
X636548D01*
X608131Y328631D01*
Y325162D01*
X606610Y323641D01*
X601332D01*
X600016Y324957D01*
Y334496D01*
Y334516D01*
X634500Y369000D01*
X634520D01*
X634614Y369095D01*
X696834D01*
X724500Y396761D01*
Y595275D01*
X678775Y641000D01*
X652892D01*
X652832Y641060D01*
X651204Y642688D01*
Y648073D01*
X652581Y649451D01*
X684855D01*
X733470Y600835D01*
D02*
G37*
G36*
X408500Y534752D02*
Y340884D01*
X407820Y340204D01*
X399810D01*
X392917Y347096D01*
X383913D01*
X381500Y349510D01*
Y537676D01*
X384844Y541020D01*
X402231D01*
X408500Y534752D01*
D02*
G37*
D18*
X406338Y368122D02*
D03*
X413346D02*
D03*
X413442Y344321D02*
D03*
X406435D02*
D03*
X406338Y360230D02*
D03*
X413346D02*
D03*
X413442Y352323D02*
D03*
X406434D02*
D03*
X600635Y359473D02*
D03*
X593627D02*
D03*
D19*
X436876Y660380D02*
D03*
X443884D02*
D03*
X593627Y367399D02*
D03*
X600635D02*
D03*
D37*
Y359473D02*
X604805D01*
X600635Y355168D02*
Y359473D01*
X664855Y340345D02*
Y344815D01*
X656489Y340345D02*
Y344815D01*
X413442Y344322D02*
Y352323D01*
X413347Y352419D02*
X413442Y352323D01*
X413347Y352419D02*
Y360230D01*
X413346Y360231D02*
X413347Y360230D01*
X413346Y360231D02*
Y368122D01*
X413442Y339086D02*
Y344322D01*
X413346Y368122D02*
Y374329D01*
X417561Y344322D02*
X418452Y345213D01*
X417722Y360230D02*
X418452Y360961D01*
X417688Y352323D02*
X418452Y353087D01*
X417740Y368122D02*
X418452Y368835D01*
X413442Y344322D02*
X417561D01*
X413347Y360230D02*
X417722D01*
X413442Y352323D02*
X417688D01*
X413346Y368122D02*
X417740D01*
X655550Y651685D02*
Y655535D01*
X651701D02*
X655550D01*
X659400D01*
X633625Y323209D02*
Y327059D01*
Y330909D01*
X629775Y327059D02*
X633625D01*
X637475D01*
X623625Y323209D02*
Y327059D01*
Y330909D01*
X619775Y327059D02*
X623625D01*
X627475D01*
X623625Y313209D02*
Y317059D01*
Y320909D01*
X619775Y317059D02*
X623625D01*
X627475D01*
X563625Y323209D02*
Y327059D01*
Y330909D01*
X559775Y327059D02*
X563625D01*
X567475D01*
X489478Y656235D02*
Y660380D01*
Y664525D01*
X485333Y660380D02*
X489478D01*
X493624D01*
X388844Y616723D02*
Y622147D01*
Y627572D01*
X383420Y622147D02*
X388844D01*
X394269D01*
X385369Y332250D02*
Y337084D01*
Y341918D01*
X380535Y337084D02*
X385369D01*
X390203D01*
X561909Y517059D02*
X586459Y492509D01*
Y375374D02*
Y492509D01*
Y375374D02*
X593627Y368206D01*
Y359473D02*
Y367399D01*
X600635D02*
X611701D01*
X623299Y355801D01*
X613625Y327059D02*
X631382Y344815D01*
X647607D01*
X593644Y328580D02*
Y359456D01*
X593627Y359473D02*
X593644Y359456D01*
D38*
X664855Y351823D02*
X673625D01*
X656489D02*
X664855D01*
X647607D02*
X656489D01*
X469478Y618323D02*
X513924D01*
X524349Y607898D01*
Y596335D02*
Y607898D01*
Y596335D02*
X553625Y567059D01*
X549478Y646796D02*
Y660380D01*
X673625Y327059D02*
Y344815D01*
X641241Y633051D02*
X653066D01*
X655550Y635535D01*
X549478Y639788D02*
X572974D01*
X593880Y660695D01*
X698945D01*
X747628Y612012D01*
Y372572D02*
Y612012D01*
X709039Y333983D02*
X747628Y372572D01*
X709039Y322473D02*
Y333983D01*
X703625Y317059D02*
X709039Y322473D01*
X479478Y600380D02*
X479489Y600370D01*
Y588030D02*
Y600370D01*
X561909Y517059D02*
Y517552D01*
X593627Y367399D02*
Y368206D01*
X606277Y643162D02*
X626510D01*
X575748Y612633D02*
X606277Y643162D01*
X575748Y594749D02*
Y612633D01*
X558610Y577611D02*
X575748Y594749D01*
X558610Y540276D02*
Y577611D01*
X535885Y517552D02*
X558610Y540276D01*
X713625Y327059D02*
X720803Y319881D01*
Y314203D02*
Y319881D01*
X716829Y310228D02*
X720803Y314203D01*
X521353Y310228D02*
X716829D01*
X479489Y352093D02*
X521353Y310228D01*
X479489Y352093D02*
Y581023D01*
X653625Y557059D02*
X658708Y562141D01*
Y573761D01*
X641411Y591058D02*
X658708Y573761D01*
X641411Y591058D02*
Y616043D01*
X613625Y567059D02*
X634517Y587951D01*
Y638618D01*
X635957Y640058D01*
X641241D01*
X641411Y623051D02*
X653066D01*
X655550Y625535D01*
X469478Y600380D02*
Y611315D01*
X593644Y327078D02*
Y328580D01*
X593625Y327059D02*
X593644Y327078D01*
D39*
X644884Y517410D02*
D03*
X613607Y674890D02*
D03*
X644873Y674724D02*
D03*
X402370Y281189D02*
D03*
X631494D02*
D03*
X723625D02*
D03*
D40*
X599609Y592213D02*
D03*
D41*
X655550Y605535D02*
D03*
Y655535D02*
D03*
Y635535D02*
D03*
Y615535D02*
D03*
Y645535D02*
D03*
Y625535D02*
D03*
X593625Y317059D02*
D03*
X603625D02*
D03*
X573625Y327059D02*
D03*
X583625Y317059D02*
D03*
Y327059D02*
D03*
X613625Y317059D02*
D03*
X533625Y327059D02*
D03*
X633625Y317059D02*
D03*
X643625D02*
D03*
Y327059D02*
D03*
X653625Y317059D02*
D03*
Y327059D02*
D03*
X663625Y317059D02*
D03*
Y327059D02*
D03*
X673625Y317059D02*
D03*
X543625D02*
D03*
X683625D02*
D03*
Y327059D02*
D03*
X693625Y317059D02*
D03*
Y327059D02*
D03*
X703625D02*
D03*
X713625Y317059D02*
D03*
X543625Y327059D02*
D03*
X553625Y317059D02*
D03*
Y327059D02*
D03*
X563625Y317059D02*
D03*
X573625D02*
D03*
X533625Y557059D02*
D03*
Y567059D02*
D03*
X543625Y557059D02*
D03*
Y567059D02*
D03*
X553625Y557059D02*
D03*
X563625D02*
D03*
Y567059D02*
D03*
X573625Y557059D02*
D03*
Y567059D02*
D03*
X583625Y557059D02*
D03*
X593625D02*
D03*
X603625D02*
D03*
X613625D02*
D03*
X623625D02*
D03*
Y567059D02*
D03*
X633625Y557059D02*
D03*
Y567059D02*
D03*
X643625Y557059D02*
D03*
Y567059D02*
D03*
X653625D02*
D03*
X663625Y557059D02*
D03*
Y567059D02*
D03*
X673625Y557059D02*
D03*
Y567059D02*
D03*
X683625Y557059D02*
D03*
Y567059D02*
D03*
X693625Y557059D02*
D03*
Y567059D02*
D03*
X703625Y557059D02*
D03*
Y567059D02*
D03*
X713625Y557059D02*
D03*
Y567059D02*
D03*
X593625D02*
D03*
X603625D02*
D03*
X583625D02*
D03*
X613625D02*
D03*
X653625Y557059D02*
D03*
X613625Y327059D02*
D03*
X713625D02*
D03*
X603625D02*
D03*
X593625D02*
D03*
X703625Y317059D02*
D03*
X673625Y327059D02*
D03*
X553625Y567059D02*
D03*
X633625Y327059D02*
D03*
X623625D02*
D03*
Y317059D02*
D03*
X563625Y327059D02*
D03*
D42*
X389176Y534529D02*
D03*
Y573899D02*
D03*
D43*
X385369Y352084D02*
D03*
Y337084D02*
D03*
D44*
X533625Y317059D02*
D03*
D45*
X388844Y641832D02*
D03*
Y622147D02*
D03*
D46*
X626510Y643162D02*
D03*
D47*
Y623477D02*
D03*
D48*
X459478Y600380D02*
D03*
D49*
X499478Y660380D02*
D03*
X509478Y600380D02*
D03*
Y660380D02*
D03*
X519478Y600380D02*
D03*
Y660380D02*
D03*
X529478Y600380D02*
D03*
Y660380D02*
D03*
X539478Y600380D02*
D03*
Y660380D02*
D03*
X549478Y600380D02*
D03*
X559478D02*
D03*
Y660380D02*
D03*
X569478Y600380D02*
D03*
Y660380D02*
D03*
X469478D02*
D03*
X489478Y600380D02*
D03*
X499478D02*
D03*
X459478Y660380D02*
D03*
X489478D02*
D03*
X549478D02*
D03*
X479478Y600380D02*
D03*
Y660380D02*
D03*
X469478Y600380D02*
D03*
D50*
X378424Y398013D02*
D03*
Y394076D02*
D03*
X604805Y359473D02*
D03*
X600635Y355168D02*
D03*
X616234Y510715D02*
D03*
X616430Y521918D02*
D03*
X612198Y516415D02*
D03*
X615970Y532705D02*
D03*
X600970D02*
D03*
Y517705D02*
D03*
X585970Y532705D02*
D03*
Y517705D02*
D03*
X563724Y549267D02*
D03*
X555970Y532705D02*
D03*
X659209Y630543D02*
D03*
X647541Y641311D02*
D03*
X646906Y619540D02*
D03*
X720970Y592705D02*
D03*
X705970D02*
D03*
Y607705D02*
D03*
X675970Y592705D02*
D03*
X690970D02*
D03*
X675970Y607705D02*
D03*
X690970D02*
D03*
X563724Y575165D02*
D03*
X720970Y532705D02*
D03*
X705970D02*
D03*
X690970D02*
D03*
X570970D02*
D03*
X720970Y517705D02*
D03*
X705970D02*
D03*
X690970D02*
D03*
X570970D02*
D03*
X720970Y502705D02*
D03*
X705970D02*
D03*
X690970D02*
D03*
X825970Y682705D02*
D03*
X810970D02*
D03*
X795970D02*
D03*
X780970D02*
D03*
X765970D02*
D03*
X735970D02*
D03*
X750970D02*
D03*
X720970D02*
D03*
X705970D02*
D03*
X690970D02*
D03*
X675970D02*
D03*
X660970D02*
D03*
X600970D02*
D03*
X570970D02*
D03*
X585970D02*
D03*
X555970D02*
D03*
X540970D02*
D03*
X510970D02*
D03*
X525970D02*
D03*
X495970D02*
D03*
X480970D02*
D03*
X450970D02*
D03*
X465970D02*
D03*
X435970D02*
D03*
X420970D02*
D03*
X390970D02*
D03*
X405970D02*
D03*
X825970Y652705D02*
D03*
Y667705D02*
D03*
X795970Y652705D02*
D03*
X810970D02*
D03*
X795970Y667705D02*
D03*
X810970D02*
D03*
X780970Y652705D02*
D03*
Y667705D02*
D03*
X765970Y652705D02*
D03*
Y667705D02*
D03*
X735970Y652705D02*
D03*
X750970D02*
D03*
X735970Y667705D02*
D03*
X750970D02*
D03*
X720970Y652705D02*
D03*
Y667705D02*
D03*
X705970D02*
D03*
X675970Y652705D02*
D03*
X690970D02*
D03*
X675970Y667705D02*
D03*
X690970D02*
D03*
X825970Y637705D02*
D03*
X795970D02*
D03*
X810970D02*
D03*
X780970D02*
D03*
X765970D02*
D03*
X735970D02*
D03*
X750970D02*
D03*
X705970D02*
D03*
X675970D02*
D03*
X573286Y645150D02*
D03*
X588286D02*
D03*
X558286D02*
D03*
X543286D02*
D03*
X825970Y622705D02*
D03*
X795970D02*
D03*
X810970D02*
D03*
X780970D02*
D03*
X765970D02*
D03*
X750970D02*
D03*
X720970D02*
D03*
X675970D02*
D03*
X690970D02*
D03*
X573286Y630150D02*
D03*
X588286D02*
D03*
X573286Y615150D02*
D03*
X558286Y630150D02*
D03*
Y615150D02*
D03*
X543286Y630150D02*
D03*
Y615150D02*
D03*
X825970Y592705D02*
D03*
Y607705D02*
D03*
X795970Y592705D02*
D03*
X810970D02*
D03*
X795970Y607705D02*
D03*
X810970D02*
D03*
X780970Y592705D02*
D03*
Y607705D02*
D03*
X765970Y592705D02*
D03*
Y607705D02*
D03*
X735970Y592705D02*
D03*
X750970D02*
D03*
X735970Y607705D02*
D03*
X750970D02*
D03*
X825970Y577705D02*
D03*
X810970D02*
D03*
X795970D02*
D03*
X780970D02*
D03*
X765970D02*
D03*
X750970D02*
D03*
X510970D02*
D03*
X495970D02*
D03*
X465970D02*
D03*
X825970Y562705D02*
D03*
X810970D02*
D03*
X795970D02*
D03*
X780970D02*
D03*
X765970D02*
D03*
X750970D02*
D03*
X510970D02*
D03*
X495970D02*
D03*
X465970D02*
D03*
X825970Y532705D02*
D03*
Y547705D02*
D03*
X810970Y532705D02*
D03*
X795970D02*
D03*
X810970Y547705D02*
D03*
X795970D02*
D03*
X780970Y532705D02*
D03*
Y547705D02*
D03*
X765970Y532705D02*
D03*
Y547705D02*
D03*
X735970Y532705D02*
D03*
X750970D02*
D03*
Y547705D02*
D03*
X540970Y532705D02*
D03*
X510970D02*
D03*
X525970D02*
D03*
X510970Y547705D02*
D03*
X495970Y532705D02*
D03*
Y547705D02*
D03*
X465970Y532705D02*
D03*
Y547705D02*
D03*
X825970Y517705D02*
D03*
X810970D02*
D03*
X795970D02*
D03*
X780970D02*
D03*
X765970D02*
D03*
X735970D02*
D03*
X750970D02*
D03*
X510970D02*
D03*
X525970D02*
D03*
X495970D02*
D03*
X465970D02*
D03*
X825970Y502705D02*
D03*
X810970D02*
D03*
X795970D02*
D03*
X780970D02*
D03*
X765970D02*
D03*
X735970D02*
D03*
X750970D02*
D03*
X570500Y502200D02*
D03*
X555970Y502705D02*
D03*
X540970D02*
D03*
X510970D02*
D03*
X525970D02*
D03*
X495970D02*
D03*
X465970D02*
D03*
X378424Y506950D02*
D03*
Y491950D02*
D03*
X825970Y472705D02*
D03*
Y487705D02*
D03*
X810970Y472705D02*
D03*
X795970D02*
D03*
X810970Y487705D02*
D03*
X795970D02*
D03*
X780970Y472705D02*
D03*
Y487705D02*
D03*
X765970Y472705D02*
D03*
Y487705D02*
D03*
X735970Y472705D02*
D03*
X750970D02*
D03*
X735970Y487705D02*
D03*
X750970D02*
D03*
X570970Y472705D02*
D03*
Y487705D02*
D03*
X555970Y472705D02*
D03*
Y487705D02*
D03*
X540970Y472705D02*
D03*
Y487705D02*
D03*
X510970Y472705D02*
D03*
X525970D02*
D03*
X510970Y487705D02*
D03*
X525970D02*
D03*
X495970Y472705D02*
D03*
Y487705D02*
D03*
X465970Y472705D02*
D03*
Y487705D02*
D03*
X378424Y476950D02*
D03*
X825970Y457705D02*
D03*
X810970D02*
D03*
X795970D02*
D03*
X780970D02*
D03*
X765970D02*
D03*
X735970D02*
D03*
X750970D02*
D03*
X570970D02*
D03*
X555970D02*
D03*
X540970D02*
D03*
X510970D02*
D03*
X525970D02*
D03*
X495970D02*
D03*
X465970D02*
D03*
X378424Y461950D02*
D03*
X825970Y442705D02*
D03*
X810970D02*
D03*
X795970D02*
D03*
X780970D02*
D03*
X765970D02*
D03*
X735970D02*
D03*
X750970D02*
D03*
X570970D02*
D03*
X555970D02*
D03*
X540970D02*
D03*
X510970D02*
D03*
X525970D02*
D03*
X495970D02*
D03*
X465970D02*
D03*
X378424Y431950D02*
D03*
Y446950D02*
D03*
X825970Y412705D02*
D03*
Y427705D02*
D03*
X810970Y412705D02*
D03*
X795970D02*
D03*
X810970Y427705D02*
D03*
X795970D02*
D03*
X780970Y412705D02*
D03*
Y427705D02*
D03*
X765970Y412705D02*
D03*
Y427705D02*
D03*
X735970Y412705D02*
D03*
X750970D02*
D03*
X735970Y427705D02*
D03*
X750970D02*
D03*
X570970Y412705D02*
D03*
Y427705D02*
D03*
X555970Y412705D02*
D03*
Y427705D02*
D03*
X540970Y412705D02*
D03*
Y427705D02*
D03*
X510970Y412705D02*
D03*
X525970D02*
D03*
X510970Y427705D02*
D03*
X525970D02*
D03*
X495970Y412705D02*
D03*
Y427705D02*
D03*
X465970Y412705D02*
D03*
Y427705D02*
D03*
X378424Y416950D02*
D03*
X825970Y397705D02*
D03*
X810970D02*
D03*
X795970D02*
D03*
X780970D02*
D03*
X765970D02*
D03*
X735970D02*
D03*
X750970D02*
D03*
X570970D02*
D03*
X555970D02*
D03*
X540970D02*
D03*
X510970D02*
D03*
X525970D02*
D03*
X495970D02*
D03*
X465970D02*
D03*
X378424Y390139D02*
D03*
Y401950D02*
D03*
X825970Y367705D02*
D03*
Y382705D02*
D03*
X810970Y367705D02*
D03*
X795970D02*
D03*
X810970Y382705D02*
D03*
X795970D02*
D03*
X780970Y367705D02*
D03*
Y382705D02*
D03*
X765970Y367705D02*
D03*
Y382705D02*
D03*
X735970D02*
D03*
Y367705D02*
D03*
X750970D02*
D03*
Y382705D02*
D03*
X720970Y367705D02*
D03*
X570970Y382705D02*
D03*
X555970D02*
D03*
X540970D02*
D03*
X510970D02*
D03*
X525970D02*
D03*
X495970D02*
D03*
X465970D02*
D03*
X378424Y371950D02*
D03*
X825970Y352705D02*
D03*
X810970D02*
D03*
X795970D02*
D03*
X780970D02*
D03*
X765970D02*
D03*
X735970D02*
D03*
X750970D02*
D03*
X720970D02*
D03*
X705970D02*
D03*
X690970D02*
D03*
X418452Y357024D02*
D03*
Y349150D02*
D03*
Y364898D02*
D03*
X825970Y337705D02*
D03*
X810970D02*
D03*
X795970D02*
D03*
X780970D02*
D03*
X765970D02*
D03*
X735970D02*
D03*
X750970D02*
D03*
X720970D02*
D03*
X705970D02*
D03*
X675970D02*
D03*
X690970D02*
D03*
X660970D02*
D03*
X645970D02*
D03*
X630970D02*
D03*
X599400Y340500D02*
D03*
X510970Y337705D02*
D03*
X480970D02*
D03*
X450970D02*
D03*
X465970D02*
D03*
X435970D02*
D03*
X420970D02*
D03*
X378424Y386950D02*
D03*
X664855Y340345D02*
D03*
X656489D02*
D03*
X418452Y345213D02*
D03*
Y353087D02*
D03*
Y360961D02*
D03*
Y368835D02*
D03*
X405970Y337705D02*
D03*
X825970Y307705D02*
D03*
Y322705D02*
D03*
X810970Y307705D02*
D03*
X795970D02*
D03*
X810970Y322705D02*
D03*
X795970D02*
D03*
X780970Y307705D02*
D03*
Y322705D02*
D03*
X765970Y307705D02*
D03*
Y322705D02*
D03*
X750970Y307705D02*
D03*
Y322705D02*
D03*
X495970D02*
D03*
X480970D02*
D03*
X450970D02*
D03*
X465970D02*
D03*
X435970D02*
D03*
X420970D02*
D03*
X405970D02*
D03*
X825970Y292705D02*
D03*
X810970D02*
D03*
X795970D02*
D03*
X780970D02*
D03*
X765970D02*
D03*
X750970D02*
D03*
X675970D02*
D03*
X690970D02*
D03*
X660970D02*
D03*
X825970Y277705D02*
D03*
X810970D02*
D03*
X795970D02*
D03*
X780970D02*
D03*
X765970D02*
D03*
X750970D02*
D03*
X675970D02*
D03*
X690970D02*
D03*
X660970D02*
D03*
X720970Y472705D02*
D03*
Y487705D02*
D03*
X705970Y472705D02*
D03*
Y487705D02*
D03*
X675970Y472705D02*
D03*
X690970D02*
D03*
X675970Y487705D02*
D03*
X690970D02*
D03*
X660970Y472705D02*
D03*
Y487705D02*
D03*
X645970Y472705D02*
D03*
Y487705D02*
D03*
X615970Y472705D02*
D03*
X630970D02*
D03*
X615970Y487705D02*
D03*
X630970D02*
D03*
X600970Y472705D02*
D03*
Y487705D02*
D03*
X720970Y457705D02*
D03*
X705970D02*
D03*
X675970D02*
D03*
X690970D02*
D03*
X660970D02*
D03*
X645970D02*
D03*
X615970D02*
D03*
X630970D02*
D03*
X600970D02*
D03*
X720970Y442705D02*
D03*
X705970D02*
D03*
X675970D02*
D03*
X690970D02*
D03*
X660970D02*
D03*
X645970D02*
D03*
X615970D02*
D03*
X630970D02*
D03*
X600970D02*
D03*
X720970Y412705D02*
D03*
Y427705D02*
D03*
X705970Y412705D02*
D03*
Y427705D02*
D03*
X675970Y412705D02*
D03*
X690970D02*
D03*
X675970Y427705D02*
D03*
X690970D02*
D03*
X660970Y412705D02*
D03*
Y427705D02*
D03*
X645970Y412705D02*
D03*
Y427705D02*
D03*
X615970Y412705D02*
D03*
X630970D02*
D03*
X615970Y427705D02*
D03*
X630970D02*
D03*
X600970Y412705D02*
D03*
Y427705D02*
D03*
X720970Y397705D02*
D03*
X705970D02*
D03*
X675970D02*
D03*
X690970D02*
D03*
X660970D02*
D03*
X645970D02*
D03*
X615970D02*
D03*
X630970D02*
D03*
X600970D02*
D03*
X705970Y382705D02*
D03*
X675970D02*
D03*
X690970D02*
D03*
X660970D02*
D03*
X645970D02*
D03*
X615970D02*
D03*
X630970D02*
D03*
X600970D02*
D03*
X607471Y346140D02*
D03*
D51*
X673800Y344896D02*
D03*
Y351904D02*
D03*
X641411Y616043D02*
D03*
Y623051D02*
D03*
X641241Y633051D02*
D03*
Y640058D02*
D03*
X549478Y646796D02*
D03*
Y639788D02*
D03*
X479489Y588030D02*
D03*
Y581023D02*
D03*
X469478Y618323D02*
D03*
Y611315D02*
D03*
X647500Y351904D02*
D03*
Y344896D02*
D03*
X656700Y344796D02*
D03*
Y351804D02*
D03*
D52*
X664855Y351823D02*
D03*
Y344815D02*
D03*
D53*
X535885Y517552D02*
D03*
X561909D02*
D03*
D54*
X443884Y660380D02*
X459478D01*
X388844Y641832D02*
X407392Y660380D01*
X436876D01*
D55*
X596155Y623477D02*
X626510D01*
X568483Y530130D02*
Y580033D01*
X561909Y517552D02*
Y523556D01*
X568483Y530130D01*
X580700Y592250D02*
Y608022D01*
X596155Y623477D01*
X568483Y580033D02*
X580700Y592250D01*
M02*
