G04*
G04 #@! TF.GenerationSoftware,Altium Limited,Altium Designer,21.0.9 (235)*
G04*
G04 Layer_Color=32896*
%FSLAX25Y25*%
%MOIN*%
G70*
G04*
G04 #@! TF.SameCoordinates,20F31B83-B46A-4D4F-BE2C-671A53D897AC*
G04*
G04*
G04 #@! TF.FilePolarity,Positive*
G04*
G01*
G75*
%ADD12C,0.00100*%
%ADD59C,0.00930*%
D12*
X920199Y537582D02*
Y542582D01*
X917699Y540082D02*
X922699D01*
X918034Y440082D02*
X919116Y437917D01*
X921282D02*
X922364Y440082D01*
X918034D02*
X919116Y442248D01*
X921282D02*
X922364Y440082D01*
X919116Y437917D02*
X921282D01*
X919116Y442248D02*
X921282D01*
X923815Y386467D02*
X925312Y390082D01*
X920199Y384969D02*
X923815Y386467D01*
X916584D02*
X920199Y384969D01*
X915086Y390082D02*
X916584Y386467D01*
X915086Y390082D02*
X916584Y393698D01*
X920199Y395196D01*
X923815Y393698D01*
X925312Y390082D01*
X875249Y277582D02*
Y627582D01*
X1358849D01*
Y277582D02*
Y627582D01*
X875249Y277582D02*
X1358849D01*
X875249Y602582D02*
X1358849D01*
X875249Y577582D02*
X1358849D01*
X965149Y277582D02*
Y577582D01*
X1154249Y277582D02*
Y577582D01*
X1281349Y277582D02*
Y577582D01*
X875249Y552582D02*
X1358849D01*
X875249Y527582D02*
X1358849D01*
X875249Y502582D02*
X1358849D01*
X875249Y477582D02*
X1358849D01*
X875249Y452582D02*
X1358849D01*
X875249Y427582D02*
X1358849D01*
X875249Y402582D02*
X1358849D01*
X875249Y377582D02*
X1358849D01*
X875249Y352582D02*
X1358849D01*
X875249Y327582D02*
X1358849D01*
X875249Y302582D02*
X1358849D01*
D59*
X987049Y621330D02*
Y608832D01*
Y621330D02*
X991215D01*
X993000Y620735D01*
X994190Y619544D01*
X994785Y618354D01*
X995381Y616569D01*
Y613593D01*
X994785Y611808D01*
X994190Y610618D01*
X993000Y609427D01*
X991215Y608832D01*
X987049D01*
X998178Y621330D02*
Y608832D01*
Y621330D02*
X1003534D01*
X1005319Y620735D01*
X1005914Y620140D01*
X1006509Y618949D01*
Y617759D01*
X1005914Y616569D01*
X1005319Y615974D01*
X1003534Y615379D01*
X998178D01*
X1002343D02*
X1006509Y608832D01*
X1009306Y621330D02*
Y608832D01*
X1011925Y621330D02*
Y608832D01*
X1019066D01*
X1020435Y621330D02*
Y608832D01*
X1027576D01*
X1047691Y618354D02*
X1047096Y619544D01*
X1045905Y620735D01*
X1044715Y621330D01*
X1042335D01*
X1041145Y620735D01*
X1039954Y619544D01*
X1039359Y618354D01*
X1038764Y616569D01*
Y613593D01*
X1039359Y611808D01*
X1039954Y610618D01*
X1041145Y609427D01*
X1042335Y608832D01*
X1044715D01*
X1045905Y609427D01*
X1047096Y610618D01*
X1047691Y611808D01*
X1051202Y621330D02*
Y608832D01*
X1059534Y621330D02*
Y608832D01*
X1051202Y615379D02*
X1059534D01*
X1072507Y608832D02*
X1067746Y621330D01*
X1062985Y608832D01*
X1064771Y612998D02*
X1070722D01*
X1075423Y621330D02*
Y608832D01*
Y621330D02*
X1080779D01*
X1082564Y620735D01*
X1083160Y620140D01*
X1083755Y618949D01*
Y617759D01*
X1083160Y616569D01*
X1082564Y615974D01*
X1080779Y615379D01*
X1075423D01*
X1079589D02*
X1083755Y608832D01*
X1090717Y621330D02*
Y608832D01*
X1086552Y621330D02*
X1094883D01*
X1096966Y617164D02*
X1096371Y616569D01*
X1096966Y615974D01*
X1097561Y616569D01*
X1096966Y617164D01*
Y610023D02*
X1096371Y609427D01*
X1096966Y608832D01*
X1097561Y609427D01*
X1096966Y610023D01*
X1114284Y621330D02*
Y608832D01*
X1110118Y621330D02*
X1118449D01*
X1123508D02*
X1122318Y620735D01*
X1121128Y619544D01*
X1120532Y618354D01*
X1119937Y616569D01*
Y613593D01*
X1120532Y611808D01*
X1121128Y610618D01*
X1122318Y609427D01*
X1123508Y608832D01*
X1125888D01*
X1127079Y609427D01*
X1128269Y610618D01*
X1128864Y611808D01*
X1129459Y613593D01*
Y616569D01*
X1128864Y618354D01*
X1128269Y619544D01*
X1127079Y620735D01*
X1125888Y621330D01*
X1123508D01*
X1132375Y614783D02*
X1137731D01*
X1139516Y615379D01*
X1140112Y615974D01*
X1140707Y617164D01*
Y618949D01*
X1140112Y620140D01*
X1139516Y620735D01*
X1137731Y621330D01*
X1132375D01*
Y608832D01*
X1155108Y621330D02*
Y611213D01*
X1155703Y609427D01*
X1156894Y608832D01*
X1158084D01*
X1153323Y617164D02*
X1157489D01*
X1162845D02*
X1161654Y616569D01*
X1160464Y615379D01*
X1159869Y613593D01*
Y612403D01*
X1160464Y610618D01*
X1161654Y609427D01*
X1162845Y608832D01*
X1164630D01*
X1165820Y609427D01*
X1167010Y610618D01*
X1167606Y612403D01*
Y613593D01*
X1167010Y615379D01*
X1165820Y616569D01*
X1164630Y617164D01*
X1162845D01*
X1180163Y621330D02*
Y608832D01*
Y621330D02*
X1185518D01*
X1187304Y620735D01*
X1187899Y620140D01*
X1188494Y618949D01*
Y617759D01*
X1187899Y616569D01*
X1187304Y615974D01*
X1185518Y615379D01*
X1180163D02*
X1185518D01*
X1187304Y614783D01*
X1187899Y614188D01*
X1188494Y612998D01*
Y611213D01*
X1187899Y610023D01*
X1187304Y609427D01*
X1185518Y608832D01*
X1180163D01*
X1194862Y621330D02*
X1193672Y620735D01*
X1192481Y619544D01*
X1191886Y618354D01*
X1191291Y616569D01*
Y613593D01*
X1191886Y611808D01*
X1192481Y610618D01*
X1193672Y609427D01*
X1194862Y608832D01*
X1197242D01*
X1198432Y609427D01*
X1199623Y610618D01*
X1200218Y611808D01*
X1200813Y613593D01*
Y616569D01*
X1200218Y618354D01*
X1199623Y619544D01*
X1198432Y620735D01*
X1197242Y621330D01*
X1194862D01*
X1207895D02*
Y608832D01*
X1203729Y621330D02*
X1212060D01*
X1217714D02*
Y608832D01*
X1213548Y621330D02*
X1221880D01*
X1226938D02*
X1225748Y620735D01*
X1224558Y619544D01*
X1223963Y618354D01*
X1223368Y616569D01*
Y613593D01*
X1223963Y611808D01*
X1224558Y610618D01*
X1225748Y609427D01*
X1226938Y608832D01*
X1229319D01*
X1230509Y609427D01*
X1231699Y610618D01*
X1232294Y611808D01*
X1232889Y613593D01*
Y616569D01*
X1232294Y618354D01*
X1231699Y619544D01*
X1230509Y620735D01*
X1229319Y621330D01*
X1226938D01*
X1235805D02*
Y608832D01*
Y621330D02*
X1240566Y608832D01*
X1245327Y621330D02*
X1240566Y608832D01*
X1245327Y621330D02*
Y608832D01*
X1021571Y583832D02*
X1016810Y596330D01*
X1012049Y583832D01*
X1013834Y587998D02*
X1019785D01*
X1024487Y596330D02*
Y583832D01*
X1031628D01*
X1032997Y596330D02*
Y583832D01*
X1040138D01*
X1051326Y596330D02*
Y587403D01*
X1051921Y585618D01*
X1053112Y584427D01*
X1054897Y583832D01*
X1056087D01*
X1057873Y584427D01*
X1059063Y585618D01*
X1059658Y587403D01*
Y596330D01*
X1063110D02*
Y583832D01*
Y596330D02*
X1071441Y583832D01*
Y596330D02*
Y583832D01*
X1074893Y596330D02*
Y583832D01*
X1081677Y596330D02*
Y583832D01*
X1077511Y596330D02*
X1085843D01*
X1095662Y594544D02*
X1094472Y595735D01*
X1092687Y596330D01*
X1090306D01*
X1088521Y595735D01*
X1087331Y594544D01*
Y593354D01*
X1087926Y592164D01*
X1088521Y591569D01*
X1089711Y590974D01*
X1093282Y589783D01*
X1094472Y589188D01*
X1095067Y588593D01*
X1095662Y587403D01*
Y585618D01*
X1094472Y584427D01*
X1092687Y583832D01*
X1090306D01*
X1088521Y584427D01*
X1087331Y585618D01*
X1117800Y583832D02*
X1113039Y596330D01*
X1108278Y583832D01*
X1110064Y587998D02*
X1116015D01*
X1120716Y596330D02*
Y583832D01*
Y596330D02*
X1126072D01*
X1127858Y595735D01*
X1128453Y595140D01*
X1129048Y593949D01*
Y592759D01*
X1128453Y591569D01*
X1127858Y590974D01*
X1126072Y590379D01*
X1120716D01*
X1124882D02*
X1129048Y583832D01*
X1139581Y596330D02*
X1131845D01*
Y583832D01*
X1139581D01*
X1131845Y590379D02*
X1136606D01*
X1151484Y596330D02*
Y583832D01*
X1154102Y596330D02*
Y583832D01*
Y596330D02*
X1162434Y583832D01*
Y596330D02*
Y583832D01*
X1175704Y596330D02*
Y583832D01*
Y596330D02*
X1180465Y583832D01*
X1185226Y596330D02*
X1180465Y583832D01*
X1185226Y596330D02*
Y583832D01*
X1188797Y596330D02*
Y583832D01*
X1191415Y596330D02*
Y583832D01*
X1198557D01*
X1208257Y594544D02*
X1207067Y595735D01*
X1205282Y596330D01*
X1202901D01*
X1201116Y595735D01*
X1199926Y594544D01*
Y593354D01*
X1200521Y592164D01*
X1201116Y591569D01*
X1202306Y590974D01*
X1205877Y589783D01*
X1207067Y589188D01*
X1207662Y588593D01*
X1208257Y587403D01*
Y585618D01*
X1207067Y584427D01*
X1205282Y583832D01*
X1202901D01*
X1201116Y584427D01*
X1199926Y585618D01*
X890199Y571330D02*
Y558832D01*
Y571330D02*
X897935D01*
X890199Y565379D02*
X894960D01*
X899364Y571330D02*
Y558832D01*
X910909Y568354D02*
X910314Y569544D01*
X909124Y570735D01*
X907933Y571330D01*
X905553D01*
X904363Y570735D01*
X903172Y569544D01*
X902577Y568354D01*
X901982Y566569D01*
Y563593D01*
X902577Y561808D01*
X903172Y560618D01*
X904363Y559427D01*
X905553Y558832D01*
X907933D01*
X909124Y559427D01*
X910314Y560618D01*
X910909Y561808D01*
Y563593D01*
X907933D02*
X910909D01*
X913766Y571330D02*
Y562403D01*
X914361Y560618D01*
X915551Y559427D01*
X917336Y558832D01*
X918526D01*
X920312Y559427D01*
X921502Y560618D01*
X922097Y562403D01*
Y571330D01*
X925549D02*
Y558832D01*
Y571330D02*
X930905D01*
X932690Y570735D01*
X933285Y570140D01*
X933880Y568949D01*
Y567759D01*
X933285Y566569D01*
X932690Y565974D01*
X930905Y565379D01*
X925549D01*
X929714D02*
X933880Y558832D01*
X944414Y571330D02*
X936677D01*
Y558832D01*
X944414D01*
X936677Y565379D02*
X941438D01*
X1048031Y569544D02*
X1046840Y570735D01*
X1045055Y571330D01*
X1042675D01*
X1040889Y570735D01*
X1039699Y569544D01*
Y568354D01*
X1040294Y567164D01*
X1040889Y566569D01*
X1042080Y565974D01*
X1045650Y564783D01*
X1046840Y564188D01*
X1047435Y563593D01*
X1048031Y562403D01*
Y560618D01*
X1046840Y559427D01*
X1045055Y558832D01*
X1042675D01*
X1040889Y559427D01*
X1039699Y560618D01*
X1050828Y571330D02*
Y558832D01*
X1061778Y571330D02*
X1053446Y558832D01*
Y571330D02*
X1061778D01*
X1053446Y558832D02*
X1061778D01*
X1072311Y571330D02*
X1064575D01*
Y558832D01*
X1072311D01*
X1064575Y565379D02*
X1069336D01*
X1187799Y564783D02*
X1193155D01*
X1194940Y565379D01*
X1195535Y565974D01*
X1196131Y567164D01*
Y568949D01*
X1195535Y570140D01*
X1194940Y570735D01*
X1193155Y571330D01*
X1187799D01*
Y558832D01*
X1198928Y571330D02*
Y558832D01*
X1206069D01*
X1216959D02*
X1212199Y571330D01*
X1207438Y558832D01*
X1209223Y562998D02*
X1215174D01*
X1224041Y571330D02*
Y558832D01*
X1219876Y571330D02*
X1228207D01*
X1237431D02*
X1229695D01*
Y558832D01*
X1237431D01*
X1229695Y565379D02*
X1234456D01*
X1239514Y571330D02*
Y558832D01*
Y571330D02*
X1243680D01*
X1245465Y570735D01*
X1246655Y569544D01*
X1247251Y568354D01*
X1247846Y566569D01*
Y563593D01*
X1247251Y561808D01*
X1246655Y560618D01*
X1245465Y559427D01*
X1243680Y558832D01*
X1239514D01*
X1308670Y571330D02*
X1307479Y570735D01*
X1306289Y569544D01*
X1305694Y568354D01*
X1305099Y566569D01*
Y563593D01*
X1305694Y561808D01*
X1306289Y560618D01*
X1307479Y559427D01*
X1308670Y558832D01*
X1311050D01*
X1312240Y559427D01*
X1313431Y560618D01*
X1314026Y561808D01*
X1314621Y563593D01*
Y566569D01*
X1314026Y568354D01*
X1313431Y569544D01*
X1312240Y570735D01*
X1311050Y571330D01*
X1308670D01*
X1310455Y561213D02*
X1314026Y557642D01*
X1321703Y571330D02*
Y558832D01*
X1317537Y571330D02*
X1325869D01*
X1327356D02*
X1332117Y565379D01*
Y558832D01*
X1336878Y571330D02*
X1332117Y565379D01*
X1047675Y546330D02*
X1045889Y545735D01*
X1045294Y544544D01*
Y543354D01*
X1045889Y542164D01*
X1047079Y541569D01*
X1049460Y540974D01*
X1051245Y540379D01*
X1052435Y539188D01*
X1053031Y537998D01*
Y536213D01*
X1052435Y535023D01*
X1051840Y534427D01*
X1050055Y533832D01*
X1047675D01*
X1045889Y534427D01*
X1045294Y535023D01*
X1044699Y536213D01*
Y537998D01*
X1045294Y539188D01*
X1046484Y540379D01*
X1048270Y540974D01*
X1050650Y541569D01*
X1051840Y542164D01*
X1052435Y543354D01*
Y544544D01*
X1051840Y545735D01*
X1050055Y546330D01*
X1047675D01*
X1056423Y535023D02*
X1055828Y534427D01*
X1056423Y533832D01*
X1057018Y534427D01*
X1056423Y535023D01*
X1063326Y546330D02*
X1061541Y545735D01*
X1060351Y543949D01*
X1059755Y540974D01*
Y539188D01*
X1060351Y536213D01*
X1061541Y534427D01*
X1063326Y533832D01*
X1064516D01*
X1066302Y534427D01*
X1067492Y536213D01*
X1068087Y539188D01*
Y540974D01*
X1067492Y543949D01*
X1066302Y545735D01*
X1064516Y546330D01*
X1063326D01*
X1187799Y539783D02*
X1193155D01*
X1194940Y540379D01*
X1195535Y540974D01*
X1196131Y542164D01*
Y543949D01*
X1195535Y545140D01*
X1194940Y545735D01*
X1193155Y546330D01*
X1187799D01*
Y533832D01*
X1198928Y546330D02*
Y533832D01*
X1206069D01*
X1216959D02*
X1212199Y546330D01*
X1207438Y533832D01*
X1209223Y537998D02*
X1215174D01*
X1224041Y546330D02*
Y533832D01*
X1219876Y546330D02*
X1228207D01*
X1237431D02*
X1229695D01*
Y533832D01*
X1237431D01*
X1229695Y540379D02*
X1234456D01*
X1239514Y546330D02*
Y533832D01*
Y546330D02*
X1243680D01*
X1245465Y545735D01*
X1246655Y544544D01*
X1247251Y543354D01*
X1247846Y541569D01*
Y538593D01*
X1247251Y536808D01*
X1246655Y535618D01*
X1245465Y534427D01*
X1243680Y533832D01*
X1239514D01*
X1311050Y546330D02*
X1305099Y537998D01*
X1314026D01*
X1311050Y546330D02*
Y533832D01*
X1324559Y546330D02*
X1318608Y533832D01*
X1316228Y546330D02*
X1324559D01*
X1327951Y543354D02*
Y543949D01*
X1328547Y545140D01*
X1329142Y545735D01*
X1330332Y546330D01*
X1332712D01*
X1333902Y545735D01*
X1334498Y545140D01*
X1335093Y543949D01*
Y542759D01*
X1334498Y541569D01*
X1333307Y539783D01*
X1327356Y533832D01*
X1335688D01*
X1030889Y521330D02*
X1037436D01*
X1033865Y516569D01*
X1035650D01*
X1036840Y515974D01*
X1037436Y515379D01*
X1038031Y513593D01*
Y512403D01*
X1037436Y510618D01*
X1036245Y509427D01*
X1034460Y508832D01*
X1032675D01*
X1030889Y509427D01*
X1030294Y510023D01*
X1029699Y511213D01*
X1047969Y521330D02*
X1042018D01*
X1041423Y515974D01*
X1042018Y516569D01*
X1043803Y517164D01*
X1045589D01*
X1047374Y516569D01*
X1048564Y515379D01*
X1049159Y513593D01*
Y512403D01*
X1048564Y510618D01*
X1047374Y509427D01*
X1045589Y508832D01*
X1043803D01*
X1042018Y509427D01*
X1041423Y510023D01*
X1040828Y511213D01*
X1052551Y510023D02*
X1051956Y509427D01*
X1052551Y508832D01*
X1053146Y509427D01*
X1052551Y510023D01*
X1061835Y521330D02*
X1055884Y512998D01*
X1064811D01*
X1061835Y521330D02*
Y508832D01*
X1068203Y521330D02*
X1074749D01*
X1071178Y516569D01*
X1072964D01*
X1074154Y515974D01*
X1074749Y515379D01*
X1075344Y513593D01*
Y512403D01*
X1074749Y510618D01*
X1073559Y509427D01*
X1071773Y508832D01*
X1069988D01*
X1068203Y509427D01*
X1067608Y510023D01*
X1067013Y511213D01*
X1079331Y521330D02*
X1085878D01*
X1082307Y516569D01*
X1084092D01*
X1085282Y515974D01*
X1085878Y515379D01*
X1086473Y513593D01*
Y512403D01*
X1085878Y510618D01*
X1084687Y509427D01*
X1082902Y508832D01*
X1081117D01*
X1079331Y509427D01*
X1078736Y510023D01*
X1078141Y511213D01*
X1187799Y514783D02*
X1193155D01*
X1194940Y515379D01*
X1195535Y515974D01*
X1196131Y517164D01*
Y518949D01*
X1195535Y520140D01*
X1194940Y520735D01*
X1193155Y521330D01*
X1187799D01*
Y508832D01*
X1198928Y521330D02*
Y508832D01*
X1206069D01*
X1216959D02*
X1212199Y521330D01*
X1207438Y508832D01*
X1209223Y512998D02*
X1215174D01*
X1224041Y521330D02*
Y508832D01*
X1219876Y521330D02*
X1228207D01*
X1237431D02*
X1229695D01*
Y508832D01*
X1237431D01*
X1229695Y515379D02*
X1234456D01*
X1239514Y521330D02*
Y508832D01*
Y521330D02*
X1243680D01*
X1245465Y520735D01*
X1246655Y519544D01*
X1247251Y518354D01*
X1247846Y516569D01*
Y513593D01*
X1247251Y511808D01*
X1246655Y510618D01*
X1245465Y509427D01*
X1243680Y508832D01*
X1239514D01*
X1315694Y518354D02*
Y518949D01*
X1316289Y520140D01*
X1316884Y520735D01*
X1318075Y521330D01*
X1320455D01*
X1321645Y520735D01*
X1322240Y520140D01*
X1322836Y518949D01*
Y517759D01*
X1322240Y516569D01*
X1321050Y514783D01*
X1315099Y508832D01*
X1323431D01*
X1035889Y496330D02*
X1042435D01*
X1038865Y491569D01*
X1040650D01*
X1041840Y490974D01*
X1042435Y490379D01*
X1043031Y488593D01*
Y487403D01*
X1042435Y485618D01*
X1041245Y484427D01*
X1039460Y483832D01*
X1037675D01*
X1035889Y484427D01*
X1035294Y485023D01*
X1034699Y486213D01*
X1053564Y492164D02*
X1052969Y490379D01*
X1051779Y489188D01*
X1049993Y488593D01*
X1049398D01*
X1047613Y489188D01*
X1046423Y490379D01*
X1045828Y492164D01*
Y492759D01*
X1046423Y494544D01*
X1047613Y495735D01*
X1049398Y496330D01*
X1049993D01*
X1051779Y495735D01*
X1052969Y494544D01*
X1053564Y492164D01*
Y489188D01*
X1052969Y486213D01*
X1051779Y484427D01*
X1049993Y483832D01*
X1048803D01*
X1047018Y484427D01*
X1046423Y485618D01*
X1057551Y485023D02*
X1056956Y484427D01*
X1057551Y483832D01*
X1058146Y484427D01*
X1057551Y485023D01*
X1062074Y496330D02*
X1068620D01*
X1065050Y491569D01*
X1066835D01*
X1068025Y490974D01*
X1068620Y490379D01*
X1069215Y488593D01*
Y487403D01*
X1068620Y485618D01*
X1067430Y484427D01*
X1065645Y483832D01*
X1063859D01*
X1062074Y484427D01*
X1061479Y485023D01*
X1060884Y486213D01*
X1080344Y496330D02*
X1074393Y483832D01*
X1072013Y496330D02*
X1080344D01*
X1187799Y489783D02*
X1193155D01*
X1194940Y490379D01*
X1195535Y490974D01*
X1196131Y492164D01*
Y493949D01*
X1195535Y495140D01*
X1194940Y495735D01*
X1193155Y496330D01*
X1187799D01*
Y483832D01*
X1198928Y496330D02*
Y483832D01*
X1206069D01*
X1216959D02*
X1212199Y496330D01*
X1207438Y483832D01*
X1209223Y487998D02*
X1215174D01*
X1224041Y496330D02*
Y483832D01*
X1219876Y496330D02*
X1228207D01*
X1237431D02*
X1229695D01*
Y483832D01*
X1237431D01*
X1229695Y490379D02*
X1234456D01*
X1239514Y496330D02*
Y483832D01*
Y496330D02*
X1243680D01*
X1245465Y495735D01*
X1246655Y494544D01*
X1247251Y493354D01*
X1247846Y491569D01*
Y488593D01*
X1247251Y486808D01*
X1246655Y485618D01*
X1245465Y484427D01*
X1243680Y483832D01*
X1239514D01*
X1315694Y493354D02*
Y493949D01*
X1316289Y495140D01*
X1316884Y495735D01*
X1318075Y496330D01*
X1320455D01*
X1321645Y495735D01*
X1322240Y495140D01*
X1322836Y493949D01*
Y492759D01*
X1322240Y491569D01*
X1321050Y489783D01*
X1315099Y483832D01*
X1323431D01*
X1035889Y471330D02*
X1042435D01*
X1038865Y466569D01*
X1040650D01*
X1041840Y465974D01*
X1042435Y465379D01*
X1043031Y463593D01*
Y462403D01*
X1042435Y460618D01*
X1041245Y459427D01*
X1039460Y458832D01*
X1037675D01*
X1035889Y459427D01*
X1035294Y460023D01*
X1034699Y461213D01*
X1053564Y467164D02*
X1052969Y465379D01*
X1051779Y464188D01*
X1049993Y463593D01*
X1049398D01*
X1047613Y464188D01*
X1046423Y465379D01*
X1045828Y467164D01*
Y467759D01*
X1046423Y469544D01*
X1047613Y470735D01*
X1049398Y471330D01*
X1049993D01*
X1051779Y470735D01*
X1052969Y469544D01*
X1053564Y467164D01*
Y464188D01*
X1052969Y461213D01*
X1051779Y459427D01*
X1049993Y458832D01*
X1048803D01*
X1047018Y459427D01*
X1046423Y460618D01*
X1057551Y460023D02*
X1056956Y459427D01*
X1057551Y458832D01*
X1058146Y459427D01*
X1057551Y460023D01*
X1062074Y471330D02*
X1068620D01*
X1065050Y466569D01*
X1066835D01*
X1068025Y465974D01*
X1068620Y465379D01*
X1069215Y463593D01*
Y462403D01*
X1068620Y460618D01*
X1067430Y459427D01*
X1065645Y458832D01*
X1063859D01*
X1062074Y459427D01*
X1061479Y460023D01*
X1060884Y461213D01*
X1080344Y471330D02*
X1074393Y458832D01*
X1072013Y471330D02*
X1080344D01*
X1187799Y464783D02*
X1193155D01*
X1194940Y465379D01*
X1195535Y465974D01*
X1196131Y467164D01*
Y468949D01*
X1195535Y470140D01*
X1194940Y470735D01*
X1193155Y471330D01*
X1187799D01*
Y458832D01*
X1198928Y471330D02*
Y458832D01*
X1206069D01*
X1216959D02*
X1212199Y471330D01*
X1207438Y458832D01*
X1209223Y462998D02*
X1215174D01*
X1224041Y471330D02*
Y458832D01*
X1219876Y471330D02*
X1228207D01*
X1237431D02*
X1229695D01*
Y458832D01*
X1237431D01*
X1229695Y465379D02*
X1234456D01*
X1239514Y471330D02*
Y458832D01*
Y471330D02*
X1243680D01*
X1245465Y470735D01*
X1246655Y469544D01*
X1247251Y468354D01*
X1247846Y466569D01*
Y463593D01*
X1247251Y461808D01*
X1246655Y460618D01*
X1245465Y459427D01*
X1243680Y458832D01*
X1239514D01*
X1318431Y471330D02*
X1312479Y458832D01*
X1310099Y471330D02*
X1318431D01*
X1328369D02*
X1322418D01*
X1321823Y465974D01*
X1322418Y466569D01*
X1324203Y467164D01*
X1325989D01*
X1327774Y466569D01*
X1328964Y465379D01*
X1329559Y463593D01*
Y462403D01*
X1328964Y460618D01*
X1327774Y459427D01*
X1325989Y458832D01*
X1324203D01*
X1322418Y459427D01*
X1321823Y460023D01*
X1321228Y461213D01*
X1035889Y446330D02*
X1042435D01*
X1038865Y441569D01*
X1040650D01*
X1041840Y440974D01*
X1042435Y440379D01*
X1043031Y438593D01*
Y437403D01*
X1042435Y435618D01*
X1041245Y434427D01*
X1039460Y433832D01*
X1037675D01*
X1035889Y434427D01*
X1035294Y435023D01*
X1034699Y436213D01*
X1053564Y442164D02*
X1052969Y440379D01*
X1051779Y439188D01*
X1049993Y438593D01*
X1049398D01*
X1047613Y439188D01*
X1046423Y440379D01*
X1045828Y442164D01*
Y442759D01*
X1046423Y444544D01*
X1047613Y445735D01*
X1049398Y446330D01*
X1049993D01*
X1051779Y445735D01*
X1052969Y444544D01*
X1053564Y442164D01*
Y439188D01*
X1052969Y436213D01*
X1051779Y434427D01*
X1049993Y433832D01*
X1048803D01*
X1047018Y434427D01*
X1046423Y435618D01*
X1057551Y435023D02*
X1056956Y434427D01*
X1057551Y433832D01*
X1058146Y434427D01*
X1057551Y435023D01*
X1062074Y446330D02*
X1068620D01*
X1065050Y441569D01*
X1066835D01*
X1068025Y440974D01*
X1068620Y440379D01*
X1069215Y438593D01*
Y437403D01*
X1068620Y435618D01*
X1067430Y434427D01*
X1065645Y433832D01*
X1063859D01*
X1062074Y434427D01*
X1061479Y435023D01*
X1060884Y436213D01*
X1080344Y446330D02*
X1074393Y433832D01*
X1072013Y446330D02*
X1080344D01*
X1187799Y439783D02*
X1193155D01*
X1194940Y440379D01*
X1195535Y440974D01*
X1196131Y442164D01*
Y443949D01*
X1195535Y445140D01*
X1194940Y445735D01*
X1193155Y446330D01*
X1187799D01*
Y433832D01*
X1198928Y446330D02*
Y433832D01*
X1206069D01*
X1216959D02*
X1212199Y446330D01*
X1207438Y433832D01*
X1209223Y437998D02*
X1215174D01*
X1224041Y446330D02*
Y433832D01*
X1219876Y446330D02*
X1228207D01*
X1237431D02*
X1229695D01*
Y433832D01*
X1237431D01*
X1229695Y440379D02*
X1234456D01*
X1239514Y446330D02*
Y433832D01*
Y446330D02*
X1243680D01*
X1245465Y445735D01*
X1246655Y444544D01*
X1247251Y443354D01*
X1247846Y441569D01*
Y438593D01*
X1247251Y436808D01*
X1246655Y435618D01*
X1245465Y434427D01*
X1243680Y433832D01*
X1239514D01*
X1315099Y443949D02*
X1316289Y444544D01*
X1318075Y446330D01*
Y433832D01*
X1035650Y421330D02*
X1029699Y412998D01*
X1038626D01*
X1035650Y421330D02*
Y408832D01*
X1044398Y421330D02*
X1042613Y420735D01*
X1041423Y418949D01*
X1040828Y415974D01*
Y414188D01*
X1041423Y411213D01*
X1042613Y409427D01*
X1044398Y408832D01*
X1045589D01*
X1047374Y409427D01*
X1048564Y411213D01*
X1049159Y414188D01*
Y415974D01*
X1048564Y418949D01*
X1047374Y420735D01*
X1045589Y421330D01*
X1044398D01*
X1052551Y410023D02*
X1051956Y409427D01*
X1052551Y408832D01*
X1053146Y409427D01*
X1052551Y410023D01*
X1055884Y418949D02*
X1057074Y419544D01*
X1058860Y421330D01*
Y408832D01*
X1072190Y421330D02*
X1066239D01*
X1065644Y415974D01*
X1066239Y416569D01*
X1068024Y417164D01*
X1069810D01*
X1071595Y416569D01*
X1072785Y415379D01*
X1073380Y413593D01*
Y412403D01*
X1072785Y410618D01*
X1071595Y409427D01*
X1069810Y408832D01*
X1068024D01*
X1066239Y409427D01*
X1065644Y410023D01*
X1065049Y411213D01*
X1084509Y421330D02*
X1078558Y408832D01*
X1076177Y421330D02*
X1084509D01*
X1187799Y414783D02*
X1193155D01*
X1194940Y415379D01*
X1195535Y415974D01*
X1196131Y417164D01*
Y418949D01*
X1195535Y420140D01*
X1194940Y420735D01*
X1193155Y421330D01*
X1187799D01*
Y408832D01*
X1198928Y421330D02*
Y408832D01*
X1206069D01*
X1216959D02*
X1212199Y421330D01*
X1207438Y408832D01*
X1209223Y412998D02*
X1215174D01*
X1224041Y421330D02*
Y408832D01*
X1219876Y421330D02*
X1228207D01*
X1237431D02*
X1229695D01*
Y408832D01*
X1237431D01*
X1229695Y415379D02*
X1234456D01*
X1239514Y421330D02*
Y408832D01*
Y421330D02*
X1243680D01*
X1245465Y420735D01*
X1246655Y419544D01*
X1247251Y418354D01*
X1247846Y416569D01*
Y413593D01*
X1247251Y411808D01*
X1246655Y410618D01*
X1245465Y409427D01*
X1243680Y408832D01*
X1239514D01*
X1322240Y419544D02*
X1321645Y420735D01*
X1319860Y421330D01*
X1318670D01*
X1316884Y420735D01*
X1315694Y418949D01*
X1315099Y415974D01*
Y412998D01*
X1315694Y410618D01*
X1316884Y409427D01*
X1318670Y408832D01*
X1319265D01*
X1321050Y409427D01*
X1322240Y410618D01*
X1322836Y412403D01*
Y412998D01*
X1322240Y414783D01*
X1321050Y415974D01*
X1319265Y416569D01*
X1318670D01*
X1316884Y415974D01*
X1315694Y414783D01*
X1315099Y412998D01*
X1040650Y396330D02*
X1034699Y387998D01*
X1043626D01*
X1040650Y396330D02*
Y383832D01*
X1054159Y396330D02*
X1048208Y383832D01*
X1045828Y396330D02*
X1054159D01*
X1057551Y385023D02*
X1056956Y384427D01*
X1057551Y383832D01*
X1058146Y384427D01*
X1057551Y385023D01*
X1061479Y393354D02*
Y393949D01*
X1062074Y395140D01*
X1062669Y395735D01*
X1063859Y396330D01*
X1066240D01*
X1067430Y395735D01*
X1068025Y395140D01*
X1068620Y393949D01*
Y392759D01*
X1068025Y391569D01*
X1066835Y389784D01*
X1060884Y383832D01*
X1069215D01*
X1077964Y396330D02*
X1072013Y387998D01*
X1080939D01*
X1077964Y396330D02*
Y383832D01*
X1187799Y389784D02*
X1193155D01*
X1194940Y390379D01*
X1195535Y390974D01*
X1196131Y392164D01*
Y393949D01*
X1195535Y395140D01*
X1194940Y395735D01*
X1193155Y396330D01*
X1187799D01*
Y383832D01*
X1198928Y396330D02*
Y383832D01*
X1206069D01*
X1216959D02*
X1212199Y396330D01*
X1207438Y383832D01*
X1209223Y387998D02*
X1215174D01*
X1224041Y396330D02*
Y383832D01*
X1219876Y396330D02*
X1228207D01*
X1237431D02*
X1229695D01*
Y383832D01*
X1237431D01*
X1229695Y390379D02*
X1234456D01*
X1239514Y396330D02*
Y383832D01*
Y396330D02*
X1243680D01*
X1245465Y395735D01*
X1246655Y394544D01*
X1247251Y393354D01*
X1247846Y391569D01*
Y388593D01*
X1247251Y386808D01*
X1246655Y385618D01*
X1245465Y384427D01*
X1243680Y383832D01*
X1239514D01*
X1310694Y393354D02*
Y393949D01*
X1311289Y395140D01*
X1311884Y395735D01*
X1313075Y396330D01*
X1315455D01*
X1316645Y395735D01*
X1317240Y395140D01*
X1317836Y393949D01*
Y392759D01*
X1317240Y391569D01*
X1316050Y389784D01*
X1310099Y383832D01*
X1318431D01*
X1327179Y396330D02*
X1321228Y387998D01*
X1330154D01*
X1327179Y396330D02*
Y383832D01*
X1036840Y371330D02*
X1030889D01*
X1030294Y365974D01*
X1030889Y366569D01*
X1032675Y367164D01*
X1034460D01*
X1036245Y366569D01*
X1037436Y365379D01*
X1038031Y363593D01*
Y362403D01*
X1037436Y360618D01*
X1036245Y359427D01*
X1034460Y358832D01*
X1032675D01*
X1030889Y359427D01*
X1030294Y360023D01*
X1029699Y361213D01*
X1047969Y371330D02*
X1042018D01*
X1041423Y365974D01*
X1042018Y366569D01*
X1043803Y367164D01*
X1045589D01*
X1047374Y366569D01*
X1048564Y365379D01*
X1049159Y363593D01*
Y362403D01*
X1048564Y360618D01*
X1047374Y359427D01*
X1045589Y358832D01*
X1043803D01*
X1042018Y359427D01*
X1041423Y360023D01*
X1040828Y361213D01*
X1052551Y360023D02*
X1051956Y359427D01*
X1052551Y358832D01*
X1053146Y359427D01*
X1052551Y360023D01*
X1055884Y368949D02*
X1057074Y369544D01*
X1058860Y371330D01*
Y358832D01*
X1065049Y368949D02*
X1066239Y369544D01*
X1068024Y371330D01*
Y358832D01*
X1077189Y371330D02*
X1075404Y370735D01*
X1074809Y369544D01*
Y368354D01*
X1075404Y367164D01*
X1076594Y366569D01*
X1078974Y365974D01*
X1080760Y365379D01*
X1081950Y364188D01*
X1082545Y362998D01*
Y361213D01*
X1081950Y360023D01*
X1081355Y359427D01*
X1079569Y358832D01*
X1077189D01*
X1075404Y359427D01*
X1074809Y360023D01*
X1074213Y361213D01*
Y362998D01*
X1074809Y364188D01*
X1075999Y365379D01*
X1077784Y365974D01*
X1080165Y366569D01*
X1081355Y367164D01*
X1081950Y368354D01*
Y369544D01*
X1081355Y370735D01*
X1079569Y371330D01*
X1077189D01*
X1187799Y364784D02*
X1193155D01*
X1194940Y365379D01*
X1195535Y365974D01*
X1196131Y367164D01*
Y368949D01*
X1195535Y370140D01*
X1194940Y370735D01*
X1193155Y371330D01*
X1187799D01*
Y358832D01*
X1198928Y371330D02*
Y358832D01*
X1206069D01*
X1216959D02*
X1212199Y371330D01*
X1207438Y358832D01*
X1209223Y362998D02*
X1215174D01*
X1224041Y371330D02*
Y358832D01*
X1219876Y371330D02*
X1228207D01*
X1237431D02*
X1229695D01*
Y358832D01*
X1237431D01*
X1229695Y365379D02*
X1234456D01*
X1239514Y371330D02*
Y358832D01*
Y371330D02*
X1243680D01*
X1245465Y370735D01*
X1246655Y369544D01*
X1247251Y368354D01*
X1247846Y366569D01*
Y363593D01*
X1247251Y361808D01*
X1246655Y360618D01*
X1245465Y359427D01*
X1243680Y358832D01*
X1239514D01*
X1315694Y368354D02*
Y368949D01*
X1316289Y370140D01*
X1316884Y370735D01*
X1318075Y371330D01*
X1320455D01*
X1321645Y370735D01*
X1322240Y370140D01*
X1322836Y368949D01*
Y367759D01*
X1322240Y366569D01*
X1321050Y364784D01*
X1315099Y358832D01*
X1323431D01*
X1036840Y344544D02*
X1036245Y345735D01*
X1034460Y346330D01*
X1033270D01*
X1031484Y345735D01*
X1030294Y343949D01*
X1029699Y340974D01*
Y337998D01*
X1030294Y335618D01*
X1031484Y334427D01*
X1033270Y333832D01*
X1033865D01*
X1035650Y334427D01*
X1036840Y335618D01*
X1037436Y337403D01*
Y337998D01*
X1036840Y339784D01*
X1035650Y340974D01*
X1033865Y341569D01*
X1033270D01*
X1031484Y340974D01*
X1030294Y339784D01*
X1029699Y337998D01*
X1040768Y343354D02*
Y343949D01*
X1041363Y345140D01*
X1041958Y345735D01*
X1043149Y346330D01*
X1045529D01*
X1046719Y345735D01*
X1047314Y345140D01*
X1047910Y343949D01*
Y342759D01*
X1047314Y341569D01*
X1046124Y339784D01*
X1040173Y333832D01*
X1048505D01*
X1051897Y335023D02*
X1051302Y334427D01*
X1051897Y333832D01*
X1052492Y334427D01*
X1051897Y335023D01*
X1062966Y342164D02*
X1062371Y340379D01*
X1061180Y339188D01*
X1059395Y338593D01*
X1058800D01*
X1057015Y339188D01*
X1055824Y340379D01*
X1055229Y342164D01*
Y342759D01*
X1055824Y344544D01*
X1057015Y345735D01*
X1058800Y346330D01*
X1059395D01*
X1061180Y345735D01*
X1062371Y344544D01*
X1062966Y342164D01*
Y339188D01*
X1062371Y336213D01*
X1061180Y334427D01*
X1059395Y333832D01*
X1058205D01*
X1056420Y334427D01*
X1055824Y335618D01*
X1074094Y342164D02*
X1073499Y340379D01*
X1072309Y339188D01*
X1070524Y338593D01*
X1069929D01*
X1068143Y339188D01*
X1066953Y340379D01*
X1066358Y342164D01*
Y342759D01*
X1066953Y344544D01*
X1068143Y345735D01*
X1069929Y346330D01*
X1070524D01*
X1072309Y345735D01*
X1073499Y344544D01*
X1074094Y342164D01*
Y339188D01*
X1073499Y336213D01*
X1072309Y334427D01*
X1070524Y333832D01*
X1069333D01*
X1067548Y334427D01*
X1066953Y335618D01*
X1078082Y343354D02*
Y343949D01*
X1078677Y345140D01*
X1079272Y345735D01*
X1080462Y346330D01*
X1082843D01*
X1084033Y345735D01*
X1084628Y345140D01*
X1085223Y343949D01*
Y342759D01*
X1084628Y341569D01*
X1083438Y339784D01*
X1077487Y333832D01*
X1085818D01*
X1187799Y339784D02*
X1193155D01*
X1194940Y340379D01*
X1195535Y340974D01*
X1196131Y342164D01*
Y343949D01*
X1195535Y345140D01*
X1194940Y345735D01*
X1193155Y346330D01*
X1187799D01*
Y333832D01*
X1198928Y346330D02*
Y333832D01*
X1206069D01*
X1216959D02*
X1212199Y346330D01*
X1207438Y333832D01*
X1209223Y337998D02*
X1215174D01*
X1224041Y346330D02*
Y333832D01*
X1219876Y346330D02*
X1228207D01*
X1237431D02*
X1229695D01*
Y333832D01*
X1237431D01*
X1229695Y340379D02*
X1234456D01*
X1239514Y346330D02*
Y333832D01*
Y346330D02*
X1243680D01*
X1245465Y345735D01*
X1246655Y344544D01*
X1247251Y343354D01*
X1247846Y341569D01*
Y338593D01*
X1247251Y336808D01*
X1246655Y335618D01*
X1245465Y334427D01*
X1243680Y333832D01*
X1239514D01*
X1315694Y343354D02*
Y343949D01*
X1316289Y345140D01*
X1316884Y345735D01*
X1318075Y346330D01*
X1320455D01*
X1321645Y345735D01*
X1322240Y345140D01*
X1322836Y343949D01*
Y342759D01*
X1322240Y341569D01*
X1321050Y339784D01*
X1315099Y333832D01*
X1323431D01*
X1024699Y318949D02*
X1025889Y319544D01*
X1027675Y321330D01*
Y308832D01*
X1035054Y321330D02*
X1041600D01*
X1038030Y316569D01*
X1039815D01*
X1041005Y315974D01*
X1041600Y315379D01*
X1042195Y313593D01*
Y312403D01*
X1041600Y310618D01*
X1040410Y309427D01*
X1038625Y308832D01*
X1036839D01*
X1035054Y309427D01*
X1034459Y310023D01*
X1033864Y311213D01*
X1053324Y321330D02*
X1047373Y308832D01*
X1044992Y321330D02*
X1053324D01*
X1056716Y310023D02*
X1056121Y309427D01*
X1056716Y308832D01*
X1057311Y309427D01*
X1056716Y310023D01*
X1068380Y321330D02*
X1062429Y308832D01*
X1060049Y321330D02*
X1068380D01*
X1078914Y317164D02*
X1078319Y315379D01*
X1077128Y314188D01*
X1075343Y313593D01*
X1074748D01*
X1072963Y314188D01*
X1071772Y315379D01*
X1071177Y317164D01*
Y317759D01*
X1071772Y319544D01*
X1072963Y320735D01*
X1074748Y321330D01*
X1075343D01*
X1077128Y320735D01*
X1078319Y319544D01*
X1078914Y317164D01*
Y314188D01*
X1078319Y311213D01*
X1077128Y309427D01*
X1075343Y308832D01*
X1074153D01*
X1072367Y309427D01*
X1071772Y310618D01*
X1089447Y321330D02*
X1083496D01*
X1082901Y315974D01*
X1083496Y316569D01*
X1085281Y317164D01*
X1087067D01*
X1088852Y316569D01*
X1090042Y315379D01*
X1090637Y313593D01*
Y312403D01*
X1090042Y310618D01*
X1088852Y309427D01*
X1087067Y308832D01*
X1085281D01*
X1083496Y309427D01*
X1082901Y310023D01*
X1082306Y311213D01*
X1167799Y321330D02*
Y308832D01*
Y321330D02*
X1176131Y308832D01*
Y321330D02*
Y308832D01*
X1183153Y321330D02*
X1181963Y320735D01*
X1180772Y319544D01*
X1180177Y318354D01*
X1179582Y316569D01*
Y313593D01*
X1180177Y311808D01*
X1180772Y310618D01*
X1181963Y309427D01*
X1183153Y308832D01*
X1185533D01*
X1186724Y309427D01*
X1187914Y310618D01*
X1188509Y311808D01*
X1189104Y313593D01*
Y316569D01*
X1188509Y318354D01*
X1187914Y319544D01*
X1186724Y320735D01*
X1185533Y321330D01*
X1183153D01*
X1192020D02*
Y308832D01*
Y321330D02*
X1200352Y308832D01*
Y321330D02*
Y308832D01*
X1203803Y314188D02*
X1214515D01*
X1218205Y314784D02*
X1223561D01*
X1225346Y315379D01*
X1225941Y315974D01*
X1226536Y317164D01*
Y318949D01*
X1225941Y320140D01*
X1225346Y320735D01*
X1223561Y321330D01*
X1218205D01*
Y308832D01*
X1229333Y321330D02*
Y308832D01*
X1236475D01*
X1247365D02*
X1242605Y321330D01*
X1237844Y308832D01*
X1239629Y312998D02*
X1245580D01*
X1254447Y321330D02*
Y308832D01*
X1250281Y321330D02*
X1258613D01*
X1267837D02*
X1260101D01*
Y308832D01*
X1267837D01*
X1260101Y315379D02*
X1264862D01*
X1269920Y321330D02*
Y308832D01*
Y321330D02*
X1274086D01*
X1275871Y320735D01*
X1277061Y319544D01*
X1277656Y318354D01*
X1278252Y316569D01*
Y313593D01*
X1277656Y311808D01*
X1277061Y310618D01*
X1275871Y309427D01*
X1274086Y308832D01*
X1269920D01*
X1322240Y319544D02*
X1321645Y320735D01*
X1319860Y321330D01*
X1318670D01*
X1316884Y320735D01*
X1315694Y318949D01*
X1315099Y315974D01*
Y312998D01*
X1315694Y310618D01*
X1316884Y309427D01*
X1318670Y308832D01*
X1319265D01*
X1321050Y309427D01*
X1322240Y310618D01*
X1322836Y312403D01*
Y312998D01*
X1322240Y314784D01*
X1321050Y315974D01*
X1319265Y316569D01*
X1318670D01*
X1316884Y315974D01*
X1315694Y314784D01*
X1315099Y312998D01*
X1024699Y293949D02*
X1025889Y294544D01*
X1027675Y296330D01*
Y283832D01*
X1042195Y296330D02*
X1036244Y283832D01*
X1033864Y296330D02*
X1042195D01*
X1053324D02*
X1047373Y283832D01*
X1044992Y296330D02*
X1053324D01*
X1056716Y285023D02*
X1056121Y284427D01*
X1056716Y283832D01*
X1057311Y284427D01*
X1056716Y285023D01*
X1060049Y293949D02*
X1061239Y294544D01*
X1063024Y296330D01*
Y283832D01*
X1076355Y294544D02*
X1075760Y295735D01*
X1073974Y296330D01*
X1072784D01*
X1070999Y295735D01*
X1069808Y293949D01*
X1069213Y290974D01*
Y287998D01*
X1069808Y285618D01*
X1070999Y284427D01*
X1072784Y283832D01*
X1073379D01*
X1075165Y284427D01*
X1076355Y285618D01*
X1076950Y287403D01*
Y287998D01*
X1076355Y289784D01*
X1075165Y290974D01*
X1073379Y291569D01*
X1072784D01*
X1070999Y290974D01*
X1069808Y289784D01*
X1069213Y287998D01*
X1086829Y296330D02*
X1080877D01*
X1080282Y290974D01*
X1080877Y291569D01*
X1082663Y292164D01*
X1084448D01*
X1086234Y291569D01*
X1087424Y290379D01*
X1088019Y288593D01*
Y287403D01*
X1087424Y285618D01*
X1086234Y284427D01*
X1084448Y283832D01*
X1082663D01*
X1080877Y284427D01*
X1080282Y285023D01*
X1079687Y286213D01*
X1167799Y296330D02*
Y283832D01*
Y296330D02*
X1176131Y283832D01*
Y296330D02*
Y283832D01*
X1183153Y296330D02*
X1181963Y295735D01*
X1180772Y294544D01*
X1180177Y293354D01*
X1179582Y291569D01*
Y288593D01*
X1180177Y286808D01*
X1180772Y285618D01*
X1181963Y284427D01*
X1183153Y283832D01*
X1185533D01*
X1186724Y284427D01*
X1187914Y285618D01*
X1188509Y286808D01*
X1189104Y288593D01*
Y291569D01*
X1188509Y293354D01*
X1187914Y294544D01*
X1186724Y295735D01*
X1185533Y296330D01*
X1183153D01*
X1192020D02*
Y283832D01*
Y296330D02*
X1200352Y283832D01*
Y296330D02*
Y283832D01*
X1203803Y289188D02*
X1214515D01*
X1218205Y289784D02*
X1223561D01*
X1225346Y290379D01*
X1225941Y290974D01*
X1226536Y292164D01*
Y293949D01*
X1225941Y295140D01*
X1225346Y295735D01*
X1223561Y296330D01*
X1218205D01*
Y283832D01*
X1229333Y296330D02*
Y283832D01*
X1236475D01*
X1247365D02*
X1242605Y296330D01*
X1237844Y283832D01*
X1239629Y287998D02*
X1245580D01*
X1254447Y296330D02*
Y283832D01*
X1250281Y296330D02*
X1258613D01*
X1267837D02*
X1260101D01*
Y283832D01*
X1267837D01*
X1260101Y290379D02*
X1264862D01*
X1269920Y296330D02*
Y283832D01*
Y296330D02*
X1274086D01*
X1275871Y295735D01*
X1277061Y294544D01*
X1277656Y293354D01*
X1278252Y291569D01*
Y288593D01*
X1277656Y286808D01*
X1277061Y285618D01*
X1275871Y284427D01*
X1274086Y283832D01*
X1269920D01*
X1315099Y293949D02*
X1316289Y294544D01*
X1318075Y296330D01*
Y283832D01*
M02*
