G04*
G04 #@! TF.GenerationSoftware,Altium Limited,Altium Designer,21.0.9 (235)*
G04*
G04 Layer_Color=128*
%FSLAX25Y25*%
%MOIN*%
G70*
G04*
G04 #@! TF.SameCoordinates,A9EE82D5-5453-4621-884F-38B111DD7A68*
G04*
G04*
G04 #@! TF.FilePolarity,Positive*
G04*
G01*
G75*
%ADD18R,0.04016X0.05000*%
%ADD19R,0.03701X0.05315*%
%ADD51R,0.05315X0.03701*%
%ADD52R,0.05000X0.04016*%
%ADD53R,0.08504X0.09488*%
D18*
X406338Y368122D02*
D03*
X413346D02*
D03*
X413442Y344321D02*
D03*
X406435D02*
D03*
X406338Y360230D02*
D03*
X413346D02*
D03*
X413442Y352323D02*
D03*
X406434D02*
D03*
X600635Y359473D02*
D03*
X593627D02*
D03*
D19*
X436876Y660380D02*
D03*
X443884D02*
D03*
X593627Y367399D02*
D03*
X600635D02*
D03*
D51*
X673800Y344896D02*
D03*
Y351904D02*
D03*
X641411Y616043D02*
D03*
Y623051D02*
D03*
X641241Y633051D02*
D03*
Y640058D02*
D03*
X549478Y646796D02*
D03*
Y639788D02*
D03*
X479489Y588030D02*
D03*
Y581023D02*
D03*
X469478Y618323D02*
D03*
Y611315D02*
D03*
X647500Y351904D02*
D03*
Y344896D02*
D03*
X656700Y344796D02*
D03*
Y351804D02*
D03*
D52*
X664855Y351823D02*
D03*
Y344815D02*
D03*
D53*
X535885Y517552D02*
D03*
X561909D02*
D03*
M02*
