G04*
G04 #@! TF.GenerationSoftware,Altium Limited,Altium Designer,21.0.9 (235)*
G04*
G04 Layer_Color=32896*
%FSLAX25Y25*%
%MOIN*%
G70*
G04*
G04 #@! TF.SameCoordinates,20F31B83-B46A-4D4F-BE2C-671A53D897AC*
G04*
G04*
G04 #@! TF.FilePolarity,Positive*
G04*
G01*
G75*
%ADD64C,0.00201*%
D64*
X409539Y349831D02*
X409040Y349332D01*
X408043D01*
X407545Y349831D01*
Y351825D01*
X408043Y352323D01*
X409040D01*
X409539Y351825D01*
X412530Y349332D02*
X410536D01*
Y350828D01*
X411533Y350329D01*
X412032D01*
X412530Y350828D01*
Y351825D01*
X412032Y352323D01*
X411034D01*
X410536Y351825D01*
X409443Y357738D02*
X408945Y357239D01*
X407948D01*
X407449Y357738D01*
Y359732D01*
X407948Y360230D01*
X408945D01*
X409443Y359732D01*
X412434Y357239D02*
X411437Y357738D01*
X410440Y358735D01*
Y359732D01*
X410939Y360230D01*
X411936D01*
X412434Y359732D01*
Y359233D01*
X411936Y358735D01*
X410440D01*
X409539Y341829D02*
X409040Y341331D01*
X408043D01*
X407545Y341829D01*
Y343823D01*
X408043Y344322D01*
X409040D01*
X409539Y343823D01*
X412032Y344322D02*
Y341331D01*
X410536Y342826D01*
X412530D01*
X659969Y346325D02*
X659470Y346824D01*
Y347821D01*
X659969Y348319D01*
X661963D01*
X662462Y347821D01*
Y346824D01*
X661963Y346325D01*
X659969Y345328D02*
X659470Y344830D01*
Y343833D01*
X659969Y343334D01*
X660467D01*
X660966Y343833D01*
Y344331D01*
Y343833D01*
X661465Y343334D01*
X661963D01*
X662462Y343833D01*
Y344830D01*
X661963Y345328D01*
X409442Y365630D02*
X408944Y365131D01*
X407947D01*
X407448Y365630D01*
Y367624D01*
X407947Y368122D01*
X408944D01*
X409442Y367624D01*
X410439Y365131D02*
X412433D01*
Y365630D01*
X410439Y367624D01*
Y368122D01*
X596732Y356981D02*
X596233Y356482D01*
X595236D01*
X594737Y356981D01*
Y358975D01*
X595236Y359473D01*
X596233D01*
X596732Y358975D01*
X597728Y359473D02*
X598726D01*
X598227D01*
Y356482D01*
X597728Y356981D01*
M02*
