G04 ================== begin FILE IDENTIFICATION RECORD ==================*
G04 Layout Name:  TESTBED_IN4007.brd*
G04 Film Name:    BOTTOM*
G04 File Format:  Gerber RS274X*
G04 File Origin:  Cadence Allegro 16.6-2015-S108*
G04 Origin Date:  Mon Jan 04 13:55:09 2021*
G04 *
G04 Layer:  VIA CLASS/BOTTOM*
G04 Layer:  PIN/BOTTOM*
G04 Layer:  ETCH/BOTTOM*
G04 Layer:  BOARD GEOMETRY/OUTLINE*
G04 *
G04 Offset:    (0.000 0.000)*
G04 Mirror:    No*
G04 Mode:      Positive*
G04 Rotation:  0*
G04 FullContactRelief:  No*
G04 UndefLineWidth:     6.000*
G04 ================== end FILE IDENTIFICATION RECORD ====================*
%FSLAX55Y55*MOIN*%
%IR0*IPPOS*OFA0.00000B0.00000*MIA0B0*SFA1.00000B1.00000*%
%ADD22R,.085039X.094882*%
%ADD23C,.177165*%
%ADD12C,.106299*%
%ADD14C,.137795*%
%ADD15R,.040161X.05*%
%ADD26R,.05X.040161*%
%ADD11C,.016*%
%ADD19R,.05315X.037012*%
%ADD16R,.037012X.05315*%
%ADD18C,.068902*%
%ADD24C,.070866*%
%ADD21C,.062992*%
%ADD10C,.082677*%
%ADD17R,.068902X.068902*%
%ADD13C,.094488*%
%ADD20R,.062992X.062992*%
%ADD25R,.070866X.070866*%
%ADD27C,.008*%
%ADD28C,.02*%
%ADD29C,.03*%
%ADD30C,.006*%
%ADD35R,.088906X.088906*%
%ADD38R,.082996X.082996*%
%ADD32C,.126304*%
%ADD34C,.1538*%
%ADD33C,.104492*%
%ADD41C,.19317*%
%ADD31C,.092682*%
%ADD37C,.078906*%
%ADD36C,.088906*%
%ADD40C,.072996*%
%ADD39C,.082996*%
G75*
%LPD*%
G75*
G36*
G01X259252Y-3470D02*
G02X245504Y10278I0J13748D01*
G01Y14216D01*
G03X227756Y31964I-17748J0D01*
G01X65246D01*
G03X47498Y14216I0J-17748D01*
G01Y10278D01*
G02X33750Y-3470I-13748J0D01*
G01X19807D01*
G02X6059Y10278I0J13748D01*
G01Y403980D01*
G02X19807Y417728I13748J0D01*
G01X460730Y417727D01*
G02X474500Y403978I0J-13770D01*
G01Y10279D01*
G02X460752Y-3463I-13748J6D01*
G01X259252Y-3470D01*
G37*
%LPC*%
G75*
G36*
G01X20822Y376332D02*
X36460Y391970D01*
X63478D01*
Y393428D01*
X77374D01*
Y391970D01*
X85906D01*
G02Y386969I3676J-2500D01*
G01X77374D01*
Y385539D01*
X63478D01*
Y386969D01*
X38531D01*
X24358Y372796D01*
X24396Y372680D01*
G02X20706Y376370I-5448J-1758D01*
G01X20822Y376332D01*
G37*
G36*
G01X100982Y337554D02*
Y333688D01*
G02X98181I-1400J-4219D01*
G01Y337554D01*
X95924D01*
Y343256D01*
X103239D01*
Y337554D01*
X100982D01*
G37*
G36*
G01X113249Y319971D02*
Y314269D01*
X105934D01*
Y319971D01*
X108192D01*
Y325247D01*
G02X110992Y325254I1390J4222D01*
G01Y319971D01*
X113249D01*
G37*
G36*
G01X290211Y290651D02*
X287482Y287922D01*
X287536Y287798D01*
G02X285377Y289957I-3808J-1649D01*
G01X285502Y289902D01*
X287410Y291811D01*
Y292998D01*
G03X286722Y293275I-400J0D01*
G02Y299022I-2994J2874D01*
G03X287410Y299299I289J277D01*
G01Y302271D01*
X270114Y319567D01*
Y341712D01*
X267443D01*
Y355681D01*
X275405D01*
Y353540D01*
X281156D01*
G03X281551Y354000I0J400D01*
G02X284004Y350816I4103J624D01*
G01X283880Y350870D01*
X283750Y350740D01*
X275405D01*
Y341712D01*
X272914D01*
Y320727D01*
X290211Y303431D01*
Y299462D01*
G03X290885Y299171I400J0D01*
G02Y293126I2843J-3023D01*
G03X290211Y292834I-274J-291D01*
G01Y290651D01*
G37*
G36*
G01X32956Y271610D02*
X40231Y264335D01*
Y100688D01*
X46287D01*
Y69926D01*
X40231D01*
Y69479D01*
X38545Y67793D01*
X29291D01*
X22399Y74686D01*
X13395D01*
X10219Y77862D01*
Y267503D01*
X14326Y271610D01*
X32956D01*
G37*
G36*
G01X347512Y37918D02*
X150876D01*
X108192Y80602D01*
Y307261D01*
X105934D01*
Y312963D01*
X113249D01*
Y307261D01*
X110992D01*
Y81762D01*
X152036Y40718D01*
X346352D01*
X349506Y43872D01*
Y48390D01*
X345502Y52395D01*
X345377Y52340D01*
G02X341187Y52868I-1649J3808D01*
G03X340542Y52551I-245J-316D01*
G01Y50982D01*
X337482Y47922D01*
X337536Y47798D01*
G02X335377Y49957I-3808J-1649D01*
G01X335502Y49902D01*
X337742Y52142D01*
Y53384D01*
G03X337024Y53627I-400J0D01*
G02Y58670I-3296J2521D01*
G03X337742Y58913I318J243D01*
G01Y63653D01*
X376331Y102242D01*
Y340522D01*
X328468Y388384D01*
X287914D01*
G03X287691Y387652I0J-400D01*
G02X283616I-2038J-3028D01*
G03X283393Y388384I-223J332D01*
G01X224564D01*
X203657Y367478D01*
X183447D01*
Y365489D01*
X175594D01*
Y379386D01*
X178181D01*
Y385250D01*
G02X180982I1400J4219D01*
G01Y379386D01*
X183447D01*
Y370278D01*
X202497D01*
X223404Y391184D01*
X329628D01*
X379131Y341682D01*
Y101082D01*
X340542Y62493D01*
Y59746D01*
G03X341187Y59429I400J0D01*
G02X347536Y54499I2541J-3281D01*
G01X347482Y54375D01*
X352307Y49550D01*
Y42712D01*
X347512Y37918D01*
G37*
G36*
G01X237334Y51230D02*
X230813D01*
X228619Y53425D01*
Y64207D01*
X249937Y85526D01*
X240975Y94488D01*
X233589D01*
Y92831D01*
X233570D01*
Y85415D01*
X226739D01*
Y85062D01*
X225130D01*
Y60054D01*
G02X222328Y60055I-1402J-3906D01*
G01Y61548D01*
X222330D01*
Y85062D01*
X220722D01*
Y85415D01*
X220252D01*
Y98793D01*
X215162Y103884D01*
Y221019D01*
X199402Y236779D01*
G03X198719Y236496I-283J-283D01*
G01Y234156D01*
X158983D01*
Y259344D01*
X176711D01*
X187313Y269946D01*
Y282899D01*
G03X186633Y283185I-400J0D01*
G02Y289112I-2905J2964D01*
G03X187313Y289398I280J286D01*
G01Y292899D01*
G03X186633Y293185I-400J0D01*
G02X179920Y297798I-2905J2964D01*
G01X179974Y297922D01*
X153052Y324844D01*
Y325721D01*
G03X152399Y326031I-400J0D01*
G02Y332908I-2817J3439D01*
G03X153052Y333218I254J309D01*
G01Y336407D01*
X143447Y346012D01*
X103239D01*
Y344562D01*
X95924D01*
Y350263D01*
X103239D01*
Y348813D01*
X144607D01*
X155853Y337567D01*
Y332990D01*
G03X156527Y332699I400J0D01*
G02X156204Y326579I3054J-3230D01*
G01X156145Y326649D01*
X155853D01*
Y326005D01*
X181956Y299901D01*
G02X186633Y299112I1772J-3752D01*
G03X187313Y299398I280J286D01*
G01Y307281D01*
X204451Y324419D01*
Y342302D01*
X235800Y373652D01*
X252069D01*
Y376795D01*
X261156D01*
Y367708D01*
X252069D01*
Y370851D01*
X236960D01*
X207251Y341142D01*
Y323259D01*
X190113Y306121D01*
Y299368D01*
G03X190796Y299085I400J0D01*
G02X196517Y299221I2932J-2936D01*
G03X197186Y299518I269J296D01*
G01Y309702D01*
X208301Y320817D01*
Y336590D01*
X225678Y353967D01*
X252290D01*
G02Y351166I4322J-1400D01*
G01X226838D01*
X211101Y335430D01*
Y319657D01*
X199986Y308542D01*
Y299236D01*
G03X200680Y298965I400J0D01*
G02Y293332I3048J-2816D01*
G03X199986Y293061I-294J-271D01*
G01Y289236D01*
G03X200680Y288965I400J0D01*
G02Y283332I3048J-2816D01*
G03X199986Y283061I-294J-271D01*
G01Y258640D01*
X198719Y257372D01*
Y241422D01*
X217962Y222179D01*
Y105044D01*
X222608Y100398D01*
X233570D01*
Y100146D01*
X233589D01*
Y98488D01*
X242632D01*
X252766Y88355D01*
X264096Y99685D01*
X326316D01*
X353132Y126501D01*
Y323714D01*
X308196Y368649D01*
X288403D01*
G03X288161Y367931I0J-400D01*
G02X284004Y360816I-2507J-3307D01*
G01X283880Y360870D01*
X283750Y360740D01*
X275224D01*
Y358830D01*
X267263D01*
Y367748D01*
X266640D01*
X266020Y367128D01*
Y316460D01*
X247482Y297922D01*
X247536Y297798D01*
G02X245377Y299957I-3808J-1649D01*
G01X245502Y299902D01*
X263220Y317620D01*
Y368288D01*
X265480Y370548D01*
X267263D01*
Y372655D01*
X275224D01*
Y363540D01*
X281156D01*
G03X281551Y364000I0J400D01*
G02X283146Y367931I4103J624D01*
G03X282904Y368649I-242J319D01*
G01X282314D01*
X279807Y371156D01*
Y377784D01*
X282063Y380040D01*
X315579D01*
X365074Y330546D01*
Y116316D01*
X333396Y84638D01*
X307651D01*
Y70433D01*
X305128D01*
Y60055D01*
G02X302328I-1400J-3906D01*
G01Y70433D01*
X273777D01*
Y71905D01*
X262313D01*
X247715Y57306D01*
X247744Y57196D01*
G02X240109Y54119I-4016J-1047D01*
G01X240051Y54221D01*
X239734D01*
Y53630D01*
X237334Y51230D01*
G37*
G54D35*
X89582Y329469D03*
G54D38*
X163728Y46148D03*
G54D32*
X19280Y302989D03*
G54D34*
X32473Y10279D03*
X243710Y403980D03*
X261597Y10279D03*
X274988Y246499D03*
X274976Y403814D03*
X353728Y10279D03*
G54D33*
X18948Y351237D03*
G54D41*
X229712Y321302D03*
G54D31*
X15472Y66174D03*
G54D37*
X119582Y389469D03*
G54D36*
X99582D03*
X119582Y329469D03*
X109582Y389469D03*
X139582Y329469D03*
X129582D03*
X139582Y389469D03*
X129582D03*
X159582D03*
X149582D03*
X179582Y329469D03*
X169582D03*
Y389469D03*
X199582Y329469D03*
X189582D03*
X199582Y389469D03*
X189582D03*
G54D40*
X193728Y56148D03*
X253728Y46148D03*
Y56148D03*
X263728D03*
G54D39*
X173728Y46148D03*
X163728Y56148D03*
X173728D03*
X163728Y286148D03*
X173728Y296148D03*
Y286148D03*
X163728Y296148D03*
X183728Y46148D03*
X193728D03*
X183728Y56148D03*
X203728Y46148D03*
X213728D03*
X203728Y56148D03*
X213728D03*
Y296148D03*
Y286148D03*
X223728Y46148D03*
X233728D03*
Y296148D03*
X223728D03*
X233728Y286148D03*
X223728D03*
X243728Y46148D03*
X253728Y296148D03*
Y286148D03*
X243728D03*
X283728Y56148D03*
Y46148D03*
X273728Y56148D03*
Y46148D03*
X263728D03*
X273728Y286148D03*
Y296148D03*
X263728D03*
Y286148D03*
X303728Y46148D03*
X293728Y56148D03*
Y46148D03*
X303728Y286148D03*
Y296148D03*
X293728Y286148D03*
X285654Y334624D03*
Y344624D03*
X323728Y46148D03*
Y56148D03*
X313728D03*
Y46148D03*
X323728Y296148D03*
Y286148D03*
X313728D03*
Y296148D03*
X343728Y46148D03*
X333728Y296148D03*
Y286148D03*
X343728Y296148D03*
Y286148D03*
%LPD*%
G75*
G36*
G01X11719Y78484D02*
Y266881D01*
X14948Y270110D01*
X32334D01*
X38730Y263714D01*
Y70101D01*
X37923Y69294D01*
X29913D01*
X23020Y76186D01*
X14016D01*
X11719Y78484D01*
G37*
G36*
G01X181354Y260027D02*
X190113Y268786D01*
Y282929D01*
G02X190796Y283212I400J0D01*
G03X196517Y283076I2932J2936D01*
G02X197186Y282780I269J-296D01*
G01Y259800D01*
X196730Y259344D01*
X181637D01*
G02X181354Y260027I0J400D01*
G37*
G36*
G01X236713Y52731D02*
X231435D01*
X230119Y54047D01*
Y63586D01*
X264718Y98184D01*
X326937D01*
X354632Y125879D01*
Y324336D01*
X308818Y370150D01*
X282935D01*
X281307Y371778D01*
Y377163D01*
X282684Y378540D01*
X314958D01*
X363574Y329924D01*
Y116937D01*
X332774Y86138D01*
X266642D01*
X238234Y57730D01*
Y54252D01*
X236713Y52731D01*
G37*
G54D10*
X15472Y66174D03*
Y81174D03*
G54D20*
X163728Y46148D03*
G54D11*
X8528Y101039D03*
Y116039D03*
Y119228D03*
Y131039D03*
Y127102D03*
Y123165D03*
Y146039D03*
Y161039D03*
Y176039D03*
Y191039D03*
Y206039D03*
Y236039D03*
Y221039D03*
X36073Y51795D03*
Y66795D03*
X21073Y411795D03*
X36073D03*
X51073Y51795D03*
Y66795D03*
X48556Y74303D03*
Y86114D03*
Y78240D03*
Y93988D03*
Y82177D03*
Y90051D03*
Y97925D03*
X51073Y411795D03*
X66073Y51795D03*
Y66795D03*
Y411795D03*
X81073Y51795D03*
X96073D03*
X81073Y66795D03*
X96073D03*
Y111795D03*
Y126795D03*
Y141795D03*
Y156795D03*
Y171795D03*
Y186795D03*
Y201795D03*
Y216795D03*
Y231795D03*
Y246795D03*
Y261795D03*
Y276795D03*
Y291795D03*
Y306795D03*
X81073Y411795D03*
X96073D03*
X111073Y51795D03*
Y66795D03*
Y411795D03*
X126073Y51795D03*
Y111795D03*
Y126795D03*
Y141795D03*
Y156795D03*
Y171795D03*
Y186795D03*
Y201795D03*
Y216795D03*
Y231795D03*
Y246795D03*
Y261795D03*
Y276795D03*
Y291795D03*
Y306795D03*
Y411795D03*
X141073Y66795D03*
Y111795D03*
X156073D03*
X141073Y126795D03*
X156073D03*
X141073Y141795D03*
X156073D03*
X141073Y156795D03*
X156073D03*
X141073Y171795D03*
X156073D03*
X141073Y186795D03*
X156073D03*
X141073Y201795D03*
X156073D03*
X141073Y216795D03*
X156073D03*
X141073Y231795D03*
X156073D03*
X141073Y246795D03*
X156073D03*
X141073Y261795D03*
X156073D03*
X141073Y276795D03*
Y291795D03*
Y306795D03*
Y411795D03*
X156073D03*
X171073Y111795D03*
Y126795D03*
Y141795D03*
Y156795D03*
Y171795D03*
Y186795D03*
Y201795D03*
Y216795D03*
Y231795D03*
Y261795D03*
X173389Y359240D03*
Y344240D03*
Y374240D03*
X171073Y411795D03*
X186073Y111795D03*
Y126795D03*
Y141795D03*
Y156795D03*
Y171795D03*
Y186795D03*
Y201795D03*
Y216795D03*
Y231795D03*
X193827Y278357D03*
X186073Y261795D03*
X193827Y304255D03*
X188389Y359240D03*
Y344240D03*
Y374240D03*
X186073Y411795D03*
X201073Y111795D03*
Y126795D03*
Y141795D03*
Y156795D03*
Y171795D03*
Y186795D03*
Y201795D03*
Y216795D03*
Y231795D03*
X216073Y246795D03*
X201073D03*
X216073Y261795D03*
X201073D03*
X203389Y359240D03*
X218389D03*
X203389Y344240D03*
Y374240D03*
X218389D03*
X201073Y411795D03*
X216073D03*
X227688Y67706D03*
X237574Y75230D03*
X234908Y88563D03*
X230738Y84257D03*
X231073Y111795D03*
Y126795D03*
Y141795D03*
Y156795D03*
Y171795D03*
Y186795D03*
Y201795D03*
Y216795D03*
Y246795D03*
Y261795D03*
Y411795D03*
X261073Y66795D03*
X246073Y111795D03*
X261073D03*
X246073Y126795D03*
X261073D03*
X246073Y141795D03*
X261073D03*
X246073Y156795D03*
X261073D03*
X246073Y171795D03*
X261073D03*
X246073Y186795D03*
X261073D03*
X246073Y201795D03*
X261073D03*
X246073Y216795D03*
X261073D03*
X246337Y239805D03*
X246533Y251008D03*
X242301Y245504D03*
X246073Y261795D03*
X276073Y66795D03*
Y111795D03*
Y126795D03*
Y141795D03*
Y156795D03*
Y171795D03*
Y186795D03*
Y201795D03*
Y216795D03*
X277009Y348629D03*
X277644Y370400D03*
X291073Y6795D03*
Y21795D03*
Y66795D03*
X294958Y69434D03*
X286592D03*
X291073Y111795D03*
Y126795D03*
Y141795D03*
Y156795D03*
Y171795D03*
Y186795D03*
Y201795D03*
Y216795D03*
X289313Y359633D03*
X291073Y411795D03*
X306073Y6795D03*
X321073D03*
X306073Y21795D03*
X321073D03*
X306073Y66795D03*
X321073D03*
Y81795D03*
X306073Y111795D03*
X321073D03*
X306073Y126795D03*
X321073D03*
X306073Y141795D03*
X321073D03*
X306073Y156795D03*
X321073D03*
X306073Y171795D03*
X321073D03*
X306073Y186795D03*
X321073D03*
X306073Y201795D03*
X321073D03*
X306073Y216795D03*
X321073D03*
Y231795D03*
Y246795D03*
Y261795D03*
X306073Y321795D03*
X321073D03*
X306073Y336795D03*
X321073D03*
X306073Y351795D03*
X321073D03*
X306073Y366795D03*
Y381795D03*
X321073D03*
X306073Y396795D03*
X321073D03*
Y411795D03*
X306073D03*
X336073Y66795D03*
Y81795D03*
Y111795D03*
Y126795D03*
Y141795D03*
Y156795D03*
Y171795D03*
Y186795D03*
Y201795D03*
Y216795D03*
Y231795D03*
Y246795D03*
Y261795D03*
Y321795D03*
Y336795D03*
Y366795D03*
Y396795D03*
Y411795D03*
X351073Y66795D03*
Y81795D03*
Y96795D03*
Y126795D03*
Y141795D03*
Y156795D03*
Y171795D03*
Y186795D03*
Y201795D03*
Y216795D03*
Y231795D03*
Y246795D03*
Y261795D03*
Y321795D03*
Y351795D03*
Y381795D03*
Y396795D03*
Y411795D03*
X381073Y6795D03*
Y21795D03*
Y36795D03*
Y51795D03*
X366073Y66795D03*
X381073D03*
X366073Y81795D03*
X381073D03*
X366073Y111795D03*
Y96795D03*
X381073D03*
Y111795D03*
X366073Y126795D03*
X381073D03*
X366073Y141795D03*
X381073D03*
X366073Y156795D03*
X381073D03*
X366073Y171795D03*
X381073D03*
X366073Y186795D03*
X381073D03*
X366073Y201795D03*
X381073D03*
X366073Y216795D03*
X381073D03*
X366073Y231795D03*
X381073D03*
X366073Y246795D03*
X381073D03*
X366073Y261795D03*
X381073D03*
Y276795D03*
Y291795D03*
Y306795D03*
X366073Y321795D03*
X381073D03*
X366073Y336795D03*
X381073D03*
Y351795D03*
X366073Y366795D03*
X381073D03*
X366073Y381795D03*
X381073D03*
X366073Y396795D03*
X381073D03*
X366073Y411795D03*
X381073D03*
X396073Y6795D03*
Y21795D03*
Y36795D03*
Y51795D03*
Y66795D03*
Y81795D03*
Y96795D03*
Y111795D03*
Y126795D03*
Y141795D03*
Y156795D03*
Y171795D03*
Y186795D03*
Y201795D03*
Y216795D03*
Y231795D03*
Y246795D03*
Y261795D03*
Y276795D03*
Y291795D03*
Y306795D03*
Y321795D03*
Y336795D03*
Y351795D03*
Y366795D03*
Y381795D03*
Y396795D03*
Y411795D03*
X411073Y6795D03*
Y21795D03*
Y36795D03*
Y51795D03*
Y66795D03*
Y81795D03*
Y96795D03*
Y111795D03*
Y126795D03*
Y141795D03*
Y156795D03*
Y171795D03*
Y186795D03*
Y201795D03*
Y216795D03*
Y231795D03*
Y246795D03*
Y261795D03*
Y276795D03*
Y291795D03*
Y306795D03*
Y321795D03*
Y336795D03*
Y351795D03*
Y366795D03*
Y381795D03*
Y396795D03*
Y411795D03*
X441073Y6795D03*
X426073D03*
X441073Y21795D03*
X426073D03*
X441073Y36795D03*
X426073D03*
X441073Y51795D03*
X426073D03*
X441073Y66795D03*
X426073D03*
X441073Y81795D03*
X426073D03*
X441073Y96795D03*
X426073D03*
X441073Y111795D03*
X426073D03*
X441073Y126795D03*
X426073D03*
X441073Y141795D03*
X426073D03*
X441073Y156795D03*
X426073D03*
X441073Y171795D03*
X426073D03*
X441073Y186795D03*
X426073D03*
X441073Y201795D03*
X426073D03*
X441073Y216795D03*
X426073D03*
X441073Y231795D03*
X426073D03*
X441073Y246795D03*
X426073D03*
X441073Y261795D03*
X426073D03*
X441073Y276795D03*
X426073D03*
X441073Y291795D03*
X426073D03*
X441073Y306795D03*
X426073D03*
Y321795D03*
X441073D03*
X426073Y336795D03*
X441073D03*
X426073Y351795D03*
X441073D03*
X426073Y366795D03*
X441073D03*
X426073Y381795D03*
X441073D03*
X426073Y396795D03*
X441073D03*
Y411795D03*
X426073D03*
X456073Y6795D03*
Y21795D03*
Y36795D03*
Y51795D03*
Y66795D03*
Y81795D03*
Y96795D03*
Y111795D03*
Y126795D03*
Y141795D03*
Y156795D03*
Y171795D03*
Y186795D03*
Y201795D03*
Y216795D03*
Y231795D03*
Y246795D03*
Y261795D03*
Y276795D03*
Y291795D03*
Y306795D03*
Y321795D03*
Y336795D03*
Y351795D03*
Y366795D03*
Y381795D03*
Y396795D03*
Y411795D03*
G54D30*
G01X460730Y419727D02*
X19807Y419728D01*
G03X4059Y403980I0J-15748D01*
G01Y10279D01*
G03X19807Y-5470I15748J0D01*
G01X33750D01*
G03X49498Y10279I0J15748D01*
G01Y14216D01*
G02X65246Y29964I15748J0D01*
G01X227756D01*
G02X243504Y14216I0J-15748D01*
G01Y10279D01*
G03X259252Y-5470I15748J0D01*
G01X460752Y-5463D01*
G03X476500Y10279I0J15748D01*
G01Y403980D01*
G03X460730Y419727I-15770J-22D01*
G01X476500Y403980D02*
Y10279D01*
G02X460752Y-5463I-15748J6D01*
G01X259252Y-5470D01*
G02X243504Y10279I0J15748D01*
G01Y14216D01*
G03X227756Y29964I-15748J0D01*
G01X65246D01*
G03X49498Y14216I0J-15748D01*
G01Y10279D01*
G02X33750Y-5470I-15748J0D01*
G01X19807D01*
G02X4059Y10279I0J15748D01*
G01Y403980D01*
G02X19807Y419728I15748J0D01*
G01X460730Y419727D01*
G02X476500Y403980I0J-15770D01*
G54D21*
X173728Y46148D03*
X163728Y56148D03*
X173728D03*
X163728Y286148D03*
X173728Y296148D03*
Y286148D03*
X163728Y296148D03*
X183728Y46148D03*
X193728D03*
X183728Y56148D03*
X193728D03*
Y296148D03*
Y286148D03*
X183728Y296148D03*
Y286148D03*
X203728Y46148D03*
X213728D03*
X203728Y56148D03*
X213728D03*
Y296148D03*
Y286148D03*
X203728Y296148D03*
Y286148D03*
X223728Y46148D03*
X233728D03*
X223728Y56148D03*
X233728D03*
Y296148D03*
X223728D03*
X233728Y286148D03*
X223728D03*
X243728Y46148D03*
X253728D03*
X243728Y56148D03*
X253728D03*
Y296148D03*
Y286148D03*
X243728Y296148D03*
Y286148D03*
X283728Y56148D03*
Y46148D03*
X273728Y56148D03*
Y46148D03*
X263728D03*
Y56148D03*
X273728Y286148D03*
Y296148D03*
X283728Y286148D03*
Y296148D03*
X263728D03*
Y286148D03*
X303728Y56148D03*
Y46148D03*
X293728Y56148D03*
Y46148D03*
X303728Y286148D03*
Y296148D03*
X293728Y286148D03*
Y296148D03*
X285654Y334624D03*
Y354624D03*
Y344624D03*
Y374624D03*
Y364624D03*
Y384624D03*
X323728Y46148D03*
Y56148D03*
X313728D03*
Y46148D03*
X323728Y296148D03*
Y286148D03*
X313728D03*
Y296148D03*
X343728Y46148D03*
Y56148D03*
X333728Y46148D03*
Y56148D03*
Y296148D03*
Y286148D03*
X343728Y296148D03*
Y286148D03*
G54D12*
X19280Y263619D03*
Y302989D03*
G54D13*
X18948Y351237D03*
Y370922D03*
G54D22*
X165988Y246641D03*
X192012D03*
G54D14*
X32473Y10279D03*
X243710Y403980D03*
X261597Y10279D03*
X274988Y246499D03*
X274976Y403814D03*
X353728Y10279D03*
G54D23*
X229712Y321302D03*
G54D24*
X256613Y352567D03*
G54D15*
X36538Y73411D03*
Y81413D03*
X36442Y89320D03*
X36441Y97212D03*
X43546Y73411D03*
Y81413D03*
X43450Y89320D03*
X43449Y97212D03*
X223730Y88563D03*
X230738D03*
G54D25*
X256613Y372252D03*
G54D16*
X73987Y389469D03*
X66980D03*
X223730Y96488D03*
X230738D03*
G54D17*
X89582Y329469D03*
G54D26*
X294958Y73905D03*
Y80913D03*
G54D27*
G01X109592Y310112D02*
Y81182D01*
X151456Y39318D01*
X346932D01*
X350906Y43292D01*
Y48970D01*
X343728Y56148D01*
G01X109592Y317120D02*
Y329459D01*
X109582Y329469D01*
G01X99582Y340405D02*
Y329469D01*
G01X183728Y296148D02*
X154452Y325424D01*
Y336987D01*
X144027Y347413D01*
X99582D01*
G01X165988Y246641D02*
X188713Y269366D01*
Y306701D01*
X205851Y323839D01*
Y341722D01*
X236380Y372252D01*
X256613D01*
G01X223730Y96488D02*
Y97295D01*
X216562Y104464D01*
Y221599D01*
X192012Y246149D01*
Y246641D01*
G01D02*
Y252645D01*
X198586Y259220D01*
Y309122D01*
X209701Y320237D01*
Y336010D01*
X226258Y352567D01*
X256613D01*
G01X179582Y375886D02*
Y389469D01*
G01X333728Y46148D02*
X339142Y51562D01*
Y63073D01*
X377731Y101662D01*
Y341102D01*
X329048Y389784D01*
X223984D01*
X203077Y368878D01*
X179582D01*
G01X223730Y88563D02*
Y60148D01*
X223728D01*
Y56148D01*
G01X223730Y96488D02*
Y88563D01*
G01X271344Y369148D02*
X266060D01*
X264620Y367708D01*
Y317040D01*
X243728Y296148D01*
G01X277710Y80913D02*
X286592D01*
G01X271514Y345132D02*
Y320147D01*
X288811Y302851D01*
Y291231D01*
X283728Y286148D01*
G01X285654Y354624D02*
X283170Y352140D01*
X271514D01*
G01X285654Y364624D02*
X283170Y362140D01*
X271344D01*
G01X294958Y80913D02*
X303728D01*
G01X286592D02*
X294958D01*
G01X303728Y73905D02*
Y56148D01*
G54D18*
X99582Y329469D03*
Y389469D03*
X89582D03*
X119582Y329469D03*
X109582D03*
X119582Y389469D03*
X109582D03*
X139582Y329469D03*
X129582D03*
X139582Y389469D03*
X129582D03*
X159582Y329469D03*
X149582D03*
X159582Y389469D03*
X149582D03*
X179582Y329469D03*
X169582D03*
X179582Y389469D03*
X169582D03*
X199582Y329469D03*
X189582D03*
X199582Y389469D03*
X189582D03*
G54D28*
G01X15472Y61340D02*
Y66174D01*
G01D02*
Y71008D01*
G01X10638Y66174D02*
X15472D01*
G01D02*
X20306D01*
G01X13523Y351237D02*
X18948D01*
G01Y345812D02*
Y351237D01*
G01D02*
Y356661D01*
G01Y351237D02*
X24372D01*
G01X43546Y81413D02*
Y73411D01*
G01D02*
Y68176D01*
G01X48556Y74303D02*
X47664Y73411D01*
G01D02*
X43546D01*
G01X43450Y89320D02*
Y81508D01*
X43546Y81413D01*
G01X43449Y97212D02*
Y89321D01*
X43450Y89320D01*
G01X48556Y90051D02*
X47825Y89320D01*
G01X48556Y82177D02*
X47792Y81413D01*
G01X47825Y89320D02*
X43450D01*
G01X47792Y81413D02*
X43546D01*
G01X43449Y97212D02*
Y103418D01*
G01X48556Y97925D02*
X47843Y97212D01*
G01D02*
X43449D01*
G01X115436Y389469D02*
X119582D01*
G01Y385324D02*
Y389469D01*
G01D02*
Y393615D01*
G01Y389469D02*
X123727D01*
G01X193728Y52299D02*
Y56148D01*
G01D02*
Y59998D01*
G01X189879Y56148D02*
X193728D01*
G01D02*
X197578D01*
G01X230738Y88563D02*
X234908D01*
G01X230738D02*
Y84257D01*
G01X253402Y84890D02*
X241804Y96488D01*
X230738D01*
G01X253728Y52299D02*
Y56148D01*
G01Y42299D02*
Y46148D01*
G01D02*
Y49998D01*
G01X249878Y46148D02*
X253728D01*
G01D02*
X257578D01*
G01X259878Y56148D02*
X263728D01*
G01X253728D02*
Y59998D01*
G01X249878Y56148D02*
X253728D01*
G01D02*
X257578D01*
G01X277710Y73905D02*
X261485D01*
X243728Y56148D01*
G01X263728Y52299D02*
Y56148D01*
G01D02*
Y59998D01*
G01Y56148D02*
X267578D01*
G01X294958Y73905D02*
Y69434D01*
G01X286592Y73905D02*
Y69434D01*
G01X285654Y380774D02*
Y384624D01*
G01X281804D02*
X285654D01*
G01D02*
X289503D01*
G54D19*
X99582Y340405D03*
Y347413D03*
X109592Y310112D03*
Y317120D03*
X179582Y375886D03*
Y368878D03*
X277710Y73905D03*
Y80913D03*
X271514Y345132D03*
Y352140D03*
X271344Y369148D03*
Y362140D03*
X286592Y73905D03*
X303728D03*
X286592Y80913D03*
X303728D03*
G54D29*
G01X66980Y389469D02*
X37495D01*
X18948Y370922D01*
G01X89582Y389469D02*
X73987D01*
M02*
